<svg width="490" height="121" viewBox="0 0 490 121" fill="none" xmlns="http://www.w3.org/2000/svg">
<g filter="url(#filter0_d_265_4)">
<path d="M60.5 113C29.2959 113 4 87.7041 4 56.5C4 25.2959 29.2959 0 60.5 0L429.5 0C460.704 0 486 25.2959 486 56.5C486 87.7041 460.704 113 429.5 113L60.5 113Z" fill="url(#paint0_linear_265_4)"/>
</g>
<g filter="url(#filter1_d_265_4)">
<path d="M46.725 60.24H80.285V64.48H46.725V60.24ZM60.725 62.96H66.005V76.56H60.725V62.96ZM50.605 41.32H76.285V56.28H50.605V41.32ZM71.045 45.52H55.845V52.08H71.045V45.52ZM92.0419 61.12H97.2419V69.84H92.0419V61.12ZM103.762 61.08H108.962V69.84H103.762V61.08ZM83.5619 68.16H117.082V72.48H83.5619V68.16ZM87.3219 41.92H113.322V54.2H92.6819V60.48H87.4019V50.04H108.042V46.12H87.3219V41.92ZM87.4019 58.24H114.162V62.52H87.4019V58.24ZM131.833 40.88H159.433V45.08H131.833V40.88ZM132.113 51.36H159.153V55.52H132.113V51.36ZM136.553 42.52H141.873V53.52H136.553V42.52ZM149.393 42.52H154.713V53.52H149.393V42.52ZM128.913 58.88H162.393V63.08H128.913V58.88ZM142.953 54.16H148.273V61.36H142.953V54.16ZM132.953 71.68H158.633V75.92H132.953V71.68ZM132.953 65.44H138.273V73.2H132.953V65.44ZM169.669 58.6H195.709V62.76H169.669V58.6ZM165.749 68H199.269V72.32H165.749V68ZM169.669 42.2H195.389V46.48H175.069V59.76H169.669V42.2ZM173.429 50.36H194.549V54.48H173.429V50.36ZM237.06 49.56V53.6L214.42 54.72L213.78 50.24L237.06 49.56ZM215.02 41.56H238.22V45.76H215.02V41.56ZM211.14 59.08H244.62V63.36H211.14V59.08ZM225.18 62.48H230.5V76.52H225.18V62.48ZM235.82 41.56H240.94V44.88C240.94 48.96 240.94 53.52 239.5 60.16L234.34 59.56C235.82 53.32 235.82 48.84 235.82 44.88V41.56ZM250.817 40.88H278.417V45.08H250.817V40.88ZM251.097 51.36H278.137V55.52H251.097V51.36ZM255.537 42.52H260.857V53.52H255.537V42.52ZM268.377 42.52H273.697V53.52H268.377V42.52ZM247.897 58.88H281.377V63.08H247.897V58.88ZM261.937 54.16H267.257V61.36H261.937V54.16ZM251.937 71.68H277.617V75.92H251.937V71.68ZM251.937 65.44H257.257V73.2H251.937V65.44ZM316.968 39.48H322.328V76.64H316.968V39.48ZM321.128 53.2H327.688V57.56H321.128V53.2ZM294.728 63.32H297.848C304.088 63.32 309.008 63.12 314.448 62.16L314.968 66.56C309.368 67.56 304.288 67.72 297.848 67.72H294.728V63.32ZM294.728 42.92H312.008V47.2H300.008V65.44H294.728V42.92ZM330.084 57.52H363.644V61.72H330.084V57.52ZM344.444 60.28H349.844V68.08H344.444V60.28ZM334.004 71.64H359.964V75.92H334.004V71.64ZM334.004 64.84H339.364V72.72H334.004V64.84ZM346.844 40.2C354.804 40.2 360.164 43.2 360.164 47.88C360.164 52.6 354.804 55.56 346.844 55.56C338.844 55.56 333.524 52.6 333.524 47.88C333.524 43.2 338.844 40.2 346.844 40.2ZM346.844 44.4C342.164 44.4 339.244 45.6 339.244 47.88C339.244 50.16 342.164 51.32 346.844 51.32C351.524 51.32 354.444 50.16 354.444 47.88C354.444 45.6 351.524 44.4 346.844 44.4ZM366.921 68.16H400.441V72.48H366.921V68.16ZM380.961 61.16H386.281V69.92H380.961V61.16ZM370.681 41.92H396.681V54.24H376.041V60.48H370.761V50.08H391.401V46.12H370.681V41.92ZM370.761 58.36H397.521V62.64H370.761V58.36ZM407.598 56.6H433.638V60.84H407.598V56.6ZM403.718 67.76H437.238V72.12H403.718V67.76ZM407.598 42.56H433.358V46.88H412.878V58.36H407.598V42.56Z" fill="white"/>
</g>
<defs>
<filter id="filter0_d_265_4" x="0" y="0" width="490" height="121" filterUnits="userSpaceOnUse" color-interpolation-filters="sRGB">
<feFlood flood-opacity="0" result="BackgroundImageFix"/>
<feColorMatrix in="SourceAlpha" type="matrix" values="0 0 0 0 0 0 0 0 0 0 0 0 0 0 0 0 0 0 127 0" result="hardAlpha"/>
<feOffset dy="4"/>
<feGaussianBlur stdDeviation="2"/>
<feComposite in2="hardAlpha" operator="out"/>
<feColorMatrix type="matrix" values="0 0 0 0 0 0 0 0 0 0 0 0 0 0 0 0 0 0 0.25 0"/>
<feBlend mode="normal" in2="BackgroundImageFix" result="effect1_dropShadow_265_4"/>
<feBlend mode="normal" in="SourceGraphic" in2="effect1_dropShadow_265_4" result="shape"/>
</filter>
<filter id="filter1_d_265_4" x="42.7251" y="39.4805" width="398.513" height="45.1592" filterUnits="userSpaceOnUse" color-interpolation-filters="sRGB">
<feFlood flood-opacity="0" result="BackgroundImageFix"/>
<feColorMatrix in="SourceAlpha" type="matrix" values="0 0 0 0 0 0 0 0 0 0 0 0 0 0 0 0 0 0 127 0" result="hardAlpha"/>
<feOffset dy="4"/>
<feGaussianBlur stdDeviation="2"/>
<feComposite in2="hardAlpha" operator="out"/>
<feColorMatrix type="matrix" values="0 0 0 0 0 0 0 0 0 0 0 0 0 0 0 0 0 0 0.25 0"/>
<feBlend mode="normal" in2="BackgroundImageFix" result="effect1_dropShadow_265_4"/>
<feBlend mode="normal" in="SourceGraphic" in2="effect1_dropShadow_265_4" result="shape"/>
</filter>
<linearGradient id="paint0_linear_265_4" x1="4" y1="56.5" x2="300.99" y2="56.5" gradientUnits="userSpaceOnUse">
<stop stop-color="#299ED5"/>
<stop offset="1" stop-color="#7DE4BE"/>
</linearGradient>
</defs>
</svg>
