<svg width="870" height="899" viewBox="0 0 870 899" fill="none" xmlns="http://www.w3.org/2000/svg">
<g filter="url(#filter0_f_236_337)">
<circle cx="28" cy="33" r="24" fill="#C8C8C8" fill-opacity="0.8"/>
</g>
<circle cx="28.5" cy="34.5" r="14.5" fill="#2E2E2E" fill-opacity="0.8"/>
<circle cx="28.5" cy="320.5" r="12.5" stroke="black" stroke-opacity="0.5" stroke-width="4"/>
<circle cx="28.5" cy="627.5" r="12.5" stroke="black" stroke-opacity="0.5" stroke-width="4"/>
<line x1="30" y1="72" x2="30" y2="277" stroke="black" stroke-opacity="0.5" stroke-width="4"/>
<line x1="30" y1="366" x2="30" y2="585" stroke="black" stroke-opacity="0.5" stroke-width="4"/>
<line x1="30" y1="667" x2="30" y2="899" stroke="black" stroke-opacity="0.5" stroke-width="4"/>
<path d="M103.672 295.15H110.022V341.45H103.672V295.15ZM98.1217 312.8H105.772V318.15H98.1217V312.8ZM93.5217 295.85H99.7717V339.35H93.5217V295.85ZM71.5217 299.9H89.8217V329.9H71.5217V299.9ZM83.6217 305.1H77.7217V324.7H83.6217V305.1ZM117.968 317.2H121.518C130.118 317.2 134.618 317.05 139.868 316.1L140.518 321.35C135.118 322.35 130.368 322.5 121.518 322.5H117.968V317.2ZM117.918 297.8H138.268V312.4H124.568V320.7H117.968V307.45H131.668V303.05H117.918V297.8ZM148.318 295.2H154.968V323.7H148.318V295.2ZM140.918 301.55H149.518V306.85H140.918V301.55ZM140.918 311.4H149.518V316.7H140.918V311.4ZM123.268 325.8H154.968V341.5H148.318V331.1H123.268V325.8ZM198.286 307.7H207.036V313.1H198.286V307.7ZM180.986 325.15H212.536V341.5H205.886V330.5H180.986V325.15ZM205.886 295.15H212.536V323.15H205.886V295.15ZM184.186 303.7H189.536V305.35C189.536 313.5 185.436 320.7 176.586 323.25L173.486 318.1C180.936 315.9 184.186 310.6 184.186 305.35V303.7ZM185.436 303.7H190.836V305.35C190.836 310.25 194.086 315.3 201.536 317.3L198.536 322.5C189.636 320.05 185.436 313.1 185.436 305.35V303.7ZM175.086 299.95H199.936V305.15H175.086V299.95ZM184.186 295H190.836V302.2H184.186V295ZM224.682 315.8H257.232V321.1H224.682V315.8ZM219.832 330.8H261.732V336.25H219.832V330.8ZM237.382 318.2H244.032V332.55H237.382V318.2ZM224.682 298.3H256.882V303.65H231.332V318.1H224.682V298.3Z" fill="#353434"/>
<path d="M92.5572 627.95H109.207V633.25H92.5572V627.95ZM70.2072 643.7H112.107V649.15H70.2072V643.7ZM87.7072 635.2H94.3072V646.15H87.7072V635.2ZM92.5572 611.9H108.957V617.25H99.2072V630.65H92.5572V611.9ZM73.3572 611.95H89.7072V617.25H80.0072V630.2H73.3572V611.95ZM73.3572 627.8H76.3072C81.6572 627.8 85.5072 627.65 90.0072 626.75L90.4572 632.2C85.8572 633.1 81.8572 633.25 76.3072 633.25H73.3572V627.8ZM157.326 608.1H164.026V654.55H157.326V608.1ZM162.526 625.25H170.726V630.7H162.526V625.25ZM129.526 637.9H133.426C141.226 637.9 147.376 637.65 154.176 636.45L154.826 641.95C147.826 643.2 141.476 643.4 133.426 643.4H129.526V637.9ZM129.526 612.4H151.126V617.75H136.126V640.55H129.526V612.4ZM173.722 633.15H215.672V638.45H173.722V633.15ZM178.972 648.35H211.622V653.65H178.972V648.35ZM178.972 641H185.622V650.65H178.972V641ZM178.872 609.2H210.572V622.05H185.522V626.85H178.922V617.35H204.022V614.25H178.872V609.2ZM178.922 625.3H211.472V630.3H178.922V625.3ZM264.44 608.15H270.74V637.15H264.44V608.15ZM258.79 619.55H266.19V624.95H258.79V619.55ZM254.84 609.05H261.04V635.65H254.84V609.05ZM231.09 612.9H253.54V618H231.09V612.9ZM242.39 619.5C248.19 619.5 252.39 622.8 252.39 627.6C252.39 632.4 248.19 635.65 242.39 635.65C236.59 635.65 232.39 632.4 232.39 627.6C232.39 622.8 236.59 619.5 242.39 619.5ZM242.39 624.25C239.94 624.25 238.29 625.45 238.29 627.6C238.29 629.75 239.94 630.95 242.39 630.95C244.79 630.95 246.44 629.75 246.44 627.6C246.44 625.45 244.79 624.25 242.39 624.25ZM239.04 608.6H245.59V616.4H239.04V608.6ZM255.09 637.65C264.99 637.65 270.99 640.65 270.99 646.05C270.99 651.4 264.99 654.45 255.09 654.45C245.14 654.45 239.14 651.4 239.14 646.05C239.14 640.65 245.14 637.65 255.09 637.65ZM255.09 642.6C248.89 642.6 245.79 643.65 245.79 646.05C245.79 648.4 248.89 649.5 255.09 649.5C261.24 649.5 264.34 648.4 264.34 646.05C264.34 643.65 261.24 642.6 255.09 642.6ZM287.686 611.7H293.086V618.45C293.086 629.9 289.086 640.65 280.336 644.95L276.336 639.6C284.136 635.95 287.686 627.05 287.686 618.45V611.7ZM289.036 611.7H294.336V618.45C294.336 626.75 297.636 635.2 305.036 638.8L301.036 644.1C292.686 639.85 289.036 629.55 289.036 618.45V611.7ZM306.886 608.15H313.586V654.45H306.886V608.15ZM312.086 625.95H320.286V631.5H312.086V625.95ZM332.682 623.65H339.332V632.15H332.682V623.65ZM348.982 623.65H355.582V632.15H348.982V623.65ZM323.282 630.1H365.132V635.35H323.282V630.1ZM344.132 637.7C354.132 637.7 360.182 640.7 360.182 646.05C360.182 651.45 354.132 654.45 344.132 654.45C334.082 654.45 328.032 651.45 328.032 646.05C328.032 640.7 334.082 637.7 344.132 637.7ZM344.132 642.7C337.932 642.7 334.782 643.75 334.782 646.05C334.782 648.4 337.932 649.45 344.132 649.45C350.332 649.45 353.482 648.4 353.482 646.05C353.482 643.75 350.332 642.7 344.132 642.7ZM344.232 608.8C354.432 608.8 360.982 612.2 360.982 617.75C360.982 623.25 354.432 626.55 344.232 626.55C333.982 626.55 327.482 623.25 327.482 617.75C327.482 612.2 333.982 608.8 344.232 608.8ZM344.232 613.9C337.882 613.9 334.332 615.15 334.332 617.75C334.332 620.3 337.882 621.55 344.232 621.55C350.582 621.55 354.132 620.3 354.132 617.75C354.132 615.15 350.582 613.9 344.232 613.9ZM384.501 609.85H419.001V615.1H384.501V609.85ZM384.851 622.95H418.651V628.15H384.851V622.95ZM390.401 611.9H397.051V625.65H390.401V611.9ZM406.451 611.9H413.101V625.65H406.451V611.9ZM380.851 632.35H422.701V637.6H380.851V632.35ZM398.401 626.45H405.051V635.45H398.401V626.45ZM385.901 648.35H418.001V653.65H385.901V648.35ZM385.901 640.55H392.551V650.25H385.901V640.55ZM431.797 632H464.347V637.2H431.797V632ZM426.897 643.75H468.797V649.15H426.897V643.75ZM431.797 611.5H463.947V616.85H438.547V633.45H431.797V611.5ZM436.497 621.7H462.897V626.85H436.497V621.7Z" fill="#353434"/>
<rect x="309" y="703" width="249" height="81" rx="17" fill="#EFEFEF" fill-opacity="0.8"/>
<rect x="572" y="703" width="249" height="81" rx="17" fill="#EFEFEF" fill-opacity="0.8"/>
<rect x="46" y="703" width="249" height="81" rx="17" fill="#EFEFEF" fill-opacity="0.8"/>
<path d="M87.625 754.85C86.775 754.85 86.2 754.275 86.2 753.325C86.2 752.525 86.75 749.3 86.75 745.25C86.75 739.925 86.35 737.925 86.35 736.8C86.35 735.775 86.875 735.375 87.6 735.375C88.7 735.375 91.75 735.85 93.35 735.925C98.95 736.2 102.325 739.375 102.325 747.15C102.325 751.85 100.2 754.525 93.95 754.525C92.275 754.525 90.875 754.35 89.7 753.925C89.075 754.55 88.425 754.85 87.625 754.85ZM92.05 749.775L93.825 749.85C96.025 749.925 96.8 748.4 96.8 745.375C96.8 742.35 95.6 740.475 93.35 740.475C92.95 740.45 92.575 740.45 92.25 740.45C92.4 741.975 92.5 743.5 92.5 744.8C92.5 746.9 92.35 748.5 92.05 749.775ZM109.805 754.525C106.405 754.525 104.255 752.525 104.255 747.95C104.255 742.5 107.33 739.425 111.68 739.425C113.255 739.425 114.33 740.1 114.705 740.75C114.905 739.775 115.13 739.4 116.78 739.4C117.405 739.4 117.98 739.475 118.33 739.525C119.655 739.7 119.755 740.2 119.755 741.75C119.755 743.55 119.63 747.65 119.53 749.75C119.555 750.1 119.73 750.225 120.055 750.225C120.33 750.225 120.83 749.975 121.155 749.65C120.93 752.075 118.505 754.375 116.08 754.375C114.855 754.375 114.13 754.05 113.68 753.35C112.73 754.075 111.43 754.525 109.805 754.525ZM109.305 746.625C109.305 748.975 110.78 750.325 112.03 750.325C112.38 750.325 113.13 750.3 113.33 750.175C113.48 749.15 113.705 746.075 113.705 745.8C113.705 744.025 112.855 743.175 111.58 743.175C110.505 743.175 109.305 744.55 109.305 746.625ZM125.501 754.85C123.576 754.85 122.601 753.975 122.601 751.85C122.601 751.075 123.126 749.3 123.151 745.25C123.151 744.225 123.101 742.575 123.101 741.425C123.101 740.425 123.551 740 124.376 740C125.176 740 126.451 740.175 126.926 740.25C127.976 740.4 128.301 740.675 128.476 741.8C128.626 742.75 128.976 748.15 128.976 749.625C128.976 750.25 129.176 750.45 129.576 750.45C129.851 750.45 130.326 750.225 130.626 749.9C130.626 751.525 128.626 754.85 125.501 754.85ZM122.201 736.125C122.201 734.275 123.701 733.275 126.051 733.275C128.501 733.275 129.501 734.175 129.501 735.75C129.501 737.625 128.176 738.325 125.826 738.325C123.476 738.325 122.201 737.5 122.201 736.125ZM133.719 754.85C132.869 754.85 132.294 754.275 132.294 753.325C132.294 752.525 132.844 749.3 132.844 745.25C132.844 744.225 132.794 741.45 132.794 740.7C132.819 739.7 133.244 739.275 134.069 739.275C134.869 739.275 136.144 739.45 136.619 739.525C136.994 739.575 137.294 739.65 137.519 739.775C138.144 739.575 139.444 739.4 140.194 739.4C144.844 739.4 147.244 741.025 147.569 745.15C147.719 746.9 147.844 749.05 147.844 749.775C147.844 750.05 148.094 750.225 148.394 750.225C148.694 750.225 149.169 749.975 149.444 749.65C149.444 751.275 147.444 754.6 144.319 754.6C142.394 754.6 141.419 753.725 141.419 751.6C141.419 750.825 141.994 749.4 141.994 745.325C141.994 743.675 141.069 743.025 140.219 743.025C138.919 743.025 138.419 743.7 138.419 746.05C138.419 748.125 138.619 750.375 138.619 751C138.619 752.675 138.394 753.725 137.519 754.2C136.919 754.525 134.294 754.85 133.719 754.85ZM163.49 756.4C162.365 756.4 159.94 756.15 158.565 755.95C156.915 755.7 156.34 755.1 156.34 753.75C156.34 752.7 156.94 749.825 156.94 744.375C156.94 738.4 156.34 736.425 156.34 735.275C156.34 734.075 157.19 733.675 158.315 733.675C160.915 733.675 161.515 734.425 161.665 736.725C161.69 737.125 161.74 738.825 161.765 740.65C162.99 740.725 164.215 740.725 165.415 740.65C165.415 739.2 165.365 737.8 165.315 737.1C165.115 734.75 165.39 734.075 167.34 734.075C169.29 734.075 169.915 734.25 170.19 735.975C170.39 737.3 170.54 738.9 170.64 740.55C170.765 740.525 170.89 740.525 171.015 740.525L173.315 740.575C173.215 738.95 173.065 737.325 172.865 736C172.665 734.525 172.915 734.05 173.99 733.85C174.94 733.7 176.14 733.575 176.59 733.575C177.74 733.575 178.39 734.1 178.615 735.45C179.015 738.05 179.215 741.7 179.215 744.375C179.215 748.925 177.74 752.175 175.14 754.175C173.04 755.775 170.515 754.725 171.515 752.9C172.54 751.1 173.365 748.1 173.465 745.45C172.59 745.45 171.79 745.4 171.315 745.375C171.115 745.35 170.94 745.35 170.79 745.3C170.715 752.075 167.465 756.4 163.49 756.4ZM161.665 750.275C161.665 751.075 161.815 751.425 162.215 751.575C162.565 751.7 163.24 751.8 163.69 751.85C164.815 750.925 165.44 748.65 165.465 745.275C164.24 745.375 163.04 745.375 161.815 745.3C161.79 747.4 161.665 749.7 161.665 750.275ZM190.665 740.75C188.69 740.75 187.115 740.675 185.665 740.4C182.59 739.85 182.14 739.4 182.14 738.2C182.14 737.6 181.815 736.2 181.815 735.15C181.815 733.95 182.665 733.55 183.815 733.55C187.565 733.55 188.39 734.125 188.39 735.075C188.39 735.55 188.265 736.075 188.265 736.5C188.265 737.125 188.515 737.375 189.765 737.375C189.965 737.375 190.215 737.375 190.465 737.35C192.74 734.75 195.64 733 199.29 733C202.59 733 203.74 734.2 203.74 736.475C203.74 737.85 202.765 739.225 200.315 739.75C197.565 740.325 193.765 740.75 190.665 740.75ZM180.59 753.3C180.59 751.35 182.515 750.175 187.765 750.175C190.715 750.175 192.615 750.75 194.165 751.375C196.39 750.475 198.215 749.55 198.215 749.25C198.215 749.1 198.09 749.025 197.765 749.025C197.315 749.025 195.165 749.375 192.665 749.375C191.24 749.375 188.565 749.325 187.415 749.25C182.215 748.925 181.84 748.6 181.715 747.9C181.665 747.625 181.69 747.15 181.79 746.875C182.04 746.225 182.54 746.025 183.815 746.05C184.915 746.075 186.44 746.5 192.59 746.5C196.89 746.5 201.265 746 202.265 746C203.19 746 204.115 746.2 204.115 748.075C204.115 749.55 201.99 751.375 198.99 752.95C199.165 752.975 199.34 752.975 199.515 752.975C200.79 752.975 202.465 752.425 203.565 751.875C203.64 751.85 203.665 751.925 203.665 751.975C203.665 755 202.49 756.275 199.015 756.275C196.865 756.275 195.19 755.775 193.765 755.125C191.19 755.95 188.49 756.475 186.115 756.475C182.165 756.475 180.59 755.5 180.59 753.3ZM181.465 742.925C181.465 741.4 181.965 740.95 183.24 741.35C185.415 742.025 188.115 742.325 190.49 742.325C193.59 742.325 197.865 741.85 202.365 740.875C203.99 740.525 204.465 740.725 204.465 742.875C204.465 743.725 204.09 744.05 203.14 744.225C199.465 744.925 196.115 745.25 191.69 745.25C189.09 745.25 185.615 745.125 183.34 744.85C181.915 744.675 181.465 744.225 181.465 742.925ZM184.54 752.675C184.54 753.025 185.24 753.475 186.915 753.475C187.615 753.475 188.715 753.25 189.965 752.875C188.915 752.225 187.965 751.75 186.89 751.75C185.015 751.75 184.54 752.2 184.54 752.675ZM192.165 737.3C192.99 737.25 193.865 737.175 194.74 737.075C198.24 736.75 199.165 736.175 199.165 735.4C199.165 734.975 198.865 734.725 198.215 734.725C196.59 734.725 194.29 735.4 192.165 737.3ZM213.49 756.4C212.365 756.4 209.94 756.15 208.565 755.95C206.915 755.7 206.34 755.1 206.34 753.75C206.34 752.7 206.94 749.825 206.94 744.375C206.94 738.4 206.34 736.425 206.34 735.275C206.34 734.075 207.19 733.675 208.315 733.675C210.915 733.675 211.515 734.425 211.665 736.725C211.69 737.125 211.74 738.825 211.765 740.65C212.99 740.725 214.215 740.725 215.415 740.65C215.415 739.2 215.365 737.8 215.315 737.1C215.115 734.75 215.39 734.075 217.34 734.075C219.29 734.075 219.915 734.25 220.19 735.975C220.39 737.3 220.54 738.9 220.64 740.55C220.765 740.525 220.89 740.525 221.015 740.525L223.315 740.575C223.215 738.95 223.065 737.325 222.865 736C222.665 734.525 222.915 734.05 223.99 733.85C224.94 733.7 226.14 733.575 226.59 733.575C227.74 733.575 228.39 734.1 228.615 735.45C229.015 738.05 229.215 741.7 229.215 744.375C229.215 748.925 227.74 752.175 225.14 754.175C223.04 755.775 220.515 754.725 221.515 752.9C222.54 751.1 223.365 748.1 223.465 745.45C222.59 745.45 221.79 745.4 221.315 745.375C221.115 745.35 220.94 745.35 220.79 745.3C220.715 752.075 217.465 756.4 213.49 756.4ZM211.665 750.275C211.665 751.075 211.815 751.425 212.215 751.575C212.565 751.7 213.24 751.8 213.69 751.85C214.815 750.925 215.44 748.65 215.465 745.275C214.24 745.375 213.04 745.375 211.815 745.3C211.79 747.4 211.665 749.7 211.665 750.275ZM240.665 740.75C238.69 740.75 237.115 740.675 235.665 740.4C232.59 739.85 232.14 739.4 232.14 738.2C232.14 737.6 231.815 736.2 231.815 735.15C231.815 733.95 232.665 733.55 233.815 733.55C237.565 733.55 238.39 734.125 238.39 735.075C238.39 735.55 238.265 736.075 238.265 736.5C238.265 737.125 238.515 737.375 239.765 737.375C239.965 737.375 240.215 737.375 240.465 737.35C242.74 734.75 245.64 733 249.29 733C252.59 733 253.74 734.2 253.74 736.475C253.74 737.85 252.765 739.225 250.315 739.75C247.565 740.325 243.765 740.75 240.665 740.75ZM230.59 753.3C230.59 751.35 232.515 750.175 237.765 750.175C240.715 750.175 242.615 750.75 244.165 751.375C246.39 750.475 248.215 749.55 248.215 749.25C248.215 749.1 248.09 749.025 247.765 749.025C247.315 749.025 245.165 749.375 242.665 749.375C241.24 749.375 238.565 749.325 237.415 749.25C232.215 748.925 231.84 748.6 231.715 747.9C231.665 747.625 231.69 747.15 231.79 746.875C232.04 746.225 232.54 746.025 233.815 746.05C234.915 746.075 236.44 746.5 242.59 746.5C246.89 746.5 251.265 746 252.265 746C253.19 746 254.115 746.2 254.115 748.075C254.115 749.55 251.99 751.375 248.99 752.95C249.165 752.975 249.34 752.975 249.515 752.975C250.79 752.975 252.465 752.425 253.565 751.875C253.64 751.85 253.665 751.925 253.665 751.975C253.665 755 252.49 756.275 249.015 756.275C246.865 756.275 245.19 755.775 243.765 755.125C241.19 755.95 238.49 756.475 236.115 756.475C232.165 756.475 230.59 755.5 230.59 753.3ZM231.465 742.925C231.465 741.4 231.965 740.95 233.24 741.35C235.415 742.025 238.115 742.325 240.49 742.325C243.59 742.325 247.865 741.85 252.365 740.875C253.99 740.525 254.465 740.725 254.465 742.875C254.465 743.725 254.09 744.05 253.14 744.225C249.465 744.925 246.115 745.25 241.69 745.25C239.09 745.25 235.615 745.125 233.34 744.85C231.915 744.675 231.465 744.225 231.465 742.925ZM234.54 752.675C234.54 753.025 235.24 753.475 236.915 753.475C237.615 753.475 238.715 753.25 239.965 752.875C238.915 752.225 237.965 751.75 236.89 751.75C235.015 751.75 234.54 752.2 234.54 752.675ZM242.165 737.3C242.99 737.25 243.865 737.175 244.74 737.075C248.24 736.75 249.165 736.175 249.165 735.4C249.165 734.975 248.865 734.725 248.215 734.725C246.59 734.725 244.29 735.4 242.165 737.3Z" fill="#2E2E2E"/>
<path d="M394.375 730.925V754.15H388.875V730.925H394.375ZM376.575 731.05H382.15L380.1 742.95L388 747.85V754.025L379.15 748.525L378.2 754.025H372.625L376.575 731.05ZM407.875 737.625V730.925H413.125V754.15H407.875V751.075L397.625 754.025V731.05H403.125V747.5L407.875 746.25V742.5H404.125V737.625H407.875ZM414.125 730.925H419.375V754.15H414.125V730.925ZM437.125 731.05V754.025H422.625V731.05H437.125ZM431.75 749.15V735.925H428V749.15H431.75ZM438.875 730.925H444.375V739.55H446.5V744.425H444.375V754.15H438.875V730.925ZM447.625 745.325L451.825 731.05H457.45L455.775 736.725L463 739.75V745.075L454.425 741.325L453.25 745.325H447.625ZM448.3 746.075H453.8V749.65H469.375V754.15H448.3V746.075ZM463.875 730.925H469.375V736.625H471.5V741.125H469.375V747.55H463.875V730.925ZM495 754.025H472V749.15H495V754.025ZM478.4 731.05H488.6L494.725 746.9H488.825L484.575 735.925H482.425L478.175 746.9H472.275L478.4 731.05Z" fill="#2E2E2E"/>
<path d="M657 732.3V742.825L657.7 744.2H645.725L646.425 742.825V739.425H645.275C644.958 740.825 644.3 741.925 643.3 742.725C642.317 743.508 641.058 743.9 639.525 743.9C637.642 743.9 636.175 743.317 635.125 742.15C634.075 740.967 633.55 739.367 633.55 737.35C633.55 735.333 634.075 733.742 635.125 732.575C636.175 731.392 637.642 730.8 639.525 730.8C641.042 730.8 642.292 731.183 643.275 731.95C644.258 732.717 644.917 733.792 645.25 735.175H646.425V732.3L645.725 730.925H657.7L657 732.3ZM635.275 744.125L636.65 744.825H655.8L657.575 746.1L657 747.05V752.775L657.7 754.15H650.8L651.5 752.775V749.2H636.65L635.275 749.9V744.125ZM638.175 737.35C638.175 738.067 638.292 738.633 638.525 739.05C638.775 739.45 639.108 739.65 639.525 739.65C639.942 739.65 640.267 739.45 640.5 739.05C640.75 738.633 640.875 738.067 640.875 737.35C640.875 736.633 640.75 736.075 640.5 735.675C640.267 735.258 639.942 735.05 639.525 735.05C639.108 735.05 638.775 735.258 638.525 735.675C638.292 736.075 638.175 736.633 638.175 737.35ZM651.725 743.875L652.25 742.825V732.3L651.725 731.25L651.175 732.3V742.825L651.725 743.875ZM680.625 753.4H660.375L659 754.1V748.075L660.375 748.775H680.625L682 748.075V754.1L680.625 753.4ZM660.15 742.525C661.8 741.525 663.242 740.375 664.475 739.075C665.708 737.775 666.8 736.308 667.75 734.675V732.675L667.05 731.3H673.95L673.25 732.675V734.675C674.2 736.308 675.292 737.775 676.525 739.075C677.758 740.375 679.2 741.525 680.85 742.525L682.225 742.775L678.35 747.6L677.7 746.225C676.05 745.158 674.583 744 673.3 742.75C672.033 741.5 671.1 740.325 670.5 739.225C669.9 740.325 668.958 741.5 667.675 742.75C666.408 744 664.95 745.158 663.3 746.225L662.65 747.6L658.775 742.775L660.15 742.525ZM705.65 732.3V734.225H706.875L708.25 733.525V739.175L706.875 738.475H705.65V740.55L706.35 741.925H699.45L700.15 740.55V732.3L699.45 730.925H706.35L705.65 732.3ZM684.15 736.225L685.525 736.85L692.5 736.45V735.3H685.525L684.15 736V730.6L685.525 731.3H693.075L693.95 730.5L698.575 732.825L698 733.775V741.925H692.5V740.225L685.5 740.8L684.15 741.575V736.225ZM684.925 752.05V748.95L684.35 748L686.125 746.725H700.15V745.925H686.025L684.925 746.425V742.05L686.025 742.55H704.45L706.225 743.825L705.65 744.775V747.75L706.225 748.7L704.45 749.975H690.425V750.775H704.275L705.65 750.075V754.85L704.275 754.15H689.85L688.975 754.95L684.35 753L684.925 752.05ZM731.625 732.3V752.775L732.325 754.15H725.425L726.125 752.775V732.3L725.425 730.925H732.325L731.625 732.3ZM709.375 750.925V742.275L708.8 741.325L713.425 739L714.3 739.8H718.15V735.925H710.75L709.375 736.625V730.6L710.75 731.3H718.725L719.6 730.5L724.225 732.825L723.65 733.775V741.95L724.225 742.9L719.6 745.225L718.725 744.425H714.875V748.775H722.275L723.65 748.075V754.1L722.275 753.4H714.3L713.425 754.2L708.8 751.875L709.375 750.925ZM756.625 732.3V752.775L757.325 754.15H750.425L751.125 752.775V744.05H747.9V750.925L748.475 751.875L743.85 754.2L742.975 753.4H739.3L738.425 754.2L733.8 751.875L734.375 750.925V732.675L733.675 731.3H740.325L739.625 732.675V738.6H742.65V732.675L741.95 731.3H748.6L747.9 732.675V739.425H751.125V732.3L750.425 730.925H757.325L756.625 732.3ZM742.65 748.9V743.1H739.625V748.9H742.65Z" fill="#2E2E2E"/>
<path d="M71.4545 676.909L71.5455 674.409L69.4318 675.75L68.8864 674.795L71.1136 673.636L68.8864 672.477L69.4318 671.523L71.5455 672.864L71.4545 670.364H72.5455L72.4545 672.864L74.5682 671.523L75.1136 672.477L72.8864 673.636L75.1136 674.795L74.5682 675.75L72.4545 674.409L72.5455 676.909H71.4545ZM84.852 669.664H85.94V671.44C85.94 674.272 84.372 676.528 81.94 677.472L81.236 676.416C83.444 675.632 84.852 673.68 84.852 671.44V669.664ZM85.076 669.664H86.164V671.488C86.164 673.456 87.604 675.312 89.716 676.064L89.06 677.104C86.676 676.24 85.076 674.032 85.076 671.488V669.664ZM91.188 668.768H92.516V679.456H91.188V668.768ZM92.1 673.216H94.66V674.32H92.1V673.216ZM83.54 681.84H93.156V682.928H83.54V681.84ZM83.54 678.448H84.868V682.368H83.54V678.448ZM101.891 673.152H103.203V675.744H101.891V673.152ZM97.7468 672.624H107.539V673.696H97.7468V672.624ZM97.7468 669.344H107.379V670.416H99.0588V673.2H97.7468V669.344ZM96.0028 675.056H109.075V676.128H96.0028V675.056ZM97.5868 677.344H107.411V680.608H98.9308V682.352H97.6188V679.632H106.099V678.368H97.5868V677.344ZM97.6188 682.048H107.843V683.088H97.6188V682.048ZM112.37 669.728H121.41V670.8H112.37V669.728ZM110.738 675.936H123.81V677.024H110.738V675.936ZM116.578 676.656H117.906V683.264H116.578V676.656ZM120.786 669.728H122.082V670.976C122.082 672.48 122.082 674.176 121.538 676.624L120.226 676.448C120.786 674.112 120.786 672.432 120.786 670.976V669.728ZM125.44 676.24H138.56V677.328H125.44V676.24ZM127.104 669.136H136.864V672.56H128.448V674.48H127.136V671.584H135.568V670.176H127.104V669.136ZM127.136 673.968H137.184V675.008H127.136V673.968ZM127.2 678.64H136.88V683.056H127.2V678.64ZM135.584 679.696H128.496V681.984H135.584V679.696ZM155.587 668.784H156.851V679.664H155.587V668.784ZM153.283 673.248H156.019V674.352H153.283V673.248ZM152.435 669.056H153.683V679.184H152.435V669.056ZM147.379 681.84H157.315V682.928H147.379V681.84ZM147.379 678.352H148.707V682.448H147.379V678.352ZM149.779 670.016H151.075C151.075 673.552 149.475 676.352 145.459 678.08L144.803 677.104C148.371 675.616 149.779 673.296 149.779 670.384V670.016ZM145.459 670.016H150.243V671.104H145.459V670.016ZM149.651 672.72V673.648L144.995 674.144L144.787 673.04L149.651 672.72ZM160.298 677.091C160.298 675.659 160.484 674.343 160.855 673.142C161.23 671.937 161.764 670.83 162.457 669.818H163.639C163.366 670.193 163.111 670.655 162.872 671.205C162.637 671.75 162.431 672.35 162.253 673.006C162.075 673.657 161.935 674.331 161.832 675.028C161.734 675.725 161.685 676.413 161.685 677.091C161.685 677.992 161.772 678.907 161.946 679.835C162.12 680.763 162.355 681.625 162.651 682.42C162.946 683.216 163.276 683.864 163.639 684.364H162.457C161.764 683.352 161.23 682.246 160.855 681.045C160.484 679.841 160.298 678.523 160.298 677.091ZM175.163 674H173.754C173.671 673.595 173.525 673.239 173.317 672.932C173.112 672.625 172.862 672.367 172.567 672.159C172.275 671.947 171.951 671.788 171.595 671.682C171.239 671.576 170.868 671.523 170.482 671.523C169.777 671.523 169.139 671.701 168.567 672.057C167.999 672.413 167.546 672.938 167.209 673.631C166.875 674.324 166.709 675.174 166.709 676.182C166.709 677.189 166.875 678.04 167.209 678.733C167.546 679.426 167.999 679.951 168.567 680.307C169.139 680.663 169.777 680.841 170.482 680.841C170.868 680.841 171.239 680.788 171.595 680.682C171.951 680.576 172.275 680.419 172.567 680.21C172.862 679.998 173.112 679.739 173.317 679.432C173.525 679.121 173.671 678.765 173.754 678.364H175.163C175.057 678.958 174.864 679.491 174.584 679.96C174.304 680.43 173.955 680.83 173.538 681.159C173.122 681.485 172.654 681.733 172.135 681.903C171.62 682.074 171.069 682.159 170.482 682.159C169.489 682.159 168.607 681.917 167.834 681.432C167.061 680.947 166.453 680.258 166.01 679.364C165.567 678.47 165.345 677.409 165.345 676.182C165.345 674.955 165.567 673.894 166.01 673C166.453 672.106 167.061 671.417 167.834 670.932C168.607 670.447 169.489 670.205 170.482 670.205C171.069 670.205 171.62 670.29 172.135 670.46C172.654 670.631 173.122 670.881 173.538 671.21C173.955 671.536 174.304 671.934 174.584 672.403C174.864 672.869 175.057 673.402 175.163 674ZM179.827 682.205C179.274 682.205 178.772 682.1 178.321 681.892C177.87 681.68 177.512 681.375 177.247 680.977C176.982 680.576 176.849 680.091 176.849 679.523C176.849 679.023 176.948 678.617 177.145 678.307C177.342 677.992 177.605 677.746 177.935 677.568C178.264 677.39 178.628 677.258 179.026 677.17C179.427 677.08 179.83 677.008 180.236 676.955C180.766 676.886 181.196 676.835 181.526 676.801C181.859 676.763 182.101 676.701 182.253 676.614C182.408 676.527 182.486 676.375 182.486 676.159V676.114C182.486 675.553 182.332 675.117 182.026 674.807C181.723 674.496 181.262 674.341 180.645 674.341C180.005 674.341 179.503 674.481 179.139 674.761C178.776 675.042 178.52 675.341 178.372 675.659L177.099 675.205C177.327 674.674 177.63 674.261 178.009 673.966C178.391 673.667 178.808 673.458 179.259 673.341C179.713 673.22 180.16 673.159 180.599 673.159C180.88 673.159 181.202 673.193 181.565 673.261C181.933 673.326 182.287 673.46 182.628 673.665C182.973 673.869 183.259 674.178 183.486 674.591C183.713 675.004 183.827 675.557 183.827 676.25V682H182.486V680.818H182.418C182.327 681.008 182.175 681.21 181.963 681.426C181.751 681.642 181.469 681.826 181.116 681.977C180.764 682.129 180.334 682.205 179.827 682.205ZM180.031 681C180.562 681 181.009 680.896 181.372 680.688C181.74 680.479 182.016 680.21 182.202 679.881C182.391 679.551 182.486 679.205 182.486 678.841V677.614C182.429 677.682 182.304 677.744 182.111 677.801C181.921 677.854 181.702 677.902 181.452 677.943C181.205 677.981 180.965 678.015 180.73 678.045C180.499 678.072 180.312 678.095 180.168 678.114C179.819 678.159 179.493 678.233 179.19 678.335C178.891 678.434 178.649 678.583 178.463 678.784C178.281 678.981 178.19 679.25 178.19 679.591C178.19 680.057 178.363 680.409 178.707 680.648C179.056 680.883 179.497 681 180.031 681ZM187.615 676.75V682H186.274V673.273H187.57V674.636H187.683C187.888 674.193 188.198 673.837 188.615 673.568C189.032 673.295 189.57 673.159 190.229 673.159C190.82 673.159 191.337 673.28 191.78 673.523C192.223 673.761 192.568 674.125 192.814 674.614C193.06 675.098 193.183 675.712 193.183 676.455V682H191.842V676.545C191.842 675.86 191.664 675.326 191.308 674.943C190.952 674.557 190.464 674.364 189.842 674.364C189.414 674.364 189.032 674.456 188.695 674.642C188.361 674.828 188.098 675.098 187.905 675.455C187.712 675.811 187.615 676.242 187.615 676.75ZM198.497 677.091C198.497 678.523 198.31 679.841 197.935 681.045C197.563 682.246 197.031 683.352 196.338 684.364H195.156C195.429 683.989 195.683 683.527 195.918 682.977C196.156 682.432 196.365 681.833 196.543 681.182C196.721 680.527 196.859 679.85 196.957 679.153C197.06 678.453 197.111 677.765 197.111 677.091C197.111 676.189 197.024 675.275 196.849 674.347C196.675 673.419 196.44 672.557 196.145 671.761C195.849 670.966 195.52 670.318 195.156 669.818H196.338C197.031 670.83 197.563 671.937 197.935 673.142C198.31 674.343 198.497 675.659 198.497 677.091ZM201.323 670.304H209.307V671.392H201.323V670.304ZM201.035 679.696L200.875 678.56C203.435 678.56 206.891 678.512 209.755 678.176L209.851 679.168C206.923 679.616 203.547 679.696 201.035 679.696ZM202.779 671.152H204.075V678.848H202.779V671.152ZM206.395 671.152H207.691V678.848H206.395V671.152ZM211.595 668.784H212.907V683.248H211.595V668.784ZM208.827 674.224H212.491V675.328H208.827V674.224ZM221.514 669.776H222.666V670.88C222.666 674.032 219.738 676.48 216.842 677.136L216.25 676.032C218.794 675.552 221.514 673.344 221.514 670.88V669.776ZM221.754 669.776H222.906V670.88C222.906 673.36 225.642 675.552 228.17 676.032L227.578 677.136C224.698 676.48 221.754 674.048 221.754 670.88V669.776ZM215.722 680.208H228.826V681.296H215.722V680.208ZM240.045 669.76H241.341C241.341 673.264 239.693 675.968 235.725 677.6L235.085 676.624C238.605 675.232 240.045 672.976 240.045 670.144V669.76ZM235.725 669.76H240.509V670.832H235.725V669.76ZM239.917 672.384V673.312L235.261 673.808L235.053 672.704L239.917 672.384ZM245.853 668.784H247.117V677.312H245.853V668.784ZM243.565 672.448H246.301V673.552H243.565V672.448ZM242.701 669.056H243.949V677.2H242.701V669.056ZM237.629 678H247.117V683.056H237.629V678ZM245.821 679.056H238.941V681.984H245.821V679.056ZM260.731 668.784H262.011V683.248H260.731V668.784ZM255.963 674.288H258.363V675.456H255.963V674.288ZM257.931 669.136H259.195V682.496H257.931V669.136ZM249.787 670.608H256.395V671.696H249.787V670.608ZM249.659 679.696L249.499 678.576C251.371 678.576 254.507 678.512 256.699 678.224L256.795 679.2C254.539 679.632 251.515 679.696 249.659 679.696ZM250.971 671.312H252.187V678.88H250.971V671.312ZM253.979 671.312H255.195V678.88H253.979V671.312ZM274.89 668.8H276.234V679.36H274.89V668.8ZM266.938 681.84H276.666V682.928H266.938V681.84ZM266.938 678.272H268.25V682.208H266.938V678.272ZM268.474 669.792C270.634 669.792 272.234 671.264 272.234 673.36C272.234 675.44 270.634 676.928 268.474 676.928C266.314 676.928 264.698 675.44 264.698 673.36C264.698 671.264 266.314 669.792 268.474 669.792ZM268.474 670.944C267.066 670.944 265.994 671.936 265.994 673.36C265.994 674.768 267.066 675.76 268.474 675.76C269.882 675.76 270.954 674.768 270.954 673.36C270.954 671.936 269.882 670.944 268.474 670.944ZM294.669 668.784H295.949V683.248H294.669V668.784ZM289.901 674.288H292.301V675.456H289.901V674.288ZM291.869 669.136H293.133V682.496H291.869V669.136ZM283.725 670.608H290.333V671.696H283.725V670.608ZM283.597 679.696L283.437 678.576C285.309 678.576 288.445 678.512 290.637 678.224L290.733 679.2C288.477 679.632 285.453 679.696 283.597 679.696ZM284.909 671.312H286.125V678.88H284.909V671.312ZM287.917 671.312H289.133V678.88H287.917V671.312ZM308.812 668.768H310.14V683.264H308.812V668.768ZM302.508 669.888C304.652 669.888 306.188 671.856 306.188 674.928C306.188 678.016 304.652 679.984 302.508 679.984C300.38 679.984 298.844 678.016 298.844 674.928C298.844 671.856 300.38 669.888 302.508 669.888ZM302.508 671.088C301.1 671.088 300.108 672.592 300.108 674.928C300.108 677.28 301.1 678.816 302.508 678.816C303.932 678.816 304.908 677.28 304.908 674.928C304.908 672.592 303.932 671.088 302.508 671.088ZM316.858 670.848H317.93V673.2C317.93 676.256 316.09 679.328 313.786 680.464L313.018 679.408C315.114 678.416 316.858 675.696 316.858 673.2V670.848ZM317.114 670.848H318.186V673.2C318.186 675.648 319.93 678.144 322.058 679.056L321.306 680.112C318.97 679.024 317.114 676.208 317.114 673.2V670.848ZM313.498 670.256H321.578V671.376H313.498V670.256ZM323.53 668.784H324.858V683.248H323.53V668.784ZM333.609 674.4H336.345V675.504H333.609V674.4ZM338.761 668.784H340.041V683.248H338.761V668.784ZM335.897 669.088H337.161V682.528H335.897V669.088ZM331.001 669.984C332.873 669.984 334.089 671.92 334.089 675.024C334.089 678.128 332.873 680.064 331.001 680.064C329.129 680.064 327.929 678.128 327.929 675.024C327.929 671.92 329.129 669.984 331.001 669.984ZM331.001 671.216C329.865 671.216 329.145 672.688 329.145 675.024C329.145 677.36 329.865 678.832 331.001 678.832C332.153 678.832 332.873 677.36 332.873 675.024C332.873 672.688 332.153 671.216 331.001 671.216ZM349.688 673.68H353.72V674.768H349.688V673.68ZM346.2 670.032H347.288V672.608C347.288 675.856 345.576 678.96 343.288 680.192L342.44 679.136C344.568 678.08 346.2 675.296 346.2 672.608V670.032ZM346.456 670.032H347.528V672.608C347.528 675.248 349.16 677.872 351.256 678.864L350.472 679.936C348.136 678.752 346.456 675.776 346.456 672.608V670.032ZM353.064 668.768H354.376V683.264H353.064V668.768ZM361.675 677.184H374.795V678.272H361.675V677.184ZM367.531 677.84H368.843V683.248H367.531V677.84ZM363.339 669.584H373.099V675.232H363.339V669.584ZM371.803 670.656H364.651V674.16H371.803V670.656ZM380.057 677.264H381.369V680.816H380.057V677.264ZM384.681 677.232H385.977V680.8H384.681V677.232ZM376.409 680.368H389.513V681.472H376.409V680.368ZM377.993 669.856H387.897V674.224H379.353V677.136H378.041V673.168H386.585V670.928H377.993V669.856ZM378.041 676.544H388.233V677.632H378.041V676.544ZM405.404 668.768H406.748V683.264H405.404V668.768ZM406.428 674.48H409.116V675.6H406.428V674.48ZM396.236 678.544H397.372C400.044 678.544 401.916 678.448 404.076 678.048L404.22 679.168C401.996 679.584 400.092 679.664 397.372 679.664H396.236V678.544ZM396.236 670.176H402.956V671.264H397.548V679.04H396.236V670.176ZM410.331 676.112H423.451V677.2H410.331V676.112ZM416.315 676.8H417.659V680.128H416.315V676.8ZM411.995 681.824H421.995V682.928H411.995V681.824ZM411.995 678.704H413.323V682.128H411.995V678.704ZM416.875 669.136C419.931 669.136 421.947 670.256 421.947 672.048C421.947 673.84 419.931 674.96 416.875 674.96C413.803 674.96 411.803 673.84 411.803 672.048C411.803 670.256 413.803 669.136 416.875 669.136ZM416.875 670.224C414.667 670.224 413.211 670.928 413.211 672.048C413.211 673.184 414.667 673.872 416.875 673.872C419.083 673.872 420.539 673.184 420.539 672.048C420.539 670.928 419.083 670.224 416.875 670.224ZM425.066 680.368H438.17V681.472H425.066V680.368ZM430.922 677.264H432.25V680.832H430.922V677.264ZM426.65 669.856H436.554V674.24H428.01V677.136H426.698V673.168H435.242V670.928H426.65V669.856ZM426.698 676.576H436.89V677.664H426.698V676.576ZM441.432 675.712H451.368V676.8H441.432V675.712ZM439.784 680.192H452.888V681.296H439.784V680.192ZM441.432 670.112H451.224V671.216H442.76V676.192H441.432V670.112ZM468.779 668.768H470.123V683.248H468.779V668.768ZM469.755 674.64H472.427V675.744H469.755V674.64ZM465.083 670.336H466.379C466.379 674.448 464.491 678.16 459.819 680.512L459.083 679.488C463.083 677.456 465.083 674.368 465.083 670.544V670.336ZM459.755 670.336H465.771V671.424H459.755V670.336ZM475.498 672.8H485.306V673.888H475.498V672.8ZM475.498 669.072H476.81V673.28H475.498V669.072ZM473.722 675.568H486.794V676.64H473.722V675.568ZM480.234 677.936C483.322 677.936 485.194 678.88 485.194 680.576C485.194 682.24 483.322 683.2 480.234 683.2C477.146 683.2 475.274 682.24 475.274 680.576C475.274 678.88 477.146 677.936 480.234 677.936ZM480.234 678.976C477.978 678.976 476.618 679.552 476.618 680.576C476.618 681.568 477.978 682.144 480.234 682.144C482.506 682.144 483.85 681.568 483.85 680.576C483.85 679.552 482.506 678.976 480.234 678.976ZM490.641 670.364L490.527 678.727H489.209L489.095 670.364H490.641ZM489.868 682.091C489.588 682.091 489.347 681.991 489.146 681.79C488.946 681.589 488.845 681.348 488.845 681.068C488.845 680.788 488.946 680.547 489.146 680.347C489.347 680.146 489.588 680.045 489.868 680.045C490.148 680.045 490.389 680.146 490.589 680.347C490.79 680.547 490.891 680.788 490.891 681.068C490.891 681.254 490.843 681.424 490.749 681.58C490.658 681.735 490.535 681.86 490.379 681.955C490.228 682.045 490.057 682.091 489.868 682.091Z" fill="#570505"/>
<line x1="870" y1="388" x2="354" y2="388" stroke="#8E8D8D" stroke-width="4"/>
<line x1="870" y1="441" x2="354" y2="441" stroke="#8E8D8D" stroke-width="4"/>
<line x1="870" y1="546" x2="354" y2="546" stroke="#8E8D8D" stroke-width="4"/>
<line x1="870" y1="495" x2="354" y2="495" stroke="#8E8D8D" stroke-width="4"/>
<path d="M70.37 390.61H72.17C75.47 390.61 78.53 390.49 82.25 389.86L82.46 391.9C78.65 392.56 75.59 392.68 72.17 392.68H70.37V390.61ZM70.31 375.19H80V384.64H72.8V391.45H70.37V382.63H77.6V377.23H70.31V375.19ZM90.11 372.22H92.51V399.34H90.11V372.22ZM81.29 381.94H85.67V384.01H81.29V381.94ZM84.65 372.88H86.96V397.93H84.65V372.88ZM97.0977 393.91H121.668V395.98H97.0977V393.91ZM108.048 386.89H110.538V394.84H108.048V386.89ZM99.2277 374.8H119.358V376.84H99.2277V374.8ZM99.2877 385.72H119.328V387.73H99.2877V385.72ZM103.458 376.45H105.948V386.08H103.458V376.45ZM112.698 376.45H115.158V386.08H112.698V376.45ZM127.845 386.83H146.475V388.84H127.845V386.83ZM124.695 393.79H149.265V395.86H124.695V393.79ZM127.845 374.53H146.175V376.57H130.365V387.46H127.845V374.53ZM129.555 380.59H145.605V382.57H129.555V380.59ZM158.323 381.4H160.783V386.53H158.323V381.4ZM168.283 381.4H170.743V386.53H168.283V381.4ZM152.263 385.63H176.773V387.64H152.263V385.63ZM164.503 389.68C170.323 389.68 173.803 391.39 173.803 394.48C173.803 397.57 170.323 399.31 164.503 399.31C158.683 399.31 155.203 397.57 155.203 394.48C155.203 391.39 158.683 389.68 164.503 389.68ZM164.503 391.6C160.273 391.6 157.723 392.65 157.723 394.48C157.723 396.34 160.273 397.36 164.503 397.36C168.763 397.36 171.283 396.34 171.283 394.48C171.283 392.65 168.763 391.6 164.503 391.6ZM164.533 372.7C170.413 372.7 174.073 374.59 174.073 377.77C174.073 380.92 170.413 382.78 164.533 382.78C158.623 382.78 154.993 380.92 154.993 377.77C154.993 374.59 158.623 372.7 164.533 372.7ZM164.533 374.65C160.213 374.65 157.543 375.79 157.543 377.77C157.543 379.72 160.213 380.86 164.533 380.86C168.853 380.86 171.523 379.72 171.523 377.77C171.523 375.79 168.853 374.65 164.533 374.65Z" fill="#878686"/>
<path d="M81.83 429.12H90.11V431.16H81.83V429.12ZM81.83 435.36H90.11V437.43H81.83V435.36ZM76.88 426.81C80.87 426.81 83.87 429.51 83.87 433.26C83.87 437.04 80.87 439.71 76.88 439.71C72.86 439.71 69.89 437.04 69.89 433.26C69.89 429.51 72.86 426.81 76.88 426.81ZM76.88 428.94C74.24 428.94 72.29 430.71 72.29 433.26C72.29 435.81 74.24 437.58 76.88 437.58C79.52 437.58 81.5 435.81 81.5 433.26C81.5 430.71 79.52 428.94 76.88 428.94ZM89.3 425.22H91.79V441.27H89.3V425.22ZM82.88 441.9C88.46 441.9 91.91 443.82 91.91 447.09C91.91 450.39 88.46 452.28 82.88 452.28C77.27 452.28 73.82 450.39 73.82 447.09C73.82 443.82 77.27 441.9 82.88 441.9ZM82.88 443.88C78.77 443.88 76.28 445.08 76.28 447.09C76.28 449.13 78.77 450.33 82.88 450.33C86.96 450.33 89.45 449.13 89.45 447.09C89.45 445.08 86.96 443.88 82.88 443.88ZM103.668 426.63H105.738V429.39C105.738 434.61 102.798 438.93 98.2677 440.7L96.9477 438.69C101.028 437.19 103.668 433.53 103.668 429.39V426.63ZM104.118 426.63H106.158V429.57C106.158 433.23 108.858 436.62 112.758 437.97L111.438 439.92C107.088 438.3 104.118 434.28 104.118 429.57V426.63ZM115.638 425.22H118.128V441.66H115.638V425.22ZM117.438 432.21H122.148V434.31H117.438V432.21ZM109.488 442.41C115.038 442.41 118.398 444.24 118.398 447.36C118.398 450.48 115.038 452.28 109.488 452.28C103.938 452.28 100.578 450.48 100.578 447.36C100.578 444.24 103.938 442.41 109.488 442.41ZM109.488 444.39C105.468 444.39 103.008 445.47 103.008 447.36C103.008 449.25 105.468 450.33 109.488 450.33C113.508 450.33 115.968 449.25 115.968 447.36C115.968 445.47 113.508 444.39 109.488 444.39ZM130.725 434.4H133.185V439.53H130.725V434.4ZM140.685 434.4H143.145V439.53H140.685V434.4ZM124.665 438.63H149.175V440.64H124.665V438.63ZM136.905 442.68C142.725 442.68 146.205 444.39 146.205 447.48C146.205 450.57 142.725 452.31 136.905 452.31C131.085 452.31 127.605 450.57 127.605 447.48C127.605 444.39 131.085 442.68 136.905 442.68ZM136.905 444.6C132.675 444.6 130.125 445.65 130.125 447.48C130.125 449.34 132.675 450.36 136.905 450.36C141.165 450.36 143.685 449.34 143.685 447.48C143.685 445.65 141.165 444.6 136.905 444.6ZM136.935 425.7C142.815 425.7 146.475 427.59 146.475 430.77C146.475 433.92 142.815 435.78 136.935 435.78C131.025 435.78 127.395 433.92 127.395 430.77C127.395 427.59 131.025 425.7 136.935 425.7ZM136.935 427.65C132.615 427.65 129.945 428.79 129.945 430.77C129.945 432.72 132.615 433.86 136.935 433.86C141.255 433.86 143.925 432.72 143.925 430.77C143.925 428.79 141.255 427.65 136.935 427.65Z" fill="#878686"/>
<path d="M70.642 504V482.182H78.0142C79.7259 482.182 81.125 482.491 82.2116 483.109C83.3054 483.719 84.1151 484.547 84.6406 485.591C85.1662 486.635 85.429 487.8 85.429 489.085C85.429 490.371 85.1662 491.539 84.6406 492.59C84.1222 493.641 83.3196 494.479 82.233 495.104C81.1463 495.722 79.7543 496.031 78.0568 496.031H72.7727V493.688H77.9716C79.1435 493.688 80.0845 493.485 80.7947 493.08C81.505 492.675 82.0199 492.129 82.3395 491.44C82.6662 490.744 82.8295 489.959 82.8295 489.085C82.8295 488.212 82.6662 487.43 82.3395 486.741C82.0199 486.053 81.5014 485.513 80.7841 485.122C80.0668 484.724 79.1151 484.526 77.929 484.526H73.2841V504H70.642ZM89.685 504V482.182H97.0572C98.7688 482.182 100.168 482.491 101.255 483.109C102.348 483.719 103.158 484.547 103.684 485.591C104.209 486.635 104.472 487.8 104.472 489.085C104.472 490.371 104.209 491.539 103.684 492.59C103.165 493.641 102.363 494.479 101.276 495.104C100.189 495.722 98.7972 496.031 97.0998 496.031H91.8157V493.688H97.0146C98.1864 493.688 99.1275 493.485 99.8377 493.08C100.548 492.675 101.063 492.129 101.382 491.44C101.709 490.744 101.873 489.959 101.873 489.085C101.873 488.212 101.709 487.43 101.382 486.741C101.063 486.053 100.544 485.513 99.8271 485.122C99.1097 484.724 98.158 484.526 96.9719 484.526H92.3271V504H89.685ZM107.535 484.526V482.182H123.898V484.526H117.038V504H114.396V484.526H107.535ZM132.864 488.4H135.324V493.53H132.864V488.4ZM142.824 488.4H145.284V493.53H142.824V488.4ZM126.804 492.63H151.314V494.64H126.804V492.63ZM139.044 496.68C144.864 496.68 148.344 498.39 148.344 501.48C148.344 504.57 144.864 506.31 139.044 506.31C133.224 506.31 129.744 504.57 129.744 501.48C129.744 498.39 133.224 496.68 139.044 496.68ZM139.044 498.6C134.814 498.6 132.264 499.65 132.264 501.48C132.264 503.34 134.814 504.36 139.044 504.36C143.304 504.36 145.824 503.34 145.824 501.48C145.824 499.65 143.304 498.6 139.044 498.6ZM139.074 479.7C144.954 479.7 148.614 481.59 148.614 484.77C148.614 487.92 144.954 489.78 139.074 489.78C133.164 489.78 129.534 487.92 129.534 484.77C129.534 481.59 133.164 479.7 139.074 479.7ZM139.074 481.65C134.754 481.65 132.084 482.79 132.084 484.77C132.084 486.72 134.754 487.86 139.074 487.86C143.394 487.86 146.064 486.72 146.064 484.77C146.064 482.79 143.394 481.65 139.074 481.65Z" fill="#878686"/>
<path d="M782.057 507.044C782.743 507.049 783.429 507.18 784.115 507.436C784.801 507.692 785.427 508.117 785.994 508.71C786.56 509.298 787.015 510.101 787.358 511.12C787.701 512.138 787.872 513.415 787.872 514.95C787.872 516.437 787.731 517.757 787.447 518.912C787.17 520.06 786.767 521.03 786.239 521.819C785.716 522.609 785.079 523.208 784.327 523.616C783.581 524.025 782.737 524.229 781.795 524.229C780.859 524.229 780.023 524.044 779.288 523.673C778.558 523.298 777.959 522.778 777.491 522.113C777.028 521.444 776.732 520.668 776.601 519.786H778.594C778.773 520.553 779.13 521.188 779.664 521.689C780.203 522.184 780.913 522.432 781.795 522.432C783.086 522.432 784.104 521.868 784.85 520.741C785.602 519.614 785.977 518.021 785.977 515.963H785.847C785.542 516.42 785.18 516.815 784.76 517.147C784.341 517.48 783.875 517.735 783.364 517.915C782.852 518.095 782.307 518.185 781.73 518.185C780.772 518.185 779.892 517.948 779.092 517.474C778.297 516.995 777.66 516.339 777.181 515.506C776.707 514.667 776.47 513.709 776.47 512.631C776.47 511.607 776.699 510.67 777.156 509.821C777.619 508.966 778.267 508.286 779.1 507.779C779.939 507.273 780.924 507.028 782.057 507.044ZM782.057 508.841C781.371 508.841 780.753 509.012 780.203 509.355C779.658 509.693 779.225 510.15 778.904 510.728C778.588 511.299 778.43 511.934 778.43 512.631C778.43 513.328 778.583 513.962 778.888 514.534C779.198 515.1 779.62 515.552 780.154 515.89C780.693 516.222 781.305 516.388 781.991 516.388C782.509 516.388 782.991 516.287 783.437 516.086C783.884 515.879 784.273 515.598 784.605 515.244C784.943 514.885 785.207 514.479 785.397 514.027C785.588 513.57 785.683 513.094 785.683 512.598C785.683 511.945 785.525 511.332 785.21 510.76C784.899 510.189 784.469 509.726 783.919 509.372C783.375 509.018 782.754 508.841 782.057 508.841ZM791.158 524L798.639 509.2V509.07H790.014V507.273H800.73V509.168L793.281 524H791.158Z" fill="#8E8D8D"/>
<path d="M577.286 421.229C576.599 421.218 575.913 421.087 575.227 420.837C574.541 420.586 573.915 420.164 573.349 419.571C572.782 418.972 572.328 418.163 571.985 417.145C571.642 416.121 571.47 414.836 571.47 413.29C571.47 411.809 571.609 410.496 571.887 409.353C572.164 408.204 572.567 407.238 573.096 406.453C573.624 405.664 574.261 405.065 575.007 404.657C575.758 404.248 576.605 404.044 577.547 404.044C578.483 404.044 579.317 404.232 580.046 404.608C580.781 404.978 581.38 405.495 581.843 406.159C582.306 406.824 582.605 407.589 582.741 408.455H580.749C580.563 407.703 580.204 407.08 579.67 406.584C579.137 406.089 578.429 405.841 577.547 405.841C576.251 405.841 575.23 406.404 574.484 407.532C573.743 408.659 573.371 410.241 573.365 412.277H573.496C573.801 411.814 574.163 411.419 574.582 411.093C575.007 410.761 575.475 410.505 575.987 410.325C576.499 410.145 577.04 410.055 577.612 410.055C578.571 410.055 579.447 410.295 580.242 410.774C581.037 411.248 581.674 411.904 582.153 412.743C582.633 413.576 582.872 414.531 582.872 415.609C582.872 416.644 582.641 417.591 582.178 418.452C581.715 419.307 581.064 419.987 580.226 420.494C579.393 420.995 578.413 421.24 577.286 421.229ZM577.286 419.432C577.972 419.432 578.587 419.26 579.131 418.917C579.681 418.574 580.114 418.114 580.43 417.537C580.751 416.96 580.912 416.317 580.912 415.609C580.912 414.918 580.757 414.289 580.446 413.723C580.141 413.151 579.719 412.696 579.18 412.359C578.647 412.021 578.037 411.852 577.351 411.852C576.834 411.852 576.352 411.956 575.905 412.163C575.459 412.364 575.067 412.642 574.729 412.996C574.397 413.35 574.136 413.755 573.945 414.213C573.754 414.665 573.659 415.141 573.659 415.642C573.659 416.306 573.814 416.927 574.125 417.504C574.44 418.081 574.871 418.547 575.415 418.901C575.965 419.255 576.589 419.432 577.286 419.432ZM586.607 421L594.088 406.2V406.07H585.463V404.273H596.179V406.168L588.73 421H586.607Z" fill="#8E8D8D"/>
<path d="M674.089 474.229C672.968 474.229 671.977 474.03 671.116 473.632C670.262 473.23 669.595 472.677 669.115 471.974C668.636 471.267 668.399 470.461 668.405 469.557C668.399 468.849 668.538 468.196 668.821 467.597C669.105 466.992 669.491 466.489 669.981 466.086C670.477 465.677 671.029 465.419 671.639 465.31V465.212C670.839 465.005 670.202 464.556 669.728 463.864C669.254 463.167 669.02 462.375 669.026 461.487C669.02 460.638 669.235 459.878 669.671 459.208C670.106 458.539 670.705 458.011 671.468 457.624C672.235 457.237 673.109 457.044 674.089 457.044C675.059 457.044 675.924 457.237 676.687 457.624C677.449 458.011 678.048 458.539 678.484 459.208C678.925 459.878 679.148 460.638 679.153 461.487C679.148 462.375 678.906 463.167 678.426 463.864C677.953 464.556 677.324 465.005 676.54 465.212V465.31C677.144 465.419 677.689 465.677 678.173 466.086C678.658 466.489 679.045 466.992 679.333 467.597C679.622 468.196 679.769 468.849 679.774 469.557C679.769 470.461 679.524 471.267 679.039 471.974C678.56 472.677 677.893 473.23 677.038 473.632C676.189 474.03 675.206 474.229 674.089 474.229ZM674.089 472.432C674.846 472.432 675.5 472.309 676.05 472.064C676.6 471.819 677.024 471.473 677.324 471.027C677.623 470.58 677.776 470.058 677.781 469.459C677.776 468.827 677.612 468.269 677.291 467.784C676.97 467.3 676.532 466.919 675.976 466.641C675.426 466.363 674.797 466.224 674.089 466.224C673.376 466.224 672.739 466.363 672.178 466.641C671.623 466.919 671.185 467.3 670.863 467.784C670.547 468.269 670.392 468.827 670.398 469.459C670.392 470.058 670.537 470.58 670.831 471.027C671.13 471.473 671.558 471.819 672.113 472.064C672.668 472.309 673.327 472.432 674.089 472.432ZM674.089 464.493C674.688 464.493 675.219 464.373 675.682 464.134C676.15 463.894 676.518 463.559 676.785 463.129C677.052 462.699 677.188 462.195 677.193 461.618C677.188 461.052 677.054 460.559 676.793 460.14C676.532 459.715 676.17 459.388 675.707 459.159C675.244 458.925 674.705 458.808 674.089 458.808C673.463 458.808 672.916 458.925 672.448 459.159C671.98 459.388 671.617 459.715 671.362 460.14C671.106 460.559 670.98 461.052 670.986 461.618C670.98 462.195 671.108 462.699 671.37 463.129C671.636 463.559 672.004 463.894 672.472 464.134C672.941 464.373 673.48 464.493 674.089 464.493ZM688.132 474.229C687.173 474.229 686.31 474.038 685.543 473.657C684.775 473.276 684.159 472.753 683.697 472.089C683.234 471.424 682.981 470.668 682.937 469.818H684.897C684.974 470.575 685.317 471.201 685.926 471.697C686.542 472.187 687.277 472.432 688.132 472.432C688.818 472.432 689.428 472.271 689.961 471.95C690.5 471.629 690.922 471.188 691.227 470.627C691.538 470.06 691.693 469.421 691.693 468.707C691.693 467.978 691.532 467.327 691.211 466.755C690.895 466.178 690.459 465.723 689.904 465.391C689.349 465.059 688.714 464.89 688.001 464.885C687.489 464.879 686.964 464.958 686.425 465.122C685.886 465.28 685.442 465.484 685.093 465.734L683.198 465.506L684.211 457.273H692.902V459.07H685.91L685.322 464.003H685.42C685.763 463.731 686.193 463.505 686.71 463.325C687.228 463.145 687.767 463.055 688.328 463.055C689.351 463.055 690.263 463.3 691.064 463.79C691.87 464.275 692.501 464.939 692.959 465.783C693.422 466.627 693.653 467.591 693.653 468.675C693.653 469.742 693.413 470.695 692.934 471.533C692.46 472.366 691.807 473.025 690.974 473.51C690.141 473.989 689.193 474.229 688.132 474.229Z" fill="#8E8D8D"/>
<path d="M473.339 364.57V362.903L480.69 351.273H481.899V353.854H481.082L475.528 362.642V362.773H485.428V364.57H473.339ZM481.213 368V364.063V363.287V351.273H483.141V368H481.213ZM494.042 368.229C493.356 368.218 492.67 368.087 491.984 367.837C491.298 367.586 490.672 367.164 490.106 366.571C489.539 365.972 489.085 365.163 488.742 364.145C488.399 363.121 488.227 361.836 488.227 360.29C488.227 358.809 488.366 357.496 488.644 356.353C488.921 355.204 489.324 354.238 489.852 353.453C490.381 352.664 491.018 352.065 491.764 351.657C492.515 351.248 493.362 351.044 494.304 351.044C495.24 351.044 496.073 351.232 496.803 351.608C497.538 351.978 498.137 352.495 498.6 353.159C499.063 353.824 499.362 354.589 499.498 355.455H497.505C497.32 354.703 496.961 354.08 496.427 353.584C495.894 353.089 495.186 352.841 494.304 352.841C493.008 352.841 491.987 353.404 491.241 354.532C490.5 355.659 490.127 357.241 490.122 359.277H490.253C490.557 358.814 490.92 358.419 491.339 358.093C491.764 357.761 492.232 357.505 492.744 357.325C493.256 357.145 493.797 357.055 494.369 357.055C495.327 357.055 496.204 357.295 496.999 357.774C497.794 358.248 498.431 358.904 498.91 359.743C499.389 360.576 499.629 361.531 499.629 362.609C499.629 363.644 499.398 364.591 498.935 365.452C498.472 366.307 497.821 366.987 496.983 367.494C496.15 367.995 495.169 368.24 494.042 368.229ZM494.042 366.432C494.728 366.432 495.344 366.26 495.888 365.917C496.438 365.574 496.871 365.114 497.187 364.537C497.508 363.96 497.669 363.317 497.669 362.609C497.669 361.918 497.514 361.289 497.203 360.723C496.898 360.151 496.476 359.696 495.937 359.359C495.404 359.021 494.794 358.852 494.108 358.852C493.59 358.852 493.109 358.956 492.662 359.163C492.216 359.364 491.823 359.642 491.486 359.996C491.154 360.35 490.892 360.755 490.702 361.213C490.511 361.665 490.416 362.141 490.416 362.642C490.416 363.306 490.571 363.927 490.881 364.504C491.197 365.081 491.627 365.547 492.172 365.901C492.722 366.255 493.345 366.432 494.042 366.432Z" fill="#8E8D8D"/>
<path d="M89.96 537.22H92.33V554.38H89.96V537.22ZM85.55 544.57H90.68V546.64H85.55V544.57ZM84.17 537.76H86.51V553.42H84.17V537.76ZM69.35 540.46H83.09V542.44H69.35V540.46ZM76.25 543.82C79.64 543.82 82.01 545.68 82.01 548.47C82.01 551.29 79.64 553.12 76.25 553.12C72.83 553.12 70.46 551.29 70.46 548.47C70.46 545.68 72.83 543.82 76.25 543.82ZM76.25 545.68C74.12 545.68 72.68 546.79 72.68 548.47C72.68 550.18 74.12 551.26 76.25 551.26C78.35 551.26 79.79 550.18 79.79 548.47C79.79 546.79 78.35 545.68 76.25 545.68ZM75.02 537.43H77.45V541.57H75.02V537.43ZM83.45 554.86C89.09 554.86 92.48 556.54 92.48 559.57C92.48 562.57 89.09 564.28 83.45 564.28C77.75 564.28 74.39 562.57 74.39 559.57C74.39 556.54 77.75 554.86 83.45 554.86ZM83.45 556.78C79.28 556.78 76.85 557.77 76.85 559.57C76.85 561.37 79.28 562.39 83.45 562.39C87.56 562.39 90.02 561.37 90.02 559.57C90.02 557.77 87.56 556.78 83.45 556.78ZM103.728 539.56H105.768V544.42C105.768 550.42 102.528 556.27 98.2377 558.55L96.7077 556.57C100.638 554.59 103.728 549.37 103.728 544.42V539.56ZM104.178 539.56H106.188V544.42C106.188 549.19 109.218 554.14 113.058 556.06L111.528 558.04C107.328 555.79 104.178 550.24 104.178 544.42V539.56ZM115.428 537.22H117.948V564.34H115.428V537.22ZM117.348 548.2H122.388V550.3H117.348V548.2ZM130.725 546.4H133.185V551.53H130.725V546.4ZM140.685 546.4H143.145V551.53H140.685V546.4ZM124.665 550.63H149.175V552.64H124.665V550.63ZM136.905 554.68C142.725 554.68 146.205 556.39 146.205 559.48C146.205 562.57 142.725 564.31 136.905 564.31C131.085 564.31 127.605 562.57 127.605 559.48C127.605 556.39 131.085 554.68 136.905 554.68ZM136.905 556.6C132.675 556.6 130.125 557.65 130.125 559.48C130.125 561.34 132.675 562.36 136.905 562.36C141.165 562.36 143.685 561.34 143.685 559.48C143.685 557.65 141.165 556.6 136.905 556.6ZM136.935 537.7C142.815 537.7 146.475 539.59 146.475 542.77C146.475 545.92 142.815 547.78 136.935 547.78C131.025 547.78 127.395 545.92 127.395 542.77C127.395 539.59 131.025 537.7 136.935 537.7ZM136.935 539.65C132.615 539.65 129.945 540.79 129.945 542.77C129.945 544.72 132.615 545.86 136.935 545.86C141.255 545.86 143.925 544.72 143.925 542.77C143.925 540.79 141.255 539.65 136.935 539.65Z" fill="black"/>
<path d="M68.4489 93.5256V91.1818H84.8125V93.5256H77.9517V113H75.3097V93.5256H68.4489ZM91.0634 91.1818V113H88.5492V91.1818H91.0634ZM100.484 113.384C99.4467 113.384 98.5057 113.188 97.6605 112.798C96.8153 112.4 96.1442 111.828 95.647 111.082C95.1499 110.33 94.9013 109.42 94.9013 108.355C94.9013 107.418 95.0859 106.658 95.4553 106.075C95.8246 105.486 96.3182 105.024 96.9361 104.69C97.554 104.357 98.2358 104.108 98.9815 103.945C99.7344 103.774 100.491 103.639 101.251 103.54C102.245 103.412 103.051 103.316 103.669 103.252C104.294 103.181 104.749 103.064 105.033 102.901C105.324 102.737 105.469 102.453 105.469 102.048V101.963C105.469 100.912 105.182 100.095 104.607 99.5128C104.038 98.9304 103.175 98.6392 102.018 98.6392C100.817 98.6392 99.8764 98.902 99.1946 99.4276C98.5128 99.9531 98.0334 100.514 97.7564 101.111L95.37 100.259C95.7962 99.2642 96.3643 98.4901 97.0746 97.9361C97.7919 97.375 98.5732 96.9844 99.4183 96.7642C100.271 96.5369 101.109 96.4233 101.933 96.4233C102.458 96.4233 103.062 96.4872 103.744 96.6151C104.433 96.7358 105.097 96.9879 105.736 97.3714C106.382 97.755 106.918 98.3338 107.344 99.108C107.771 99.8821 107.984 100.919 107.984 102.219V113H105.469V110.784H105.342C105.171 111.139 104.887 111.519 104.489 111.924C104.092 112.329 103.563 112.673 102.902 112.957C102.241 113.241 101.435 113.384 100.484 113.384ZM100.867 111.125C101.862 111.125 102.7 110.93 103.381 110.539C104.07 110.148 104.589 109.644 104.937 109.026C105.292 108.408 105.469 107.759 105.469 107.077V104.776C105.363 104.903 105.129 105.021 104.766 105.127C104.411 105.227 103.999 105.315 103.531 105.393C103.069 105.464 102.618 105.528 102.178 105.585C101.744 105.635 101.393 105.678 101.123 105.713C100.469 105.798 99.8587 105.937 99.2905 106.129C98.7294 106.313 98.2749 106.594 97.9268 106.97C97.5859 107.339 97.4155 107.844 97.4155 108.483C97.4155 109.357 97.7386 110.017 98.3849 110.464C99.0384 110.905 99.8658 111.125 100.867 111.125ZM112.573 119.136V96.6364H115.002V99.2358H115.3C115.485 98.9517 115.74 98.5895 116.067 98.1491C116.401 97.7017 116.877 97.304 117.494 96.956C118.119 96.6009 118.965 96.4233 120.03 96.4233C121.408 96.4233 122.622 96.7678 123.673 97.4567C124.725 98.1456 125.545 99.1222 126.134 100.386C126.724 101.651 127.019 103.142 127.019 104.861C127.019 106.594 126.724 108.096 126.134 109.367C125.545 110.631 124.728 111.612 123.684 112.308C122.64 112.996 121.436 113.341 120.073 113.341C119.021 113.341 118.18 113.167 117.548 112.819C116.916 112.464 116.429 112.062 116.088 111.615C115.747 111.161 115.485 110.784 115.3 110.486H115.087V119.136H112.573ZM115.044 104.818C115.044 106.054 115.225 107.144 115.588 108.089C115.95 109.026 116.479 109.761 117.175 110.294C117.871 110.82 118.723 111.082 119.732 111.082C120.783 111.082 121.66 110.805 122.363 110.251C123.073 109.69 123.606 108.937 123.961 107.993C124.323 107.041 124.504 105.983 124.504 104.818C124.504 103.668 124.327 102.631 123.972 101.707C123.624 100.777 123.095 100.042 122.384 99.5021C121.681 98.9553 120.797 98.6818 119.732 98.6818C118.709 98.6818 117.85 98.9411 117.154 99.4595C116.458 99.9709 115.932 100.688 115.577 101.612C115.222 102.528 115.044 103.597 115.044 104.818ZM131.403 106.58H133.473C138.513 106.58 141.753 106.46 145.533 105.74L145.803 107.78C141.903 108.5 138.633 108.68 133.473 108.68H131.403V106.58ZM131.403 90.8H143.733V92.84H133.863V107.36H131.403V90.8ZM149.913 88.22H152.403V115.4H149.913V88.22ZM142.143 98.03H150.933V100.1H142.143V98.03ZM160.77 89.48H178.23V91.49H160.77V89.48ZM176.61 89.48H179.04V91.58C179.04 93.83 179.04 96.5 178.26 100.07L175.8 99.8C176.61 96.29 176.61 93.8 176.61 91.58V89.48ZM177.3 94.07V95.84L160.41 96.59L160.08 94.61L177.3 94.07ZM157.65 99.32H182.13V101.3H157.65V99.32ZM160.5 103.88H179.25V110.21H163.02V113.87H160.56V108.35H176.79V105.8H160.5V103.88ZM160.56 113.03H180.18V114.98H160.56V113.03ZM205.708 88.22H208.078V105.2H205.708V88.22ZM201.358 95.45H206.458V97.49H201.358V95.45ZM199.738 88.73H202.078V104.93H199.738V88.73ZM189.898 106.52H208.078V115.34H205.618V108.56H189.898V106.52ZM186.478 101.78H188.218C192.028 101.78 194.848 101.63 198.178 100.97L198.418 102.98C194.998 103.64 192.148 103.79 188.218 103.79H186.478V101.78ZM186.418 90.2H196.618V97.79H188.878V103.07H186.478V95.93H194.218V92.21H186.418V90.2ZM219.896 89.51H221.966V92.15C221.966 97.28 218.906 101.69 214.316 103.43L213.056 101.45C217.166 99.95 219.896 96.2 219.896 92.15V89.51ZM220.346 89.51H222.386V92.15C222.386 96.05 225.176 99.56 229.196 100.97L227.936 102.92C223.406 101.27 220.346 97.13 220.346 92.15V89.51ZM216.956 105.92H235.076V115.34H232.556V107.96H216.956V105.92ZM232.556 88.22H235.076V104.54H232.556V88.22ZM260.123 88.19H262.613V115.37H260.123V88.19ZM248.303 90.29C252.323 90.29 255.203 93.98 255.203 99.74C255.203 105.53 252.323 109.22 248.303 109.22C244.313 109.22 241.433 105.53 241.433 99.74C241.433 93.98 244.313 90.29 248.303 90.29ZM248.303 92.54C245.663 92.54 243.803 95.36 243.803 99.74C243.803 104.15 245.663 107.03 248.303 107.03C250.973 107.03 252.803 104.15 252.803 99.74C252.803 95.36 250.973 92.54 248.303 92.54ZM269.181 99.65H270.921C275.181 99.65 277.701 99.53 280.731 98.93L280.971 100.91C277.851 101.54 275.271 101.66 270.921 101.66H269.181V99.65ZM269.181 89.75H279.681V91.73H271.581V100.76H269.181V89.75ZM270.831 94.55H279.351V96.44H270.831V94.55ZM288.501 88.25H290.871V102.77H288.501V88.25ZM284.061 94.34H289.191V96.35H284.061V94.34ZM282.501 88.64H284.871V102.53H282.501V88.64ZM272.991 104H290.871V110.39H275.511V114.32H273.051V108.53H288.471V105.95H272.991V104ZM273.051 113.09H291.861V115.04H273.051V113.09ZM315.349 88.22H317.869V104.81H315.349V88.22ZM299.749 106.28H317.869V115.34H315.349V108.32H299.749V106.28ZM297.019 101.24H299.209C304.129 101.24 307.759 101.09 312.109 100.4L312.379 102.41C307.909 103.16 304.249 103.28 299.209 103.28H297.019V101.24ZM296.959 89.81H309.259V97.34H299.449V102.23H297.019V95.42H306.829V91.85H296.959V89.81ZM323.206 102.47H347.716V104.51H323.206V102.47ZM326.386 112.7H345.016V114.74H326.386V112.7ZM326.386 106.88H328.876V113.33H326.386V106.88ZM335.476 89.12C341.266 89.12 345.016 91.16 345.016 94.55C345.016 97.91 341.266 99.95 335.476 99.95C329.656 99.95 325.936 97.91 325.936 94.55C325.936 91.16 329.656 89.12 335.476 89.12ZM335.476 91.16C331.216 91.16 328.486 92.42 328.486 94.55C328.486 96.68 331.216 97.94 335.476 97.94C339.736 97.94 342.466 96.68 342.466 94.55C342.466 92.42 339.736 91.16 335.476 91.16ZM372.201 92.6H380.031V94.64H372.201V92.6ZM372.201 98H380.091V100.01H372.201V98ZM379.071 88.22H381.561V104.27H379.071V88.22ZM360.501 90.26H372.891V102.32H360.501V90.26ZM370.431 92.27H362.931V100.34H370.431V92.27ZM372.651 105.05C378.231 105.05 381.681 106.94 381.681 110.18C381.681 113.42 378.231 115.28 372.651 115.28C367.041 115.28 363.591 113.42 363.591 110.18C363.591 106.94 367.041 105.05 372.651 105.05ZM372.651 107.03C368.571 107.03 366.081 108.2 366.081 110.18C366.081 112.16 368.571 113.33 372.651 113.33C376.731 113.33 379.221 112.16 379.221 110.18C379.221 108.2 376.731 107.03 372.651 107.03ZM386.869 109.79H411.439V111.86H386.869V109.79ZM397.909 103.22H400.369V110.48H397.909V103.22ZM397.849 91.64H399.949V93.32C399.949 98.87 394.399 103.07 389.059 104.18L388.039 102.2C392.719 101.42 397.849 97.61 397.849 93.32V91.64ZM398.299 91.64H400.399V93.32C400.399 97.61 405.559 101.33 410.299 102.11L409.309 104.09C403.879 103.01 398.299 98.87 398.299 93.32V91.64ZM388.879 90.68H409.369V92.72H388.879V90.68ZM421.307 101.9H423.797V108.38H421.307V101.9ZM422.537 89.96C426.707 89.96 429.707 92.57 429.707 96.35C429.707 100.13 426.707 102.74 422.537 102.74C418.367 102.74 415.367 100.13 415.367 96.35C415.367 92.57 418.367 89.96 422.537 89.96ZM422.537 92.09C419.777 92.09 417.797 93.83 417.797 96.35C417.797 98.87 419.777 100.61 422.537 100.61C425.297 100.61 427.277 98.87 427.277 96.35C427.277 93.83 425.297 92.09 422.537 92.09ZM432.797 88.22H435.287V115.34H432.797V88.22ZM434.567 99.38H439.577V101.48H434.567V99.38ZM414.497 109.49L414.137 107.42C419.027 107.39 425.567 107.36 431.087 106.61L431.297 108.47C425.567 109.43 419.237 109.49 414.497 109.49ZM453.082 90.92H470.542V92.99H453.082V90.92ZM450.502 109.49H475.012V111.56H450.502V109.49ZM460.012 99.8H462.502V110.51H460.012V99.8ZM469.612 90.92H472.072V93.62C472.072 96.98 472.072 100.7 471.082 106.19L468.592 105.86C469.612 100.67 469.612 96.86 469.612 93.62V90.92ZM479.72 100.55H481.97C487.94 100.55 491.3 100.37 495.17 99.62L495.41 101.66C491.45 102.41 488.06 102.59 481.97 102.59H479.72V100.55ZM479.72 90.41H492.47V92.45H482.21V101.6H479.72V90.41ZM482.21 105.83H500.33V115.34H497.81V107.87H482.21V105.83ZM497.81 88.25H500.33V104.36H497.81V88.25ZM514.487 90.17C518.717 90.17 521.747 92.78 521.747 96.56C521.747 100.37 518.717 102.98 514.487 102.98C510.257 102.98 507.197 100.37 507.197 96.56C507.197 92.78 510.257 90.17 514.487 90.17ZM514.487 92.33C511.667 92.33 509.627 94.04 509.627 96.56C509.627 99.08 511.667 100.82 514.487 100.82C517.277 100.82 519.317 99.08 519.317 96.56C519.317 94.04 517.277 92.33 514.487 92.33ZM525.287 88.19H527.777V115.37H525.287V88.19ZM506.177 109.43L505.817 107.36C510.767 107.36 517.607 107.33 523.517 106.4L523.727 108.23C517.637 109.4 511.007 109.43 506.177 109.43ZM552.712 101.78H555.202V106.52H552.712V101.78ZM541.702 100.91H566.212V102.92H541.702V100.91ZM553.942 105.77C559.762 105.77 563.242 107.48 563.242 110.54C563.242 113.57 559.762 115.28 553.942 115.28C548.122 115.28 544.642 113.57 544.642 110.54C544.642 107.48 548.122 105.77 553.942 105.77ZM553.942 107.69C549.712 107.69 547.162 108.71 547.162 110.54C547.162 112.34 549.712 113.36 553.942 113.36C558.202 113.36 560.722 112.34 560.722 110.54C560.722 108.71 558.202 107.69 553.942 107.69ZM552.352 90.44H554.572V91.25C554.572 95.63 549.592 98.57 543.982 99.26L543.082 97.28C547.942 96.77 552.352 94.34 552.352 91.25V90.44ZM553.402 90.44H555.592V91.25C555.592 94.34 560.002 96.77 564.862 97.28L563.962 99.26C558.352 98.57 553.402 95.63 553.402 91.25V90.44ZM543.952 89.45H564.022V91.46H543.952V89.45ZM587.87 88.22H590.36V108.05H587.87V88.22ZM589.58 96.44H594.38V98.51H589.58V96.44ZM580.46 90.32H583.1C583.1 97.34 578.18 102.47 570.41 104.96L569.33 102.92C576.17 100.82 580.46 96.62 580.46 91.4V90.32ZM570.44 90.32H581.72V92.36H570.44V90.32ZM573.44 112.7H591.56V114.74H573.44V112.7ZM573.44 106.04H575.93V113.51H573.44V106.04ZM612.175 89.75H614.245V92.54C614.245 97.79 611.275 102.08 606.625 103.82L605.335 101.78C609.475 100.31 612.175 96.68 612.175 92.54V89.75ZM612.625 89.75H614.665V92.45C614.665 96.29 617.305 99.68 621.265 101.06L619.915 103.01C615.535 101.36 612.625 97.37 612.625 92.45V89.75ZM625.165 88.22H627.655V104.27H625.165V88.22ZM618.745 105.05C624.325 105.05 627.775 106.94 627.775 110.18C627.775 113.42 624.325 115.28 618.745 115.28C613.135 115.28 609.685 113.42 609.685 110.18C609.685 106.94 613.135 105.05 618.745 105.05ZM618.745 107.03C614.665 107.03 612.175 108.2 612.175 110.18C612.175 112.16 614.665 113.33 618.745 113.33C622.825 113.33 625.315 112.16 625.315 110.18C625.315 108.2 622.825 107.03 618.745 107.03ZM619.285 93.95H625.705V96.02H619.285V93.95ZM644.513 90.05H647.123C647.123 96.95 642.233 101.87 634.343 104.03L633.353 102.08C640.313 100.16 644.513 96.17 644.513 91.13V90.05ZM634.733 90.05H646.043V92.06H634.733V90.05ZM637.163 105.62H655.253V115.28H652.763V107.63H637.163V105.62ZM652.763 88.22H655.253V104.39H652.763V88.22ZM646.013 93.05H653.273V95.09H646.013V93.05ZM645.743 98.81H653.093V100.85H645.743V98.81ZM672.801 89.93C678.441 89.93 682.641 92.93 682.641 97.43C682.641 101.96 678.441 104.93 672.801 104.93C667.161 104.93 662.931 101.96 662.931 97.43C662.931 92.93 667.161 89.93 672.801 89.93ZM672.801 91.97C668.511 91.97 665.331 94.16 665.331 97.43C665.331 100.67 668.511 102.89 672.801 102.89C677.091 102.89 680.271 100.67 680.271 97.43C680.271 94.16 677.091 91.97 672.801 91.97ZM660.561 109.67H685.131V111.77H660.561V109.67ZM688.158 109.94H712.728V112.01H688.158V109.94ZM699.138 104.12H701.628V110.81H699.138V104.12ZM691.128 90.23H709.698V98.45H693.678V103.88H691.218V96.44H707.238V92.24H691.128V90.23ZM691.218 102.83H710.328V104.87H691.218V102.83ZM68.5 147.75H93.01V149.73H68.5V147.75ZM79.51 143.07H81.97V148.53H79.51V143.07ZM71.2 152.37H90.01V161.55H87.52V154.41H71.2V152.37ZM71.59 142.47H90.19V144.51H71.59V142.47ZM71.59 135.3H89.95V137.34H74.08V143.52H71.59V135.3ZM96.0677 148.53H120.578V150.57H96.0677V148.53ZM98.7977 153.15H117.428V161.34H114.938V155.19H98.7977V153.15ZM99.3077 144.06H117.698V146.01H99.3077V144.06ZM99.3077 134.94H117.578V136.89H101.768V144.96H99.3077V134.94ZM101.048 139.44H116.858V141.33H101.048V139.44ZM142.235 134.25H144.725V154.59H142.235V134.25ZM143.945 143.13H148.745V145.23H143.945V143.13ZM123.755 137.52H139.775V139.53H123.755V137.52ZM131.765 141.03C135.605 141.03 138.245 143.04 138.245 146.1C138.245 149.13 135.605 151.14 131.765 151.14C127.895 151.14 125.255 149.13 125.255 146.1C125.255 143.04 127.895 141.03 131.765 141.03ZM131.765 142.98C129.305 142.98 127.625 144.21 127.625 146.1C127.625 147.96 129.305 149.19 131.765 149.19C134.195 149.19 135.875 147.96 135.875 146.1C135.875 144.21 134.195 142.98 131.765 142.98ZM130.505 134.22H132.995V138.57H130.505V134.22ZM127.835 158.7H145.955V160.74H127.835V158.7ZM127.835 152.97H130.325V159.57H127.835V152.97ZM179.41 134.22H181.9V161.4H179.41V134.22ZM161.47 152.55H163.66C169.03 152.55 172.51 152.37 176.53 151.62L176.8 153.72C172.66 154.5 169.12 154.65 163.66 154.65H161.47V152.55ZM161.47 136.8H174.28V138.87H163.93V153.33H161.47V136.8ZM198.578 144.48H203.678V146.55H198.578V144.48ZM188.318 152.79H190.058C194.228 152.79 196.718 152.7 199.718 152.1L199.958 154.14C196.868 154.74 194.288 154.83 190.058 154.83H188.318V152.79ZM188.318 137.49H198.368V139.5H190.688V153.48H188.318V137.49ZM189.968 144.81H197.138V146.79H189.968V144.81ZM207.938 134.22H210.338V161.34H207.938V134.22ZM202.478 134.85H204.848V159.96H202.478V134.85ZM222.516 135.21C226.566 135.21 229.536 137.67 229.536 141.24C229.536 144.78 226.566 147.24 222.516 147.24C218.496 147.24 215.526 144.78 215.526 141.24C215.526 137.67 218.496 135.21 222.516 135.21ZM222.516 137.25C219.906 137.25 217.926 138.9 217.926 141.24C217.926 143.58 219.906 145.2 222.516 145.2C225.156 145.2 227.106 143.58 227.106 141.24C227.106 138.9 225.156 137.25 222.516 137.25ZM234.636 134.22H237.156V148.11H234.636V134.22ZM219.606 149.43H237.156V156.03H222.096V160.11H219.666V154.17H234.696V151.44H219.606V149.43ZM219.666 159H238.056V160.98H219.666V159ZM254.763 134.67C260.733 134.67 264.303 136.35 264.303 139.38C264.303 142.41 260.733 144.09 254.763 144.09C248.763 144.09 245.223 142.41 245.223 139.38C245.223 136.35 248.763 134.67 254.763 134.67ZM254.763 136.56C250.323 136.56 247.773 137.58 247.773 139.38C247.773 141.18 250.323 142.2 254.763 142.2C259.173 142.2 261.723 141.18 261.723 139.38C261.723 137.58 259.173 136.56 254.763 136.56ZM242.493 145.89H267.003V147.9H242.493V145.89ZM245.463 150.21H263.883V156.33H247.983V159.63H245.523V154.53H261.423V152.13H245.463V150.21ZM245.523 159.09H264.693V161.04H245.523V159.09ZM296.889 134.19H299.409V161.34H296.889V134.19ZM298.719 145.2H303.729V147.27H298.719V145.2ZM289.959 137.13H292.389C292.389 144.84 288.849 151.8 280.089 156.21L278.709 154.29C286.209 150.48 289.959 144.69 289.959 137.52V137.13ZM279.969 137.13H291.249V139.17H279.969V137.13ZM313.356 137.19H315.426V139.95C315.426 144.93 312.366 149.1 307.806 150.75L306.516 148.77C310.596 147.33 313.356 143.82 313.356 139.95V137.19ZM313.836 137.19H315.906V139.95C315.906 143.61 318.726 146.91 322.746 148.26L321.456 150.21C316.956 148.68 313.836 144.72 313.836 139.95V137.19ZM307.176 136.47H322.026V138.48H307.176V136.47ZM325.866 134.25H328.386V154.08H325.866V134.25ZM310.956 158.7H329.196V160.74H310.956V158.7ZM310.956 152.22H313.416V159.6H310.956V152.22ZM344.441 135.45H364.361V137.46H344.441V135.45ZM344.561 143.61H364.241V145.62H344.561V143.61ZM348.551 136.38H351.041V144.51H348.551V136.38ZM357.791 136.38H360.251V144.51H357.791V136.38ZM342.161 148.89H366.671V150.93H342.161V148.89ZM353.201 144.96H355.661V150.15H353.201V144.96ZM345.341 158.7H363.971V160.74H345.341V158.7ZM345.341 153.27H347.831V159.36H345.341V153.27ZM372.939 148.83H391.569V150.84H372.939V148.83ZM369.789 155.79H394.359V157.86H369.789V155.79ZM372.939 136.53H391.269V138.57H375.459V149.46H372.939V136.53ZM374.649 142.59H390.699V144.57H374.649V142.59ZM417.097 134.22H419.617V148.77H417.097V134.22ZM402.127 150.12H404.587V153.42H417.157V150.12H419.617V160.98H402.127V150.12ZM404.587 155.4V158.97H417.157V155.4H404.587ZM405.067 135.51C409.177 135.51 412.117 138.06 412.117 141.75C412.117 145.47 409.177 148.02 405.067 148.02C400.957 148.02 397.987 145.47 397.987 141.75C397.987 138.06 400.957 135.51 405.067 135.51ZM405.067 137.58C402.367 137.58 400.417 139.29 400.417 141.75C400.417 144.21 402.367 145.92 405.067 145.92C407.767 145.92 409.717 144.21 409.717 141.75C409.717 139.29 407.767 137.58 405.067 137.58ZM444.694 134.22H447.184V161.34H444.694V134.22ZM426.694 136.86H429.154V153.66H426.694V136.86ZM426.694 152.19H428.914C433.024 152.19 437.314 151.89 441.904 150.93L442.204 153.06C437.494 154.02 433.204 154.35 428.914 154.35H426.694V152.19ZM470.912 134.19H473.432V161.37H470.912V134.19ZM472.832 144.9H477.872V147H472.832V144.9ZM453.722 152.52H455.852C460.862 152.52 464.372 152.34 468.422 151.59L468.692 153.69C464.522 154.47 460.952 154.62 455.852 154.62H453.722V152.52ZM453.722 136.83H466.322V138.87H456.182V153.45H453.722V136.83ZM482.813 159.17C482.288 159.17 481.837 158.982 481.46 158.606C481.084 158.229 480.896 157.778 480.896 157.253C480.896 156.727 481.084 156.276 481.46 155.9C481.837 155.523 482.288 155.335 482.813 155.335C483.339 155.335 483.79 155.523 484.166 155.9C484.543 156.276 484.731 156.727 484.731 157.253C484.731 157.601 484.642 157.92 484.464 158.212C484.294 158.503 484.063 158.737 483.772 158.915C483.488 159.085 483.168 159.17 482.813 159.17ZM501.483 137.182V159H497.531V137.182H501.483ZM513.764 142.636V145.619H504.357V142.636H513.764ZM506.68 138.716H510.536V154.078C510.536 154.597 510.614 154.994 510.77 155.271C510.934 155.541 511.147 155.726 511.41 155.825C511.672 155.925 511.964 155.974 512.283 155.974C512.525 155.974 512.745 155.957 512.944 155.921C513.15 155.886 513.306 155.854 513.412 155.825L514.062 158.84C513.856 158.911 513.562 158.989 513.178 159.075C512.802 159.16 512.34 159.21 511.793 159.224C510.827 159.252 509.957 159.107 509.183 158.787C508.409 158.46 507.795 157.956 507.34 157.274C506.893 156.592 506.672 155.74 506.68 154.717V138.716ZM521.698 159.33C520.661 159.33 519.727 159.146 518.896 158.776C518.072 158.4 517.419 157.846 516.936 157.114C516.46 156.383 516.222 155.481 516.222 154.408C516.222 153.485 516.393 152.722 516.734 152.118C517.075 151.514 517.54 151.031 518.129 150.669C518.719 150.307 519.383 150.033 520.121 149.849C520.867 149.657 521.638 149.518 522.433 149.433C523.392 149.334 524.17 149.245 524.766 149.167C525.363 149.082 525.796 148.954 526.066 148.783C526.343 148.606 526.482 148.332 526.482 147.963V147.899C526.482 147.097 526.244 146.475 525.768 146.035C525.292 145.594 524.607 145.374 523.712 145.374C522.767 145.374 522.018 145.58 521.464 145.992C520.917 146.404 520.548 146.891 520.356 147.452L516.755 146.94C517.039 145.946 517.508 145.115 518.161 144.447C518.815 143.773 519.614 143.268 520.558 142.935C521.503 142.594 522.547 142.423 523.69 142.423C524.479 142.423 525.263 142.516 526.045 142.7C526.826 142.885 527.54 143.19 528.186 143.616C528.832 144.036 529.351 144.607 529.741 145.332C530.139 146.056 530.338 146.962 530.338 148.048V159H526.631V156.752H526.503C526.268 157.207 525.938 157.633 525.512 158.031C525.093 158.421 524.564 158.737 523.925 158.979C523.293 159.213 522.55 159.33 521.698 159.33ZM522.7 156.496C523.474 156.496 524.145 156.344 524.713 156.038C525.281 155.726 525.718 155.314 526.023 154.803C526.336 154.291 526.492 153.734 526.492 153.13V151.202C526.371 151.301 526.165 151.393 525.874 151.479C525.59 151.564 525.271 151.638 524.915 151.702C524.56 151.766 524.209 151.823 523.861 151.873C523.513 151.923 523.211 151.965 522.955 152.001C522.38 152.079 521.865 152.207 521.411 152.384C520.956 152.562 520.597 152.81 520.335 153.13C520.072 153.442 519.94 153.847 519.94 154.344C519.94 155.055 520.2 155.591 520.718 155.953C521.237 156.315 521.897 156.496 522.7 156.496ZM538.072 137.182V159H534.216V137.182H538.072ZM542.038 159V142.636H545.895V159H542.038ZM543.977 140.314C543.366 140.314 542.841 140.112 542.4 139.707C541.96 139.295 541.74 138.801 541.74 138.226C541.74 137.643 541.96 137.15 542.4 136.745C542.841 136.333 543.366 136.127 543.977 136.127C544.595 136.127 545.121 136.333 545.554 136.745C545.994 137.15 546.214 137.643 546.214 138.226C546.214 138.801 545.994 139.295 545.554 139.707C545.121 140.112 544.595 140.314 543.977 140.314ZM556.998 159.32C555.365 159.32 553.962 158.961 552.79 158.244C551.625 157.526 550.727 156.536 550.095 155.271C549.47 154 549.157 152.537 549.157 150.882C549.157 149.22 549.477 147.754 550.116 146.482C550.755 145.204 551.657 144.21 552.822 143.499C553.994 142.782 555.379 142.423 556.977 142.423C558.305 142.423 559.48 142.668 560.503 143.158C561.533 143.641 562.353 144.327 562.964 145.214C563.575 146.095 563.923 147.125 564.008 148.304H560.322C560.173 147.516 559.818 146.859 559.257 146.333C558.703 145.8 557.961 145.534 557.03 145.534C556.242 145.534 555.549 145.747 554.953 146.173C554.356 146.592 553.891 147.196 553.557 147.984C553.23 148.773 553.067 149.717 553.067 150.818C553.067 151.933 553.23 152.892 553.557 153.695C553.884 154.49 554.342 155.104 554.931 155.538C555.528 155.964 556.228 156.177 557.03 156.177C557.598 156.177 558.106 156.07 558.554 155.857C559.008 155.637 559.388 155.321 559.694 154.909C559.999 154.497 560.208 153.996 560.322 153.407H564.008C563.916 154.565 563.575 155.591 562.985 156.486C562.396 157.374 561.593 158.07 560.578 158.574C559.562 159.071 558.369 159.32 556.998 159.32ZM567.203 136.17H580.433V149.58H567.203V136.17ZM576.503 139.32H571.133V146.43H576.503V139.32ZM584.273 133.89H588.263V154.14H584.273V133.89ZM587.123 141.9H591.953V145.17H587.123V141.9ZM570.353 158.01H589.253V161.19H570.353V158.01ZM570.353 152.16H574.343V159.6H570.353V152.16ZM602.931 135.72C607.311 135.72 610.581 138.57 610.581 142.56C610.581 146.58 607.311 149.43 602.931 149.43C598.581 149.43 595.251 146.58 595.251 142.56C595.251 138.57 598.581 135.72 602.931 135.72ZM602.931 139.14C600.801 139.14 599.181 140.4 599.181 142.56C599.181 144.75 600.801 146.01 602.931 146.01C605.061 146.01 606.681 144.75 606.681 142.56C606.681 140.4 605.061 139.14 602.931 139.14ZM613.191 133.86H617.181V161.73H613.191V133.86ZM594.591 156.09L594.111 152.88C599.001 152.88 605.811 152.82 611.661 151.95L611.961 154.83C605.931 156.03 599.391 156.09 594.591 156.09ZM648.17 133.89H652.19V148.11H648.17V133.89ZM633.38 149.22H652.19V156.72H637.37V160.08H633.44V153.87H648.23V152.28H633.38V149.22ZM633.44 158.4H652.94V161.49H633.44V158.4ZM630.23 135.57H645.2V138.63H630.23V135.57ZM629.9 147.63L629.51 144.48C634.37 144.48 640.85 144.39 646.22 143.73L646.43 146.58C640.94 147.48 634.7 147.6 629.9 147.63ZM632.42 136.95H636.23V146.04H632.42V136.95ZM639.14 136.95H643.01V146.04H639.14V136.95ZM674.508 133.89H678.498V149.37H674.508V133.89ZM677.388 139.92H682.188V143.19H677.388V139.92ZM666.528 135.48H670.788C670.788 142.86 666.168 147.87 657.888 150.03L656.328 146.88C663.138 145.17 666.528 141.63 666.528 137.46V135.48ZM657.648 135.48H668.928V138.63H657.648V135.48ZM660.468 150.48H678.498V161.37H660.468V150.48ZM674.568 153.63H664.398V158.22H674.568V153.63ZM696.765 134.67C702.735 134.67 706.305 136.35 706.305 139.38C706.305 142.41 702.735 144.09 696.765 144.09C690.765 144.09 687.225 142.41 687.225 139.38C687.225 136.35 690.765 134.67 696.765 134.67ZM696.765 136.56C692.325 136.56 689.775 137.58 689.775 139.38C689.775 141.18 692.325 142.2 696.765 142.2C701.175 142.2 703.725 141.18 703.725 139.38C703.725 137.58 701.175 136.56 696.765 136.56ZM684.495 145.89H709.005V147.9H684.495V145.89ZM687.465 150.21H705.885V156.33H689.985V159.63H687.525V154.53H703.425V152.13H687.465V150.21ZM687.525 159.09H706.695V161.04H687.525V159.09ZM727.161 135.12H729.201V137.28C729.201 142.38 726.231 146.46 721.611 148.08L720.381 146.07C724.491 144.72 727.161 141.3 727.161 137.28V135.12ZM727.611 135.12H729.621V137.22C729.621 140.88 732.291 144.06 736.281 145.32L734.991 147.27C730.551 145.74 727.611 141.96 727.611 137.22V135.12ZM739.101 134.22H741.591V148.35H739.101V134.22ZM740.511 140.13H745.581V142.2H740.511V140.13ZM724.371 149.61H741.591V156.12H726.891V160.17H724.431V154.23H739.161V151.59H724.371V149.61ZM724.431 159.06H742.581V161.04H724.431V159.06ZM767.868 134.25H770.358V154.23H767.868V134.25ZM752.688 158.7H771.108V160.74H752.688V158.7ZM752.688 152.64H755.178V159.72H752.688V152.64ZM749.538 148.32H751.728C756.858 148.32 760.428 148.14 764.628 147.42L764.898 149.46C760.578 150.21 756.978 150.36 751.728 150.36H749.538V148.32ZM749.478 136.14H761.778V144H751.968V148.95H749.538V142.08H759.348V138.18H749.478V136.14ZM87.07 180.22H89.53V196.36H87.07V180.22ZM88.84 186.94H93.55V189.04H88.84V186.94ZM80.86 196.72C86.29 196.72 89.8 198.76 89.8 202.03C89.8 205.3 86.29 207.31 80.86 207.31C75.43 207.31 71.92 205.3 71.92 202.03C71.92 198.76 75.43 196.72 80.86 196.72ZM80.86 198.73C76.93 198.73 74.38 199.99 74.38 202.03C74.38 204.07 76.93 205.33 80.86 205.33C84.82 205.33 87.37 204.07 87.37 202.03C87.37 199.99 84.82 198.73 80.86 198.73ZM69.79 181.87H72.28V192.76H69.79V181.87ZM69.79 191.83H71.92C75.82 191.83 79.87 191.56 84.31 190.69L84.61 192.7C80.02 193.66 75.97 193.93 71.92 193.93H69.79V191.83ZM97.2077 182.65H109.658V195.22H97.2077V182.65ZM107.228 184.66H99.6377V193.21H107.228V184.66ZM114.638 180.19H117.128V200.08H114.638V180.19ZM116.348 188.47H121.148V190.54H116.348V188.47ZM100.238 204.7H118.358V206.74H100.238V204.7ZM100.238 198.19H102.728V205.57H100.238V198.19ZM130.595 182.98H132.635V185.17C132.635 190.12 129.575 194.35 125.045 196.03L123.755 194.05C127.805 192.61 130.595 189.01 130.595 185.17V182.98ZM131.075 182.98H133.085V185.17C133.085 188.65 135.725 192.04 139.655 193.42L138.395 195.4C133.985 193.78 131.075 189.7 131.075 185.17V182.98ZM138.185 187.27H144.215V189.34H138.185V187.27ZM124.535 182.08H139.025V184.09H124.535V182.08ZM127.895 197.92H145.985V207.34H143.495V199.96H127.895V197.92ZM143.495 180.22H145.985V196.45H143.495V180.22ZM170.973 180.19H173.463V207.37H170.973V180.19ZM159.153 182.29C163.173 182.29 166.053 185.98 166.053 191.74C166.053 197.53 163.173 201.22 159.153 201.22C155.163 201.22 152.283 197.53 152.283 191.74C152.283 185.98 155.163 182.29 159.153 182.29ZM159.153 184.54C156.513 184.54 154.653 187.36 154.653 191.74C154.653 196.15 156.513 199.03 159.153 199.03C161.823 199.03 163.653 196.15 163.653 191.74C163.653 187.36 161.823 184.54 159.153 184.54ZM181.471 182.92H198.931V184.99H181.471V182.92ZM178.891 201.49H203.401V203.56H178.891V201.49ZM188.401 191.8H190.891V202.51H188.401V191.8ZM198.001 182.92H200.461V185.62C200.461 188.98 200.461 192.7 199.471 198.19L196.981 197.86C198.001 192.67 198.001 188.86 198.001 185.62V182.92ZM214.896 193.42H239.406V195.46H214.896V193.42ZM217.176 181.24H237.096V183.25H217.176V181.24ZM217.296 188.89H236.976V190.93H217.296V188.89ZM221.286 182.11H223.776V190.27H221.286V182.11ZM230.526 182.11H232.986V190.27H230.526V182.11ZM227.136 198.01C232.956 198.01 236.406 199.66 236.406 202.66C236.406 205.63 232.956 207.28 227.136 207.28C221.316 207.28 217.866 205.63 217.866 202.66C217.866 199.66 221.316 198.01 227.136 198.01ZM227.136 199.93C222.876 199.93 220.386 200.92 220.386 202.66C220.386 204.4 222.876 205.39 227.136 205.39C231.396 205.39 233.886 204.4 233.886 202.66C233.886 200.92 231.396 199.93 227.136 199.93ZM225.936 194.35H228.396V198.79H225.936V194.35ZM249.333 181.75H251.403V184.54C251.403 189.79 248.433 194.08 243.783 195.82L242.493 193.78C246.633 192.31 249.333 188.68 249.333 184.54V181.75ZM249.783 181.75H251.823V184.45C251.823 188.29 254.463 191.68 258.423 193.06L257.073 195.01C252.693 193.36 249.783 189.37 249.783 184.45V181.75ZM262.323 180.22H264.813V196.27H262.323V180.22ZM255.903 197.05C261.483 197.05 264.933 198.94 264.933 202.18C264.933 205.42 261.483 207.28 255.903 207.28C250.293 207.28 246.843 205.42 246.843 202.18C246.843 198.94 250.293 197.05 255.903 197.05ZM255.903 199.03C251.823 199.03 249.333 200.2 249.333 202.18C249.333 204.16 251.823 205.33 255.903 205.33C259.983 205.33 262.473 204.16 262.473 202.18C262.473 200.2 259.983 199.03 255.903 199.03ZM256.443 185.95H262.863V188.02H256.443V185.95ZM288.661 180.25H291.151V200.59H288.661V180.25ZM290.371 189.13H295.171V191.23H290.371V189.13ZM270.181 183.52H286.201V185.53H270.181V183.52ZM278.191 187.03C282.031 187.03 284.671 189.04 284.671 192.1C284.671 195.13 282.031 197.14 278.191 197.14C274.321 197.14 271.681 195.13 271.681 192.1C271.681 189.04 274.321 187.03 278.191 187.03ZM278.191 188.98C275.731 188.98 274.051 190.21 274.051 192.1C274.051 193.96 275.731 195.19 278.191 195.19C280.621 195.19 282.301 193.96 282.301 192.1C282.301 190.21 280.621 188.98 278.191 188.98ZM276.931 180.22H279.421V184.57H276.931V180.22ZM274.261 204.7H292.381V206.74H274.261V204.7ZM274.261 198.97H276.751V205.57H274.261V198.97ZM325.836 180.22H328.326V207.4H325.836V180.22ZM307.896 198.55H310.086C315.456 198.55 318.936 198.37 322.956 197.62L323.226 199.72C319.086 200.5 315.546 200.65 310.086 200.65H307.896V198.55ZM307.896 182.8H320.706V184.87H310.356V199.33H307.896V182.8ZM345.004 190.48H350.104V192.55H345.004V190.48ZM334.744 198.79H336.484C340.654 198.79 343.144 198.7 346.144 198.1L346.384 200.14C343.294 200.74 340.714 200.83 336.484 200.83H334.744V198.79ZM334.744 183.49H344.794V185.5H337.114V199.48H334.744V183.49ZM336.394 190.81H343.564V192.79H336.394V190.81ZM354.364 180.22H356.764V207.34H354.364V180.22ZM348.904 180.85H351.274V205.96H348.904V180.85ZM368.942 181.21C372.992 181.21 375.962 183.67 375.962 187.24C375.962 190.78 372.992 193.24 368.942 193.24C364.922 193.24 361.952 190.78 361.952 187.24C361.952 183.67 364.922 181.21 368.942 181.21ZM368.942 183.25C366.332 183.25 364.352 184.9 364.352 187.24C364.352 189.58 366.332 191.2 368.942 191.2C371.582 191.2 373.532 189.58 373.532 187.24C373.532 184.9 371.582 183.25 368.942 183.25ZM381.062 180.22H383.582V194.11H381.062V180.22ZM366.032 195.43H383.582V202.03H368.522V206.11H366.092V200.17H381.122V197.44H366.032V195.43ZM366.092 205H384.482V206.98H366.092V205ZM412.897 180.79H415.207V205.99H412.897V180.79ZM414.247 191.26H419.257V193.3H414.247V191.26ZM398.167 198.22H399.247C400.297 198.22 402.067 198.19 404.167 197.68L404.377 199.75C402.127 200.29 400.387 200.29 399.247 200.29H398.167V198.22ZM398.167 183.61H403.957V185.65H400.477V199.39H398.167V183.61ZM405.127 198.22H406.267C407.707 198.22 409.597 198.16 411.667 197.59L411.907 199.66C409.687 200.26 407.827 200.29 406.267 200.29H405.127V198.22ZM405.127 183.61H411.097V185.65H407.407V199.3H405.127V183.61ZM418.387 180.22H420.757V207.34H418.387V180.22ZM424.954 194.08H449.524V196.12H424.954V194.08ZM436.174 195.34H438.664V201.58H436.174V195.34ZM428.104 181.48H446.344V191.02H428.104V181.48ZM443.884 183.49H430.534V189.01H443.884V183.49ZM428.074 204.7H446.794V206.74H428.074V204.7ZM428.074 198.97H430.534V205.42H428.074V198.97ZM463.562 190.75H468.692V192.82H463.562V190.75ZM473.222 180.22H475.622V207.34H473.222V180.22ZM467.852 180.79H470.222V205.99H467.852V180.79ZM458.672 182.47C462.182 182.47 464.462 186.1 464.462 191.92C464.462 197.74 462.182 201.37 458.672 201.37C455.162 201.37 452.912 197.74 452.912 191.92C452.912 186.1 455.162 182.47 458.672 182.47ZM458.672 184.78C456.542 184.78 455.192 187.54 455.192 191.92C455.192 196.3 456.542 199.06 458.672 199.06C460.832 199.06 462.182 196.3 462.182 191.92C462.182 187.54 460.832 184.78 458.672 184.78ZM508.207 179.89H511.987V197.29H508.207V179.89ZM504.817 186.73H509.257V189.97H504.817V186.73ZM502.447 180.43H506.167V196.39H502.447V180.43ZM488.197 182.74H501.667V185.8H488.197V182.74ZM494.977 186.7C498.457 186.7 500.977 188.68 500.977 191.56C500.977 194.44 498.457 196.39 494.977 196.39C491.497 196.39 488.977 194.44 488.977 191.56C488.977 188.68 491.497 186.7 494.977 186.7ZM494.977 189.55C493.507 189.55 492.517 190.27 492.517 191.56C492.517 192.85 493.507 193.57 494.977 193.57C496.417 193.57 497.407 192.85 497.407 191.56C497.407 190.27 496.417 189.55 494.977 189.55ZM492.967 180.16H496.897V184.84H492.967V180.16ZM502.597 197.59C508.537 197.59 512.137 199.39 512.137 202.63C512.137 205.84 508.537 207.67 502.597 207.67C496.627 207.67 493.027 205.84 493.027 202.63C493.027 199.39 496.627 197.59 502.597 197.59ZM502.597 200.56C498.877 200.56 497.017 201.19 497.017 202.63C497.017 204.04 498.877 204.7 502.597 204.7C506.287 204.7 508.147 204.04 508.147 202.63C508.147 201.19 506.287 200.56 502.597 200.56ZM522.155 182.02H525.395V186.07C525.395 192.94 522.995 199.39 517.745 201.97L515.345 198.76C520.025 196.57 522.155 191.23 522.155 186.07V182.02ZM522.965 182.02H526.145V186.07C526.145 191.05 528.125 196.12 532.565 198.28L530.165 201.46C525.155 198.91 522.965 192.73 522.965 186.07V182.02ZM533.675 179.89H537.695V207.67H533.675V179.89ZM536.795 190.57H541.715V193.9H536.795V190.57ZM549.153 189.19H553.143V194.29H549.153V189.19ZM558.933 189.19H562.893V194.29H558.933V189.19ZM543.513 193.06H568.623V196.21H543.513V193.06ZM556.023 197.62C562.023 197.62 565.653 199.42 565.653 202.63C565.653 205.87 562.023 207.67 556.023 207.67C549.993 207.67 546.363 205.87 546.363 202.63C546.363 199.42 549.993 197.62 556.023 197.62ZM556.023 200.62C552.303 200.62 550.413 201.25 550.413 202.63C550.413 204.04 552.303 204.67 556.023 204.67C559.743 204.67 561.633 204.04 561.633 202.63C561.633 201.25 559.743 200.62 556.023 200.62ZM556.083 180.28C562.203 180.28 566.133 182.32 566.133 185.65C566.133 188.95 562.203 190.93 556.083 190.93C549.933 190.93 546.033 188.95 546.033 185.65C546.033 182.32 549.933 180.28 556.083 180.28ZM556.083 183.34C552.273 183.34 550.143 184.09 550.143 185.65C550.143 187.18 552.273 187.93 556.083 187.93C559.893 187.93 562.023 187.18 562.023 185.65C562.023 184.09 559.893 183.34 556.083 183.34ZM583.65 181.93C589.29 181.93 593.49 184.93 593.49 189.43C593.49 193.96 589.29 196.93 583.65 196.93C578.01 196.93 573.78 193.96 573.78 189.43C573.78 184.93 578.01 181.93 583.65 181.93ZM583.65 183.97C579.36 183.97 576.18 186.16 576.18 189.43C576.18 192.67 579.36 194.89 583.65 194.89C587.94 194.89 591.12 192.67 591.12 189.43C591.12 186.16 587.94 183.97 583.65 183.97ZM571.41 201.67H595.98V203.77H571.41V201.67ZM599.008 201.94H623.578V204.01H599.008V201.94ZM609.988 196.12H612.478V202.81H609.988V196.12ZM601.978 182.23H620.548V190.45H604.528V195.88H602.068V188.44H618.088V184.24H601.978V182.23ZM602.068 194.83H621.178V196.87H602.068V194.83ZM641.943 182.98H643.983V185.17C643.983 190.12 640.923 194.35 636.393 196.03L635.103 194.05C639.153 192.61 641.943 189.01 641.943 185.17V182.98ZM642.423 182.98H644.433V185.17C644.433 188.65 647.073 192.04 651.003 193.42L649.743 195.4C645.333 193.78 642.423 189.7 642.423 185.17V182.98ZM649.533 187.27H655.563V189.34H649.533V187.27ZM635.883 182.08H650.373V184.09H635.883V182.08ZM639.243 197.92H657.333V207.34H654.843V199.96H639.243V197.92ZM654.843 180.22H657.333V196.45H654.843V180.22ZM677.101 186.25H684.091V188.29H677.101V186.25ZM669.481 182.53H671.521V184.33C671.521 188.89 668.461 193 663.931 194.53L662.731 192.58C666.691 191.23 669.481 187.81 669.481 184.33V182.53ZM669.961 182.53H672.001V184.36C672.001 187.6 674.641 190.72 678.541 191.95L677.341 193.9C672.901 192.46 669.961 188.68 669.961 184.36V182.53ZM663.481 181.6H677.971V183.64H663.481V181.6ZM682.441 180.22H684.931V194.2H682.441V180.22ZM667.471 195.58H684.931V202.09H669.961V206.29H667.531V200.23H682.471V197.56H667.471V195.58ZM667.531 205.06H685.921V207.04H667.531V205.06ZM708.778 180.22H711.268V195.97H708.778V180.22ZM710.188 187.12H715.288V189.22H710.188V187.12ZM694.228 197.17H696.658V200.05H708.808V197.17H711.268V206.98H694.228V197.17ZM696.658 201.97V204.97H708.808V201.97H696.658ZM690.298 182.98H706.318V185.02H690.298V182.98ZM698.308 186.25C702.178 186.25 704.788 188.14 704.788 191.02C704.788 193.9 702.178 195.79 698.308 195.79C694.408 195.79 691.798 193.9 691.798 191.02C691.798 188.14 694.408 186.25 698.308 186.25ZM698.308 188.14C695.818 188.14 694.168 189.28 694.168 191.02C694.168 192.76 695.818 193.9 698.308 193.9C700.738 193.9 702.418 192.76 702.418 191.02C702.418 189.28 700.738 188.14 698.308 188.14ZM697.048 179.95H699.538V184.09H697.048V179.95ZM737.546 180.22H740.036V207.34H737.546V180.22ZM719.546 182.86H722.006V199.66H719.546V182.86ZM719.546 198.19H721.766C725.876 198.19 730.166 197.89 734.756 196.93L735.056 199.06C730.346 200.02 726.056 200.35 721.766 200.35H719.546V198.19ZM763.764 180.19H766.284V207.37H763.764V180.19ZM765.684 190.9H770.724V193H765.684V190.9ZM746.574 198.52H748.704C753.714 198.52 757.224 198.34 761.274 197.59L761.544 199.69C757.374 200.47 753.804 200.62 748.704 200.62H746.574V198.52ZM746.574 182.83H759.174V184.87H749.034V199.45H746.574V182.83ZM775.665 205.17C775.139 205.17 774.688 204.982 774.312 204.606C773.935 204.229 773.747 203.778 773.747 203.253C773.747 202.727 773.935 202.276 774.312 201.9C774.688 201.523 775.139 201.335 775.665 201.335C776.19 201.335 776.641 201.523 777.018 201.9C777.394 202.276 777.582 202.727 777.582 203.253C777.582 203.601 777.494 203.92 777.316 204.212C777.146 204.503 776.915 204.737 776.624 204.915C776.339 205.085 776.02 205.17 775.665 205.17Z" fill="#2E2E2E"/>
<path d="M69.883 18.9751V12.6364H99.748V18.9751H88.6152V49H81.0158V18.9751H69.883ZM112.088 12.6364V49H104.524V12.6364H112.088ZM125.924 49.5149C124.184 49.5149 122.634 49.2131 121.272 48.6094C119.911 47.9938 118.834 47.0883 118.041 45.8928C117.26 44.6854 116.869 43.1821 116.869 41.3828C116.869 39.8677 117.147 38.5952 117.703 37.5653C118.26 36.5355 119.017 35.7069 119.976 35.0795C120.935 34.4522 122.024 33.9787 123.243 33.6591C124.474 33.3395 125.765 33.1146 127.114 32.9844C128.7 32.8187 129.979 32.6648 130.949 32.5227C131.92 32.3688 132.624 32.1439 133.062 31.848C133.5 31.5521 133.719 31.1141 133.719 30.5341V30.4276C133.719 29.303 133.364 28.433 132.654 27.8175C131.955 27.2019 130.961 26.8942 129.671 26.8942C128.31 26.8942 127.226 27.196 126.422 27.7997C125.617 28.3916 125.084 29.1373 124.824 30.0369L117.828 29.4688C118.183 27.8116 118.881 26.3793 119.923 25.1719C120.965 23.9527 122.308 23.0175 123.953 22.3665C125.611 21.7036 127.528 21.3722 129.706 21.3722C131.221 21.3722 132.672 21.5497 134.056 21.9048C135.453 22.2599 136.69 22.8104 137.767 23.5561C138.856 24.3018 139.715 25.2607 140.342 26.4325C140.969 27.5926 141.283 28.9834 141.283 30.6051V49H134.11V45.218H133.897C133.459 46.0703 132.873 46.822 132.139 47.473C131.405 48.1122 130.523 48.6153 129.493 48.9822C128.463 49.3374 127.274 49.5149 125.924 49.5149ZM128.091 44.2947C129.203 44.2947 130.186 44.0758 131.038 43.6378C131.89 43.188 132.559 42.5843 133.044 41.8267C133.53 41.0691 133.772 40.2109 133.772 39.2521V36.358C133.536 36.5118 133.21 36.6539 132.796 36.7841C132.393 36.9025 131.938 37.0149 131.429 37.1214C130.92 37.2161 130.411 37.3049 129.902 37.3878C129.393 37.4588 128.931 37.5239 128.517 37.5831C127.629 37.7133 126.854 37.9205 126.191 38.2045C125.528 38.4886 125.013 38.8733 124.646 39.3587C124.279 39.8321 124.096 40.424 124.096 41.1342C124.096 42.1641 124.468 42.9512 125.214 43.4957C125.972 44.0284 126.931 44.2947 128.091 44.2947ZM147.293 49V12.6364H154.857V26.3082H155.088C155.42 25.5743 155.899 24.8286 156.526 24.071C157.165 23.3016 157.994 22.6624 159.012 22.1534C160.042 21.6326 161.32 21.3722 162.847 21.3722C164.836 21.3722 166.671 21.893 168.352 22.9347C170.032 23.9645 171.376 25.5211 172.382 27.6044C173.388 29.6759 173.891 32.2741 173.891 35.3991C173.891 38.4413 173.4 41.0099 172.418 43.1051C171.447 45.1884 170.121 46.7687 168.44 47.8459C166.771 48.9112 164.901 49.4439 162.83 49.4439C161.362 49.4439 160.113 49.2012 159.083 48.7159C158.065 48.2306 157.231 47.621 156.58 46.8871C155.929 46.1413 155.431 45.3897 155.088 44.6321H154.751V49H147.293ZM154.697 35.3636C154.697 36.9853 154.922 38.3999 155.372 39.6072C155.822 40.8146 156.473 41.7557 157.325 42.4304C158.178 43.0933 159.213 43.4247 160.433 43.4247C161.664 43.4247 162.705 43.0874 163.558 42.4126C164.41 41.7261 165.055 40.7791 165.493 39.5717C165.943 38.3525 166.168 36.9498 166.168 35.3636C166.168 33.7893 165.949 32.4044 165.511 31.2088C165.073 30.0133 164.428 29.0781 163.575 28.4034C162.723 27.7287 161.675 27.3913 160.433 27.3913C159.201 27.3913 158.16 27.7169 157.308 28.3679C156.467 29.0189 155.822 29.9422 155.372 31.1378C154.922 32.3333 154.697 33.742 154.697 35.3636ZM180.12 36.95H183.87C192.07 36.95 197.42 36.75 203.42 35.65L204.07 41C197.87 42.15 192.32 42.4 183.87 42.4H180.12V36.95ZM180.12 11.25H201.07V16.55H186.77V39H180.12V11.25ZM210.17 7.15H216.82V53.6H210.17V7.15ZM198.82 23.1H212.97V28.5H198.82V23.1ZM229.066 8.75H258.416V13.95H229.066V8.75ZM254.416 8.75H260.966V12.85C260.966 16.9 260.966 21.25 259.766 26.7L253.216 26.1C254.416 20.75 254.416 16.85 254.416 12.85V8.75ZM256.416 16.55V21.1L228.516 22.2L227.766 17.15L256.416 16.55ZM224.016 25H265.716V30.2H224.016V25ZM228.516 32.9H261.216V45.15H235.166V50.15H228.566V40.45H254.616V37.9H228.516V32.9ZM228.566 47.9H262.766V52.95H228.566V47.9ZM271.162 37.75H274.412C279.912 37.75 284.762 37.65 290.462 36.75L290.962 42.1C285.062 43.1 280.062 43.25 274.412 43.25H271.162V37.75ZM271.112 11.65H288.662V29.55H277.612V39.75H271.162V24.3H282.212V16.95H271.112V11.65ZM303.362 7.15H309.662V53.45H303.362V7.15ZM297.162 24.65H304.862V29.95H297.162V24.65ZM293.012 7.95H299.162V51.25H293.012V7.95ZM326.758 9.25H332.258V13.7C332.258 22.45 328.008 30.4 318.958 33.3L315.708 28.05C323.508 25.55 326.758 19.55 326.758 13.7V9.25ZM328.108 9.25H333.558V13.7C333.558 19.4 336.758 25 344.308 27.3L341.058 32.5C332.208 29.7 328.108 22.3 328.108 13.7V9.25ZM322.808 36.8H354.408V53.45H347.708V42.1H322.808V36.8ZM347.708 7.15H354.408V34.75H347.708V7.15ZM393.654 7.1H400.354V53.55H393.654V7.1ZM375.404 10.35C382.404 10.35 387.554 16.75 387.554 26.85C387.554 37.05 382.404 43.45 375.404 43.45C368.404 43.45 363.254 37.05 363.254 26.85C363.254 16.75 368.404 10.35 375.404 10.35ZM375.404 16.4C371.954 16.4 369.604 20.05 369.604 26.85C369.604 33.75 371.954 37.45 375.404 37.45C378.854 37.45 381.154 33.75 381.154 26.85C381.154 20.05 378.854 16.4 375.404 16.4ZM409.45 25.35H412.65C419.35 25.35 423.65 25.2 428.75 24.35L429.35 29.4C424.05 30.35 419.55 30.5 412.65 30.5H409.45V25.35ZM409.45 9.35H427.7V14.45H415.85V28.35H409.45V9.35ZM413.95 17.3H427.2V22.15H413.95V17.3ZM441.05 7.2H447.35V31.6H441.05V7.2ZM435.35 16.5H442.75V21.75H435.35V16.5ZM431.15 7.85H437.35V31.3H431.15V7.85ZM415.9 33.25H447.35V45.5H422.55V51.25H415.95V40.8H440.85V38.3H415.9V33.25ZM415.95 48.1H448.65V53.15H415.95V48.1ZM485.696 7.15H492.396V35.6H485.696V7.15ZM460.796 37.6H492.396V53.45H485.696V42.95H460.796V37.6ZM456.296 28.35H460.346C469.346 28.35 475.196 28.15 481.896 27.1L482.646 32.35C475.746 33.55 469.596 33.7 460.346 33.7H456.296V28.35ZM456.246 9.7H477.546V23.95H462.846V30.85H456.296V19H470.996V15H456.246V9.7Z" fill="#353434"/>
<rect x="264" y="374" width="248" height="24" rx="12" fill="#FFCA63"/>
<rect x="264" y="427" width="349" height="24" rx="12" fill="#FFCA63"/>
<rect x="264" y="480" width="448" height="24" rx="12" fill="#FFCA63"/>
<rect x="264" y="532" width="543" height="24" rx="12" fill="#FFCA63"/>
<defs>
<filter id="filter0_f_236_337" x="0" y="5" width="56" height="56" filterUnits="userSpaceOnUse" color-interpolation-filters="sRGB">
<feFlood flood-opacity="0" result="BackgroundImageFix"/>
<feBlend mode="normal" in="SourceGraphic" in2="BackgroundImageFix" result="shape"/>
<feGaussianBlur stdDeviation="2" result="effect1_foregroundBlur_236_337"/>
</filter>
</defs>
</svg>
