<svg width="870" height="899" viewBox="0 0 870 899" fill="none" xmlns="http://www.w3.org/2000/svg">
<g filter="url(#filter0_f_236_387)">
<circle cx="28" cy="33" r="24" fill="#C8C8C8" fill-opacity="0.8"/>
</g>
<circle cx="28.5" cy="34.5" r="14.5" fill="#2E2E2E" fill-opacity="0.8"/>
<circle cx="28.5" cy="320.5" r="12.5" stroke="black" stroke-opacity="0.5" stroke-width="4"/>
<circle cx="28.5" cy="627.5" r="12.5" stroke="black" stroke-opacity="0.5" stroke-width="4"/>
<line x1="30" y1="72" x2="30" y2="277" stroke="black" stroke-opacity="0.5" stroke-width="4"/>
<line x1="30" y1="366" x2="30" y2="585" stroke="black" stroke-opacity="0.5" stroke-width="4"/>
<line x1="30" y1="667" x2="30" y2="899" stroke="black" stroke-opacity="0.5" stroke-width="4"/>
<path d="M103.672 295.15H110.022V341.45H103.672V295.15ZM98.1217 312.8H105.772V318.15H98.1217V312.8ZM93.5217 295.85H99.7717V339.35H93.5217V295.85ZM71.5217 299.9H89.8217V329.9H71.5217V299.9ZM83.6217 305.1H77.7217V324.7H83.6217V305.1ZM117.968 317.2H121.518C130.118 317.2 134.618 317.05 139.868 316.1L140.518 321.35C135.118 322.35 130.368 322.5 121.518 322.5H117.968V317.2ZM117.918 297.8H138.268V312.4H124.568V320.7H117.968V307.45H131.668V303.05H117.918V297.8ZM148.318 295.2H154.968V323.7H148.318V295.2ZM140.918 301.55H149.518V306.85H140.918V301.55ZM140.918 311.4H149.518V316.7H140.918V311.4ZM123.268 325.8H154.968V341.5H148.318V331.1H123.268V325.8ZM198.286 307.7H207.036V313.1H198.286V307.7ZM180.986 325.15H212.536V341.5H205.886V330.5H180.986V325.15ZM205.886 295.15H212.536V323.15H205.886V295.15ZM184.186 303.7H189.536V305.35C189.536 313.5 185.436 320.7 176.586 323.25L173.486 318.1C180.936 315.9 184.186 310.6 184.186 305.35V303.7ZM185.436 303.7H190.836V305.35C190.836 310.25 194.086 315.3 201.536 317.3L198.536 322.5C189.636 320.05 185.436 313.1 185.436 305.35V303.7ZM175.086 299.95H199.936V305.15H175.086V299.95ZM184.186 295H190.836V302.2H184.186V295ZM224.682 315.8H257.232V321.1H224.682V315.8ZM219.832 330.8H261.732V336.25H219.832V330.8ZM237.382 318.2H244.032V332.55H237.382V318.2ZM224.682 298.3H256.882V303.65H231.332V318.1H224.682V298.3Z" fill="#353434"/>
<path d="M92.5572 627.95H109.207V633.25H92.5572V627.95ZM70.2072 643.7H112.107V649.15H70.2072V643.7ZM87.7072 635.2H94.3072V646.15H87.7072V635.2ZM92.5572 611.9H108.957V617.25H99.2072V630.65H92.5572V611.9ZM73.3572 611.95H89.7072V617.25H80.0072V630.2H73.3572V611.95ZM73.3572 627.8H76.3072C81.6572 627.8 85.5072 627.65 90.0072 626.75L90.4572 632.2C85.8572 633.1 81.8572 633.25 76.3072 633.25H73.3572V627.8ZM157.326 608.1H164.026V654.55H157.326V608.1ZM162.526 625.25H170.726V630.7H162.526V625.25ZM129.526 637.9H133.426C141.226 637.9 147.376 637.65 154.176 636.45L154.826 641.95C147.826 643.2 141.476 643.4 133.426 643.4H129.526V637.9ZM129.526 612.4H151.126V617.75H136.126V640.55H129.526V612.4ZM173.722 633.15H215.672V638.45H173.722V633.15ZM178.972 648.35H211.622V653.65H178.972V648.35ZM178.972 641H185.622V650.65H178.972V641ZM178.872 609.2H210.572V622.05H185.522V626.85H178.922V617.35H204.022V614.25H178.872V609.2ZM178.922 625.3H211.472V630.3H178.922V625.3ZM264.44 608.15H270.74V637.15H264.44V608.15ZM258.79 619.55H266.19V624.95H258.79V619.55ZM254.84 609.05H261.04V635.65H254.84V609.05ZM231.09 612.9H253.54V618H231.09V612.9ZM242.39 619.5C248.19 619.5 252.39 622.8 252.39 627.6C252.39 632.4 248.19 635.65 242.39 635.65C236.59 635.65 232.39 632.4 232.39 627.6C232.39 622.8 236.59 619.5 242.39 619.5ZM242.39 624.25C239.94 624.25 238.29 625.45 238.29 627.6C238.29 629.75 239.94 630.95 242.39 630.95C244.79 630.95 246.44 629.75 246.44 627.6C246.44 625.45 244.79 624.25 242.39 624.25ZM239.04 608.6H245.59V616.4H239.04V608.6ZM255.09 637.65C264.99 637.65 270.99 640.65 270.99 646.05C270.99 651.4 264.99 654.45 255.09 654.45C245.14 654.45 239.14 651.4 239.14 646.05C239.14 640.65 245.14 637.65 255.09 637.65ZM255.09 642.6C248.89 642.6 245.79 643.65 245.79 646.05C245.79 648.4 248.89 649.5 255.09 649.5C261.24 649.5 264.34 648.4 264.34 646.05C264.34 643.65 261.24 642.6 255.09 642.6ZM287.686 611.7H293.086V618.45C293.086 629.9 289.086 640.65 280.336 644.95L276.336 639.6C284.136 635.95 287.686 627.05 287.686 618.45V611.7ZM289.036 611.7H294.336V618.45C294.336 626.75 297.636 635.2 305.036 638.8L301.036 644.1C292.686 639.85 289.036 629.55 289.036 618.45V611.7ZM306.886 608.15H313.586V654.45H306.886V608.15ZM312.086 625.95H320.286V631.5H312.086V625.95ZM332.682 623.65H339.332V632.15H332.682V623.65ZM348.982 623.65H355.582V632.15H348.982V623.65ZM323.282 630.1H365.132V635.35H323.282V630.1ZM344.132 637.7C354.132 637.7 360.182 640.7 360.182 646.05C360.182 651.45 354.132 654.45 344.132 654.45C334.082 654.45 328.032 651.45 328.032 646.05C328.032 640.7 334.082 637.7 344.132 637.7ZM344.132 642.7C337.932 642.7 334.782 643.75 334.782 646.05C334.782 648.4 337.932 649.45 344.132 649.45C350.332 649.45 353.482 648.4 353.482 646.05C353.482 643.75 350.332 642.7 344.132 642.7ZM344.232 608.8C354.432 608.8 360.982 612.2 360.982 617.75C360.982 623.25 354.432 626.55 344.232 626.55C333.982 626.55 327.482 623.25 327.482 617.75C327.482 612.2 333.982 608.8 344.232 608.8ZM344.232 613.9C337.882 613.9 334.332 615.15 334.332 617.75C334.332 620.3 337.882 621.55 344.232 621.55C350.582 621.55 354.132 620.3 354.132 617.75C354.132 615.15 350.582 613.9 344.232 613.9ZM384.501 609.85H419.001V615.1H384.501V609.85ZM384.851 622.95H418.651V628.15H384.851V622.95ZM390.401 611.9H397.051V625.65H390.401V611.9ZM406.451 611.9H413.101V625.65H406.451V611.9ZM380.851 632.35H422.701V637.6H380.851V632.35ZM398.401 626.45H405.051V635.45H398.401V626.45ZM385.901 648.35H418.001V653.65H385.901V648.35ZM385.901 640.55H392.551V650.25H385.901V640.55ZM431.797 632H464.347V637.2H431.797V632ZM426.897 643.75H468.797V649.15H426.897V643.75ZM431.797 611.5H463.947V616.85H438.547V633.45H431.797V611.5ZM436.497 621.7H462.897V626.85H436.497V621.7Z" fill="#353434"/>
<rect x="309" y="703" width="249" height="81" rx="17" fill="#EFEFEF" fill-opacity="0.8"/>
<rect x="572" y="703" width="249" height="81" rx="17" fill="#EFEFEF" fill-opacity="0.8"/>
<rect x="46" y="703" width="249" height="81" rx="17" fill="#EFEFEF" fill-opacity="0.8"/>
<path d="M87.625 754.85C86.775 754.85 86.2 754.275 86.2 753.325C86.2 752.525 86.75 749.3 86.75 745.25C86.75 739.925 86.35 737.925 86.35 736.8C86.35 735.775 86.875 735.375 87.6 735.375C88.7 735.375 91.75 735.85 93.35 735.925C98.95 736.2 102.325 739.375 102.325 747.15C102.325 751.85 100.2 754.525 93.95 754.525C92.275 754.525 90.875 754.35 89.7 753.925C89.075 754.55 88.425 754.85 87.625 754.85ZM92.05 749.775L93.825 749.85C96.025 749.925 96.8 748.4 96.8 745.375C96.8 742.35 95.6 740.475 93.35 740.475C92.95 740.45 92.575 740.45 92.25 740.45C92.4 741.975 92.5 743.5 92.5 744.8C92.5 746.9 92.35 748.5 92.05 749.775ZM109.805 754.525C106.405 754.525 104.255 752.525 104.255 747.95C104.255 742.5 107.33 739.425 111.68 739.425C113.255 739.425 114.33 740.1 114.705 740.75C114.905 739.775 115.13 739.4 116.78 739.4C117.405 739.4 117.98 739.475 118.33 739.525C119.655 739.7 119.755 740.2 119.755 741.75C119.755 743.55 119.63 747.65 119.53 749.75C119.555 750.1 119.73 750.225 120.055 750.225C120.33 750.225 120.83 749.975 121.155 749.65C120.93 752.075 118.505 754.375 116.08 754.375C114.855 754.375 114.13 754.05 113.68 753.35C112.73 754.075 111.43 754.525 109.805 754.525ZM109.305 746.625C109.305 748.975 110.78 750.325 112.03 750.325C112.38 750.325 113.13 750.3 113.33 750.175C113.48 749.15 113.705 746.075 113.705 745.8C113.705 744.025 112.855 743.175 111.58 743.175C110.505 743.175 109.305 744.55 109.305 746.625ZM125.501 754.85C123.576 754.85 122.601 753.975 122.601 751.85C122.601 751.075 123.126 749.3 123.151 745.25C123.151 744.225 123.101 742.575 123.101 741.425C123.101 740.425 123.551 740 124.376 740C125.176 740 126.451 740.175 126.926 740.25C127.976 740.4 128.301 740.675 128.476 741.8C128.626 742.75 128.976 748.15 128.976 749.625C128.976 750.25 129.176 750.45 129.576 750.45C129.851 750.45 130.326 750.225 130.626 749.9C130.626 751.525 128.626 754.85 125.501 754.85ZM122.201 736.125C122.201 734.275 123.701 733.275 126.051 733.275C128.501 733.275 129.501 734.175 129.501 735.75C129.501 737.625 128.176 738.325 125.826 738.325C123.476 738.325 122.201 737.5 122.201 736.125ZM133.719 754.85C132.869 754.85 132.294 754.275 132.294 753.325C132.294 752.525 132.844 749.3 132.844 745.25C132.844 744.225 132.794 741.45 132.794 740.7C132.819 739.7 133.244 739.275 134.069 739.275C134.869 739.275 136.144 739.45 136.619 739.525C136.994 739.575 137.294 739.65 137.519 739.775C138.144 739.575 139.444 739.4 140.194 739.4C144.844 739.4 147.244 741.025 147.569 745.15C147.719 746.9 147.844 749.05 147.844 749.775C147.844 750.05 148.094 750.225 148.394 750.225C148.694 750.225 149.169 749.975 149.444 749.65C149.444 751.275 147.444 754.6 144.319 754.6C142.394 754.6 141.419 753.725 141.419 751.6C141.419 750.825 141.994 749.4 141.994 745.325C141.994 743.675 141.069 743.025 140.219 743.025C138.919 743.025 138.419 743.7 138.419 746.05C138.419 748.125 138.619 750.375 138.619 751C138.619 752.675 138.394 753.725 137.519 754.2C136.919 754.525 134.294 754.85 133.719 754.85ZM163.49 756.4C162.365 756.4 159.94 756.15 158.565 755.95C156.915 755.7 156.34 755.1 156.34 753.75C156.34 752.7 156.94 749.825 156.94 744.375C156.94 738.4 156.34 736.425 156.34 735.275C156.34 734.075 157.19 733.675 158.315 733.675C160.915 733.675 161.515 734.425 161.665 736.725C161.69 737.125 161.74 738.825 161.765 740.65C162.99 740.725 164.215 740.725 165.415 740.65C165.415 739.2 165.365 737.8 165.315 737.1C165.115 734.75 165.39 734.075 167.34 734.075C169.29 734.075 169.915 734.25 170.19 735.975C170.39 737.3 170.54 738.9 170.64 740.55C170.765 740.525 170.89 740.525 171.015 740.525L173.315 740.575C173.215 738.95 173.065 737.325 172.865 736C172.665 734.525 172.915 734.05 173.99 733.85C174.94 733.7 176.14 733.575 176.59 733.575C177.74 733.575 178.39 734.1 178.615 735.45C179.015 738.05 179.215 741.7 179.215 744.375C179.215 748.925 177.74 752.175 175.14 754.175C173.04 755.775 170.515 754.725 171.515 752.9C172.54 751.1 173.365 748.1 173.465 745.45C172.59 745.45 171.79 745.4 171.315 745.375C171.115 745.35 170.94 745.35 170.79 745.3C170.715 752.075 167.465 756.4 163.49 756.4ZM161.665 750.275C161.665 751.075 161.815 751.425 162.215 751.575C162.565 751.7 163.24 751.8 163.69 751.85C164.815 750.925 165.44 748.65 165.465 745.275C164.24 745.375 163.04 745.375 161.815 745.3C161.79 747.4 161.665 749.7 161.665 750.275ZM190.665 740.75C188.69 740.75 187.115 740.675 185.665 740.4C182.59 739.85 182.14 739.4 182.14 738.2C182.14 737.6 181.815 736.2 181.815 735.15C181.815 733.95 182.665 733.55 183.815 733.55C187.565 733.55 188.39 734.125 188.39 735.075C188.39 735.55 188.265 736.075 188.265 736.5C188.265 737.125 188.515 737.375 189.765 737.375C189.965 737.375 190.215 737.375 190.465 737.35C192.74 734.75 195.64 733 199.29 733C202.59 733 203.74 734.2 203.74 736.475C203.74 737.85 202.765 739.225 200.315 739.75C197.565 740.325 193.765 740.75 190.665 740.75ZM180.59 753.3C180.59 751.35 182.515 750.175 187.765 750.175C190.715 750.175 192.615 750.75 194.165 751.375C196.39 750.475 198.215 749.55 198.215 749.25C198.215 749.1 198.09 749.025 197.765 749.025C197.315 749.025 195.165 749.375 192.665 749.375C191.24 749.375 188.565 749.325 187.415 749.25C182.215 748.925 181.84 748.6 181.715 747.9C181.665 747.625 181.69 747.15 181.79 746.875C182.04 746.225 182.54 746.025 183.815 746.05C184.915 746.075 186.44 746.5 192.59 746.5C196.89 746.5 201.265 746 202.265 746C203.19 746 204.115 746.2 204.115 748.075C204.115 749.55 201.99 751.375 198.99 752.95C199.165 752.975 199.34 752.975 199.515 752.975C200.79 752.975 202.465 752.425 203.565 751.875C203.64 751.85 203.665 751.925 203.665 751.975C203.665 755 202.49 756.275 199.015 756.275C196.865 756.275 195.19 755.775 193.765 755.125C191.19 755.95 188.49 756.475 186.115 756.475C182.165 756.475 180.59 755.5 180.59 753.3ZM181.465 742.925C181.465 741.4 181.965 740.95 183.24 741.35C185.415 742.025 188.115 742.325 190.49 742.325C193.59 742.325 197.865 741.85 202.365 740.875C203.99 740.525 204.465 740.725 204.465 742.875C204.465 743.725 204.09 744.05 203.14 744.225C199.465 744.925 196.115 745.25 191.69 745.25C189.09 745.25 185.615 745.125 183.34 744.85C181.915 744.675 181.465 744.225 181.465 742.925ZM184.54 752.675C184.54 753.025 185.24 753.475 186.915 753.475C187.615 753.475 188.715 753.25 189.965 752.875C188.915 752.225 187.965 751.75 186.89 751.75C185.015 751.75 184.54 752.2 184.54 752.675ZM192.165 737.3C192.99 737.25 193.865 737.175 194.74 737.075C198.24 736.75 199.165 736.175 199.165 735.4C199.165 734.975 198.865 734.725 198.215 734.725C196.59 734.725 194.29 735.4 192.165 737.3ZM213.49 756.4C212.365 756.4 209.94 756.15 208.565 755.95C206.915 755.7 206.34 755.1 206.34 753.75C206.34 752.7 206.94 749.825 206.94 744.375C206.94 738.4 206.34 736.425 206.34 735.275C206.34 734.075 207.19 733.675 208.315 733.675C210.915 733.675 211.515 734.425 211.665 736.725C211.69 737.125 211.74 738.825 211.765 740.65C212.99 740.725 214.215 740.725 215.415 740.65C215.415 739.2 215.365 737.8 215.315 737.1C215.115 734.75 215.39 734.075 217.34 734.075C219.29 734.075 219.915 734.25 220.19 735.975C220.39 737.3 220.54 738.9 220.64 740.55C220.765 740.525 220.89 740.525 221.015 740.525L223.315 740.575C223.215 738.95 223.065 737.325 222.865 736C222.665 734.525 222.915 734.05 223.99 733.85C224.94 733.7 226.14 733.575 226.59 733.575C227.74 733.575 228.39 734.1 228.615 735.45C229.015 738.05 229.215 741.7 229.215 744.375C229.215 748.925 227.74 752.175 225.14 754.175C223.04 755.775 220.515 754.725 221.515 752.9C222.54 751.1 223.365 748.1 223.465 745.45C222.59 745.45 221.79 745.4 221.315 745.375C221.115 745.35 220.94 745.35 220.79 745.3C220.715 752.075 217.465 756.4 213.49 756.4ZM211.665 750.275C211.665 751.075 211.815 751.425 212.215 751.575C212.565 751.7 213.24 751.8 213.69 751.85C214.815 750.925 215.44 748.65 215.465 745.275C214.24 745.375 213.04 745.375 211.815 745.3C211.79 747.4 211.665 749.7 211.665 750.275ZM240.665 740.75C238.69 740.75 237.115 740.675 235.665 740.4C232.59 739.85 232.14 739.4 232.14 738.2C232.14 737.6 231.815 736.2 231.815 735.15C231.815 733.95 232.665 733.55 233.815 733.55C237.565 733.55 238.39 734.125 238.39 735.075C238.39 735.55 238.265 736.075 238.265 736.5C238.265 737.125 238.515 737.375 239.765 737.375C239.965 737.375 240.215 737.375 240.465 737.35C242.74 734.75 245.64 733 249.29 733C252.59 733 253.74 734.2 253.74 736.475C253.74 737.85 252.765 739.225 250.315 739.75C247.565 740.325 243.765 740.75 240.665 740.75ZM230.59 753.3C230.59 751.35 232.515 750.175 237.765 750.175C240.715 750.175 242.615 750.75 244.165 751.375C246.39 750.475 248.215 749.55 248.215 749.25C248.215 749.1 248.09 749.025 247.765 749.025C247.315 749.025 245.165 749.375 242.665 749.375C241.24 749.375 238.565 749.325 237.415 749.25C232.215 748.925 231.84 748.6 231.715 747.9C231.665 747.625 231.69 747.15 231.79 746.875C232.04 746.225 232.54 746.025 233.815 746.05C234.915 746.075 236.44 746.5 242.59 746.5C246.89 746.5 251.265 746 252.265 746C253.19 746 254.115 746.2 254.115 748.075C254.115 749.55 251.99 751.375 248.99 752.95C249.165 752.975 249.34 752.975 249.515 752.975C250.79 752.975 252.465 752.425 253.565 751.875C253.64 751.85 253.665 751.925 253.665 751.975C253.665 755 252.49 756.275 249.015 756.275C246.865 756.275 245.19 755.775 243.765 755.125C241.19 755.95 238.49 756.475 236.115 756.475C232.165 756.475 230.59 755.5 230.59 753.3ZM231.465 742.925C231.465 741.4 231.965 740.95 233.24 741.35C235.415 742.025 238.115 742.325 240.49 742.325C243.59 742.325 247.865 741.85 252.365 740.875C253.99 740.525 254.465 740.725 254.465 742.875C254.465 743.725 254.09 744.05 253.14 744.225C249.465 744.925 246.115 745.25 241.69 745.25C239.09 745.25 235.615 745.125 233.34 744.85C231.915 744.675 231.465 744.225 231.465 742.925ZM234.54 752.675C234.54 753.025 235.24 753.475 236.915 753.475C237.615 753.475 238.715 753.25 239.965 752.875C238.915 752.225 237.965 751.75 236.89 751.75C235.015 751.75 234.54 752.2 234.54 752.675ZM242.165 737.3C242.99 737.25 243.865 737.175 244.74 737.075C248.24 736.75 249.165 736.175 249.165 735.4C249.165 734.975 248.865 734.725 248.215 734.725C246.59 734.725 244.29 735.4 242.165 737.3Z" fill="#2E2E2E"/>
<path d="M399.375 732.925V756.15H393.875V732.925H399.375ZM381.575 733.05H387.15L385.1 744.95L393 749.85V756.025L384.15 750.525L383.2 756.025H377.625L381.575 733.05ZM412.875 739.625V732.925H418.125V756.15H412.875V753.075L402.625 756.025V733.05H408.125V749.5L412.875 748.25V744.5H409.125V739.625H412.875ZM419.125 732.925H424.375V756.15H419.125V732.925ZM442.125 733.05V756.025H427.625V733.05H442.125ZM436.75 751.15V737.925H433V751.15H436.75ZM443.875 732.925H449.375V741.55H451.5V746.425H449.375V756.15H443.875V732.925ZM452.625 747.325L456.825 733.05H462.45L460.775 738.725L468 741.75V747.075L459.425 743.325L458.25 747.325H452.625ZM453.3 748.075H458.8V751.65H474.375V756.15H453.3V748.075ZM468.875 732.925H474.375V738.625H476.5V743.125H474.375V749.55H468.875V732.925ZM500 756.025H477V751.15H500V756.025ZM483.4 733.05H493.6L499.725 748.9H493.825L489.575 737.925H487.425L483.175 748.9H477.275L483.4 733.05Z" fill="#2E2E2E"/>
<path d="M656 734.3V744.825L656.7 746.2H644.725L645.425 744.825V741.425H644.275C643.958 742.825 643.3 743.925 642.3 744.725C641.317 745.508 640.058 745.9 638.525 745.9C636.642 745.9 635.175 745.317 634.125 744.15C633.075 742.967 632.55 741.367 632.55 739.35C632.55 737.333 633.075 735.742 634.125 734.575C635.175 733.392 636.642 732.8 638.525 732.8C640.042 732.8 641.292 733.183 642.275 733.95C643.258 734.717 643.917 735.792 644.25 737.175H645.425V734.3L644.725 732.925H656.7L656 734.3ZM634.275 746.125L635.65 746.825H654.8L656.575 748.1L656 749.05V754.775L656.7 756.15H649.8L650.5 754.775V751.2H635.65L634.275 751.9V746.125ZM637.175 739.35C637.175 740.067 637.292 740.633 637.525 741.05C637.775 741.45 638.108 741.65 638.525 741.65C638.942 741.65 639.267 741.45 639.5 741.05C639.75 740.633 639.875 740.067 639.875 739.35C639.875 738.633 639.75 738.075 639.5 737.675C639.267 737.258 638.942 737.05 638.525 737.05C638.108 737.05 637.775 737.258 637.525 737.675C637.292 738.075 637.175 738.633 637.175 739.35ZM650.725 745.875L651.25 744.825V734.3L650.725 733.25L650.175 734.3V744.825L650.725 745.875ZM679.625 755.4H659.375L658 756.1V750.075L659.375 750.775H679.625L681 750.075V756.1L679.625 755.4ZM659.15 744.525C660.8 743.525 662.242 742.375 663.475 741.075C664.708 739.775 665.8 738.308 666.75 736.675V734.675L666.05 733.3H672.95L672.25 734.675V736.675C673.2 738.308 674.292 739.775 675.525 741.075C676.758 742.375 678.2 743.525 679.85 744.525L681.225 744.775L677.35 749.6L676.7 748.225C675.05 747.158 673.583 746 672.3 744.75C671.033 743.5 670.1 742.325 669.5 741.225C668.9 742.325 667.958 743.5 666.675 744.75C665.408 746 663.95 747.158 662.3 748.225L661.65 749.6L657.775 744.775L659.15 744.525ZM704.65 734.3V736.225H705.875L707.25 735.525V741.175L705.875 740.475H704.65V742.55L705.35 743.925H698.45L699.15 742.55V734.3L698.45 732.925H705.35L704.65 734.3ZM683.15 738.225L684.525 738.85L691.5 738.45V737.3H684.525L683.15 738V732.6L684.525 733.3H692.075L692.95 732.5L697.575 734.825L697 735.775V743.925H691.5V742.225L684.5 742.8L683.15 743.575V738.225ZM683.925 754.05V750.95L683.35 750L685.125 748.725H699.15V747.925H685.025L683.925 748.425V744.05L685.025 744.55H703.45L705.225 745.825L704.65 746.775V749.75L705.225 750.7L703.45 751.975H689.425V752.775H703.275L704.65 752.075V756.85L703.275 756.15H688.85L687.975 756.95L683.35 755L683.925 754.05ZM730.625 734.3V754.775L731.325 756.15H724.425L725.125 754.775V734.3L724.425 732.925H731.325L730.625 734.3ZM708.375 752.925V744.275L707.8 743.325L712.425 741L713.3 741.8H717.15V737.925H709.75L708.375 738.625V732.6L709.75 733.3H717.725L718.6 732.5L723.225 734.825L722.65 735.775V743.95L723.225 744.9L718.6 747.225L717.725 746.425H713.875V750.775H721.275L722.65 750.075V756.1L721.275 755.4H713.3L712.425 756.2L707.8 753.875L708.375 752.925ZM755.625 734.3V754.775L756.325 756.15H749.425L750.125 754.775V746.05H746.9V752.925L747.475 753.875L742.85 756.2L741.975 755.4H738.3L737.425 756.2L732.8 753.875L733.375 752.925V734.675L732.675 733.3H739.325L738.625 734.675V740.6H741.65V734.675L740.95 733.3H747.6L746.9 734.675V741.425H750.125V734.3L749.425 732.925H756.325L755.625 734.3ZM741.65 750.9V745.1H738.625V750.9H741.65Z" fill="#2E2E2E"/>
<path d="M71.4545 676.909L71.5455 674.409L69.4318 675.75L68.8864 674.795L71.1136 673.636L68.8864 672.477L69.4318 671.523L71.5455 672.864L71.4545 670.364H72.5455L72.4545 672.864L74.5682 671.523L75.1136 672.477L72.8864 673.636L75.1136 674.795L74.5682 675.75L72.4545 674.409L72.5455 676.909H71.4545ZM84.852 669.664H85.94V671.44C85.94 674.272 84.372 676.528 81.94 677.472L81.236 676.416C83.444 675.632 84.852 673.68 84.852 671.44V669.664ZM85.076 669.664H86.164V671.488C86.164 673.456 87.604 675.312 89.716 676.064L89.06 677.104C86.676 676.24 85.076 674.032 85.076 671.488V669.664ZM91.188 668.768H92.516V679.456H91.188V668.768ZM92.1 673.216H94.66V674.32H92.1V673.216ZM83.54 681.84H93.156V682.928H83.54V681.84ZM83.54 678.448H84.868V682.368H83.54V678.448ZM101.891 673.152H103.203V675.744H101.891V673.152ZM97.7468 672.624H107.539V673.696H97.7468V672.624ZM97.7468 669.344H107.379V670.416H99.0588V673.2H97.7468V669.344ZM96.0028 675.056H109.075V676.128H96.0028V675.056ZM97.5868 677.344H107.411V680.608H98.9308V682.352H97.6188V679.632H106.099V678.368H97.5868V677.344ZM97.6188 682.048H107.843V683.088H97.6188V682.048ZM112.37 669.728H121.41V670.8H112.37V669.728ZM110.738 675.936H123.81V677.024H110.738V675.936ZM116.578 676.656H117.906V683.264H116.578V676.656ZM120.786 669.728H122.082V670.976C122.082 672.48 122.082 674.176 121.538 676.624L120.226 676.448C120.786 674.112 120.786 672.432 120.786 670.976V669.728ZM125.44 676.24H138.56V677.328H125.44V676.24ZM127.104 669.136H136.864V672.56H128.448V674.48H127.136V671.584H135.568V670.176H127.104V669.136ZM127.136 673.968H137.184V675.008H127.136V673.968ZM127.2 678.64H136.88V683.056H127.2V678.64ZM135.584 679.696H128.496V681.984H135.584V679.696ZM155.587 668.784H156.851V679.664H155.587V668.784ZM153.283 673.248H156.019V674.352H153.283V673.248ZM152.435 669.056H153.683V679.184H152.435V669.056ZM147.379 681.84H157.315V682.928H147.379V681.84ZM147.379 678.352H148.707V682.448H147.379V678.352ZM149.779 670.016H151.075C151.075 673.552 149.475 676.352 145.459 678.08L144.803 677.104C148.371 675.616 149.779 673.296 149.779 670.384V670.016ZM145.459 670.016H150.243V671.104H145.459V670.016ZM149.651 672.72V673.648L144.995 674.144L144.787 673.04L149.651 672.72ZM160.298 677.091C160.298 675.659 160.484 674.343 160.855 673.142C161.23 671.937 161.764 670.83 162.457 669.818H163.639C163.366 670.193 163.111 670.655 162.872 671.205C162.637 671.75 162.431 672.35 162.253 673.006C162.075 673.657 161.935 674.331 161.832 675.028C161.734 675.725 161.685 676.413 161.685 677.091C161.685 677.992 161.772 678.907 161.946 679.835C162.12 680.763 162.355 681.625 162.651 682.42C162.946 683.216 163.276 683.864 163.639 684.364H162.457C161.764 683.352 161.23 682.246 160.855 681.045C160.484 679.841 160.298 678.523 160.298 677.091ZM175.163 674H173.754C173.671 673.595 173.525 673.239 173.317 672.932C173.112 672.625 172.862 672.367 172.567 672.159C172.275 671.947 171.951 671.788 171.595 671.682C171.239 671.576 170.868 671.523 170.482 671.523C169.777 671.523 169.139 671.701 168.567 672.057C167.999 672.413 167.546 672.938 167.209 673.631C166.875 674.324 166.709 675.174 166.709 676.182C166.709 677.189 166.875 678.04 167.209 678.733C167.546 679.426 167.999 679.951 168.567 680.307C169.139 680.663 169.777 680.841 170.482 680.841C170.868 680.841 171.239 680.788 171.595 680.682C171.951 680.576 172.275 680.419 172.567 680.21C172.862 679.998 173.112 679.739 173.317 679.432C173.525 679.121 173.671 678.765 173.754 678.364H175.163C175.057 678.958 174.864 679.491 174.584 679.96C174.304 680.43 173.955 680.83 173.538 681.159C173.122 681.485 172.654 681.733 172.135 681.903C171.62 682.074 171.069 682.159 170.482 682.159C169.489 682.159 168.607 681.917 167.834 681.432C167.061 680.947 166.453 680.258 166.01 679.364C165.567 678.47 165.345 677.409 165.345 676.182C165.345 674.955 165.567 673.894 166.01 673C166.453 672.106 167.061 671.417 167.834 670.932C168.607 670.447 169.489 670.205 170.482 670.205C171.069 670.205 171.62 670.29 172.135 670.46C172.654 670.631 173.122 670.881 173.538 671.21C173.955 671.536 174.304 671.934 174.584 672.403C174.864 672.869 175.057 673.402 175.163 674ZM179.827 682.205C179.274 682.205 178.772 682.1 178.321 681.892C177.87 681.68 177.512 681.375 177.247 680.977C176.982 680.576 176.849 680.091 176.849 679.523C176.849 679.023 176.948 678.617 177.145 678.307C177.342 677.992 177.605 677.746 177.935 677.568C178.264 677.39 178.628 677.258 179.026 677.17C179.427 677.08 179.83 677.008 180.236 676.955C180.766 676.886 181.196 676.835 181.526 676.801C181.859 676.763 182.101 676.701 182.253 676.614C182.408 676.527 182.486 676.375 182.486 676.159V676.114C182.486 675.553 182.332 675.117 182.026 674.807C181.723 674.496 181.262 674.341 180.645 674.341C180.005 674.341 179.503 674.481 179.139 674.761C178.776 675.042 178.52 675.341 178.372 675.659L177.099 675.205C177.327 674.674 177.63 674.261 178.009 673.966C178.391 673.667 178.808 673.458 179.259 673.341C179.713 673.22 180.16 673.159 180.599 673.159C180.88 673.159 181.202 673.193 181.565 673.261C181.933 673.326 182.287 673.46 182.628 673.665C182.973 673.869 183.259 674.178 183.486 674.591C183.713 675.004 183.827 675.557 183.827 676.25V682H182.486V680.818H182.418C182.327 681.008 182.175 681.21 181.963 681.426C181.751 681.642 181.469 681.826 181.116 681.977C180.764 682.129 180.334 682.205 179.827 682.205ZM180.031 681C180.562 681 181.009 680.896 181.372 680.688C181.74 680.479 182.016 680.21 182.202 679.881C182.391 679.551 182.486 679.205 182.486 678.841V677.614C182.429 677.682 182.304 677.744 182.111 677.801C181.921 677.854 181.702 677.902 181.452 677.943C181.205 677.981 180.965 678.015 180.73 678.045C180.499 678.072 180.312 678.095 180.168 678.114C179.819 678.159 179.493 678.233 179.19 678.335C178.891 678.434 178.649 678.583 178.463 678.784C178.281 678.981 178.19 679.25 178.19 679.591C178.19 680.057 178.363 680.409 178.707 680.648C179.056 680.883 179.497 681 180.031 681ZM187.615 676.75V682H186.274V673.273H187.57V674.636H187.683C187.888 674.193 188.198 673.837 188.615 673.568C189.032 673.295 189.57 673.159 190.229 673.159C190.82 673.159 191.337 673.28 191.78 673.523C192.223 673.761 192.568 674.125 192.814 674.614C193.06 675.098 193.183 675.712 193.183 676.455V682H191.842V676.545C191.842 675.86 191.664 675.326 191.308 674.943C190.952 674.557 190.464 674.364 189.842 674.364C189.414 674.364 189.032 674.456 188.695 674.642C188.361 674.828 188.098 675.098 187.905 675.455C187.712 675.811 187.615 676.242 187.615 676.75ZM198.497 677.091C198.497 678.523 198.31 679.841 197.935 681.045C197.563 682.246 197.031 683.352 196.338 684.364H195.156C195.429 683.989 195.683 683.527 195.918 682.977C196.156 682.432 196.365 681.833 196.543 681.182C196.721 680.527 196.859 679.85 196.957 679.153C197.06 678.453 197.111 677.765 197.111 677.091C197.111 676.189 197.024 675.275 196.849 674.347C196.675 673.419 196.44 672.557 196.145 671.761C195.849 670.966 195.52 670.318 195.156 669.818H196.338C197.031 670.83 197.563 671.937 197.935 673.142C198.31 674.343 198.497 675.659 198.497 677.091ZM201.323 670.304H209.307V671.392H201.323V670.304ZM201.035 679.696L200.875 678.56C203.435 678.56 206.891 678.512 209.755 678.176L209.851 679.168C206.923 679.616 203.547 679.696 201.035 679.696ZM202.779 671.152H204.075V678.848H202.779V671.152ZM206.395 671.152H207.691V678.848H206.395V671.152ZM211.595 668.784H212.907V683.248H211.595V668.784ZM208.827 674.224H212.491V675.328H208.827V674.224ZM221.514 669.776H222.666V670.88C222.666 674.032 219.738 676.48 216.842 677.136L216.25 676.032C218.794 675.552 221.514 673.344 221.514 670.88V669.776ZM221.754 669.776H222.906V670.88C222.906 673.36 225.642 675.552 228.17 676.032L227.578 677.136C224.698 676.48 221.754 674.048 221.754 670.88V669.776ZM215.722 680.208H228.826V681.296H215.722V680.208ZM240.045 669.76H241.341C241.341 673.264 239.693 675.968 235.725 677.6L235.085 676.624C238.605 675.232 240.045 672.976 240.045 670.144V669.76ZM235.725 669.76H240.509V670.832H235.725V669.76ZM239.917 672.384V673.312L235.261 673.808L235.053 672.704L239.917 672.384ZM245.853 668.784H247.117V677.312H245.853V668.784ZM243.565 672.448H246.301V673.552H243.565V672.448ZM242.701 669.056H243.949V677.2H242.701V669.056ZM237.629 678H247.117V683.056H237.629V678ZM245.821 679.056H238.941V681.984H245.821V679.056ZM260.731 668.784H262.011V683.248H260.731V668.784ZM255.963 674.288H258.363V675.456H255.963V674.288ZM257.931 669.136H259.195V682.496H257.931V669.136ZM249.787 670.608H256.395V671.696H249.787V670.608ZM249.659 679.696L249.499 678.576C251.371 678.576 254.507 678.512 256.699 678.224L256.795 679.2C254.539 679.632 251.515 679.696 249.659 679.696ZM250.971 671.312H252.187V678.88H250.971V671.312ZM253.979 671.312H255.195V678.88H253.979V671.312ZM274.89 668.8H276.234V679.36H274.89V668.8ZM266.938 681.84H276.666V682.928H266.938V681.84ZM266.938 678.272H268.25V682.208H266.938V678.272ZM268.474 669.792C270.634 669.792 272.234 671.264 272.234 673.36C272.234 675.44 270.634 676.928 268.474 676.928C266.314 676.928 264.698 675.44 264.698 673.36C264.698 671.264 266.314 669.792 268.474 669.792ZM268.474 670.944C267.066 670.944 265.994 671.936 265.994 673.36C265.994 674.768 267.066 675.76 268.474 675.76C269.882 675.76 270.954 674.768 270.954 673.36C270.954 671.936 269.882 670.944 268.474 670.944ZM294.669 668.784H295.949V683.248H294.669V668.784ZM289.901 674.288H292.301V675.456H289.901V674.288ZM291.869 669.136H293.133V682.496H291.869V669.136ZM283.725 670.608H290.333V671.696H283.725V670.608ZM283.597 679.696L283.437 678.576C285.309 678.576 288.445 678.512 290.637 678.224L290.733 679.2C288.477 679.632 285.453 679.696 283.597 679.696ZM284.909 671.312H286.125V678.88H284.909V671.312ZM287.917 671.312H289.133V678.88H287.917V671.312ZM308.812 668.768H310.14V683.264H308.812V668.768ZM302.508 669.888C304.652 669.888 306.188 671.856 306.188 674.928C306.188 678.016 304.652 679.984 302.508 679.984C300.38 679.984 298.844 678.016 298.844 674.928C298.844 671.856 300.38 669.888 302.508 669.888ZM302.508 671.088C301.1 671.088 300.108 672.592 300.108 674.928C300.108 677.28 301.1 678.816 302.508 678.816C303.932 678.816 304.908 677.28 304.908 674.928C304.908 672.592 303.932 671.088 302.508 671.088ZM316.858 670.848H317.93V673.2C317.93 676.256 316.09 679.328 313.786 680.464L313.018 679.408C315.114 678.416 316.858 675.696 316.858 673.2V670.848ZM317.114 670.848H318.186V673.2C318.186 675.648 319.93 678.144 322.058 679.056L321.306 680.112C318.97 679.024 317.114 676.208 317.114 673.2V670.848ZM313.498 670.256H321.578V671.376H313.498V670.256ZM323.53 668.784H324.858V683.248H323.53V668.784ZM333.609 674.4H336.345V675.504H333.609V674.4ZM338.761 668.784H340.041V683.248H338.761V668.784ZM335.897 669.088H337.161V682.528H335.897V669.088ZM331.001 669.984C332.873 669.984 334.089 671.92 334.089 675.024C334.089 678.128 332.873 680.064 331.001 680.064C329.129 680.064 327.929 678.128 327.929 675.024C327.929 671.92 329.129 669.984 331.001 669.984ZM331.001 671.216C329.865 671.216 329.145 672.688 329.145 675.024C329.145 677.36 329.865 678.832 331.001 678.832C332.153 678.832 332.873 677.36 332.873 675.024C332.873 672.688 332.153 671.216 331.001 671.216ZM349.688 673.68H353.72V674.768H349.688V673.68ZM346.2 670.032H347.288V672.608C347.288 675.856 345.576 678.96 343.288 680.192L342.44 679.136C344.568 678.08 346.2 675.296 346.2 672.608V670.032ZM346.456 670.032H347.528V672.608C347.528 675.248 349.16 677.872 351.256 678.864L350.472 679.936C348.136 678.752 346.456 675.776 346.456 672.608V670.032ZM353.064 668.768H354.376V683.264H353.064V668.768ZM361.675 677.184H374.795V678.272H361.675V677.184ZM367.531 677.84H368.843V683.248H367.531V677.84ZM363.339 669.584H373.099V675.232H363.339V669.584ZM371.803 670.656H364.651V674.16H371.803V670.656ZM380.057 677.264H381.369V680.816H380.057V677.264ZM384.681 677.232H385.977V680.8H384.681V677.232ZM376.409 680.368H389.513V681.472H376.409V680.368ZM377.993 669.856H387.897V674.224H379.353V677.136H378.041V673.168H386.585V670.928H377.993V669.856ZM378.041 676.544H388.233V677.632H378.041V676.544ZM405.404 668.768H406.748V683.264H405.404V668.768ZM406.428 674.48H409.116V675.6H406.428V674.48ZM396.236 678.544H397.372C400.044 678.544 401.916 678.448 404.076 678.048L404.22 679.168C401.996 679.584 400.092 679.664 397.372 679.664H396.236V678.544ZM396.236 670.176H402.956V671.264H397.548V679.04H396.236V670.176ZM410.331 676.112H423.451V677.2H410.331V676.112ZM416.315 676.8H417.659V680.128H416.315V676.8ZM411.995 681.824H421.995V682.928H411.995V681.824ZM411.995 678.704H413.323V682.128H411.995V678.704ZM416.875 669.136C419.931 669.136 421.947 670.256 421.947 672.048C421.947 673.84 419.931 674.96 416.875 674.96C413.803 674.96 411.803 673.84 411.803 672.048C411.803 670.256 413.803 669.136 416.875 669.136ZM416.875 670.224C414.667 670.224 413.211 670.928 413.211 672.048C413.211 673.184 414.667 673.872 416.875 673.872C419.083 673.872 420.539 673.184 420.539 672.048C420.539 670.928 419.083 670.224 416.875 670.224ZM425.066 680.368H438.17V681.472H425.066V680.368ZM430.922 677.264H432.25V680.832H430.922V677.264ZM426.65 669.856H436.554V674.24H428.01V677.136H426.698V673.168H435.242V670.928H426.65V669.856ZM426.698 676.576H436.89V677.664H426.698V676.576ZM441.432 675.712H451.368V676.8H441.432V675.712ZM439.784 680.192H452.888V681.296H439.784V680.192ZM441.432 670.112H451.224V671.216H442.76V676.192H441.432V670.112ZM468.779 668.768H470.123V683.248H468.779V668.768ZM469.755 674.64H472.427V675.744H469.755V674.64ZM465.083 670.336H466.379C466.379 674.448 464.491 678.16 459.819 680.512L459.083 679.488C463.083 677.456 465.083 674.368 465.083 670.544V670.336ZM459.755 670.336H465.771V671.424H459.755V670.336ZM475.498 672.8H485.306V673.888H475.498V672.8ZM475.498 669.072H476.81V673.28H475.498V669.072ZM473.722 675.568H486.794V676.64H473.722V675.568ZM480.234 677.936C483.322 677.936 485.194 678.88 485.194 680.576C485.194 682.24 483.322 683.2 480.234 683.2C477.146 683.2 475.274 682.24 475.274 680.576C475.274 678.88 477.146 677.936 480.234 677.936ZM480.234 678.976C477.978 678.976 476.618 679.552 476.618 680.576C476.618 681.568 477.978 682.144 480.234 682.144C482.506 682.144 483.85 681.568 483.85 680.576C483.85 679.552 482.506 678.976 480.234 678.976ZM490.641 670.364L490.527 678.727H489.209L489.095 670.364H490.641ZM489.868 682.091C489.588 682.091 489.347 681.991 489.146 681.79C488.946 681.589 488.845 681.348 488.845 681.068C488.845 680.788 488.946 680.547 489.146 680.347C489.347 680.146 489.588 680.045 489.868 680.045C490.148 680.045 490.389 680.146 490.589 680.347C490.79 680.547 490.891 680.788 490.891 681.068C490.891 681.254 490.843 681.424 490.749 681.58C490.658 681.735 490.535 681.86 490.379 681.955C490.228 682.045 490.057 682.091 489.868 682.091Z" fill="#570505"/>
<line x1="870" y1="388" x2="354" y2="388" stroke="#8E8D8D" stroke-width="4"/>
<line x1="870" y1="441" x2="354" y2="441" stroke="#8E8D8D" stroke-width="4"/>
<line x1="870" y1="546" x2="354" y2="546" stroke="#8E8D8D" stroke-width="4"/>
<line x1="870" y1="495" x2="354" y2="495" stroke="#8E8D8D" stroke-width="4"/>
<path d="M70.37 390.61H72.17C75.47 390.61 78.53 390.49 82.25 389.86L82.46 391.9C78.65 392.56 75.59 392.68 72.17 392.68H70.37V390.61ZM70.31 375.19H80V384.64H72.8V391.45H70.37V382.63H77.6V377.23H70.31V375.19ZM90.11 372.22H92.51V399.34H90.11V372.22ZM81.29 381.94H85.67V384.01H81.29V381.94ZM84.65 372.88H86.96V397.93H84.65V372.88ZM97.0977 393.91H121.668V395.98H97.0977V393.91ZM108.048 386.89H110.538V394.84H108.048V386.89ZM99.2277 374.8H119.358V376.84H99.2277V374.8ZM99.2877 385.72H119.328V387.73H99.2877V385.72ZM103.458 376.45H105.948V386.08H103.458V376.45ZM112.698 376.45H115.158V386.08H112.698V376.45ZM127.845 386.83H146.475V388.84H127.845V386.83ZM124.695 393.79H149.265V395.86H124.695V393.79ZM127.845 374.53H146.175V376.57H130.365V387.46H127.845V374.53ZM129.555 380.59H145.605V382.57H129.555V380.59ZM158.323 381.4H160.783V386.53H158.323V381.4ZM168.283 381.4H170.743V386.53H168.283V381.4ZM152.263 385.63H176.773V387.64H152.263V385.63ZM164.503 389.68C170.323 389.68 173.803 391.39 173.803 394.48C173.803 397.57 170.323 399.31 164.503 399.31C158.683 399.31 155.203 397.57 155.203 394.48C155.203 391.39 158.683 389.68 164.503 389.68ZM164.503 391.6C160.273 391.6 157.723 392.65 157.723 394.48C157.723 396.34 160.273 397.36 164.503 397.36C168.763 397.36 171.283 396.34 171.283 394.48C171.283 392.65 168.763 391.6 164.503 391.6ZM164.533 372.7C170.413 372.7 174.073 374.59 174.073 377.77C174.073 380.92 170.413 382.78 164.533 382.78C158.623 382.78 154.993 380.92 154.993 377.77C154.993 374.59 158.623 372.7 164.533 372.7ZM164.533 374.65C160.213 374.65 157.543 375.79 157.543 377.77C157.543 379.72 160.213 380.86 164.533 380.86C168.853 380.86 171.523 379.72 171.523 377.77C171.523 375.79 168.853 374.65 164.533 374.65Z" fill="#878686"/>
<path d="M81.83 429.12H90.11V431.16H81.83V429.12ZM81.83 435.36H90.11V437.43H81.83V435.36ZM76.88 426.81C80.87 426.81 83.87 429.51 83.87 433.26C83.87 437.04 80.87 439.71 76.88 439.71C72.86 439.71 69.89 437.04 69.89 433.26C69.89 429.51 72.86 426.81 76.88 426.81ZM76.88 428.94C74.24 428.94 72.29 430.71 72.29 433.26C72.29 435.81 74.24 437.58 76.88 437.58C79.52 437.58 81.5 435.81 81.5 433.26C81.5 430.71 79.52 428.94 76.88 428.94ZM89.3 425.22H91.79V441.27H89.3V425.22ZM82.88 441.9C88.46 441.9 91.91 443.82 91.91 447.09C91.91 450.39 88.46 452.28 82.88 452.28C77.27 452.28 73.82 450.39 73.82 447.09C73.82 443.82 77.27 441.9 82.88 441.9ZM82.88 443.88C78.77 443.88 76.28 445.08 76.28 447.09C76.28 449.13 78.77 450.33 82.88 450.33C86.96 450.33 89.45 449.13 89.45 447.09C89.45 445.08 86.96 443.88 82.88 443.88ZM103.668 426.63H105.738V429.39C105.738 434.61 102.798 438.93 98.2677 440.7L96.9477 438.69C101.028 437.19 103.668 433.53 103.668 429.39V426.63ZM104.118 426.63H106.158V429.57C106.158 433.23 108.858 436.62 112.758 437.97L111.438 439.92C107.088 438.3 104.118 434.28 104.118 429.57V426.63ZM115.638 425.22H118.128V441.66H115.638V425.22ZM117.438 432.21H122.148V434.31H117.438V432.21ZM109.488 442.41C115.038 442.41 118.398 444.24 118.398 447.36C118.398 450.48 115.038 452.28 109.488 452.28C103.938 452.28 100.578 450.48 100.578 447.36C100.578 444.24 103.938 442.41 109.488 442.41ZM109.488 444.39C105.468 444.39 103.008 445.47 103.008 447.36C103.008 449.25 105.468 450.33 109.488 450.33C113.508 450.33 115.968 449.25 115.968 447.36C115.968 445.47 113.508 444.39 109.488 444.39ZM130.725 434.4H133.185V439.53H130.725V434.4ZM140.685 434.4H143.145V439.53H140.685V434.4ZM124.665 438.63H149.175V440.64H124.665V438.63ZM136.905 442.68C142.725 442.68 146.205 444.39 146.205 447.48C146.205 450.57 142.725 452.31 136.905 452.31C131.085 452.31 127.605 450.57 127.605 447.48C127.605 444.39 131.085 442.68 136.905 442.68ZM136.905 444.6C132.675 444.6 130.125 445.65 130.125 447.48C130.125 449.34 132.675 450.36 136.905 450.36C141.165 450.36 143.685 449.34 143.685 447.48C143.685 445.65 141.165 444.6 136.905 444.6ZM136.935 425.7C142.815 425.7 146.475 427.59 146.475 430.77C146.475 433.92 142.815 435.78 136.935 435.78C131.025 435.78 127.395 433.92 127.395 430.77C127.395 427.59 131.025 425.7 136.935 425.7ZM136.935 427.65C132.615 427.65 129.945 428.79 129.945 430.77C129.945 432.72 132.615 433.86 136.935 433.86C141.255 433.86 143.925 432.72 143.925 430.77C143.925 428.79 141.255 427.65 136.935 427.65Z" fill="#878686"/>
<path d="M70.642 504V482.182H78.0142C79.7259 482.182 81.125 482.491 82.2116 483.109C83.3054 483.719 84.1151 484.547 84.6406 485.591C85.1662 486.635 85.429 487.8 85.429 489.085C85.429 490.371 85.1662 491.539 84.6406 492.59C84.1222 493.641 83.3196 494.479 82.233 495.104C81.1463 495.722 79.7543 496.031 78.0568 496.031H72.7727V493.688H77.9716C79.1435 493.688 80.0845 493.485 80.7947 493.08C81.505 492.675 82.0199 492.129 82.3395 491.44C82.6662 490.744 82.8295 489.959 82.8295 489.085C82.8295 488.212 82.6662 487.43 82.3395 486.741C82.0199 486.053 81.5014 485.513 80.7841 485.122C80.0668 484.724 79.1151 484.526 77.929 484.526H73.2841V504H70.642ZM89.685 504V482.182H97.0572C98.7688 482.182 100.168 482.491 101.255 483.109C102.348 483.719 103.158 484.547 103.684 485.591C104.209 486.635 104.472 487.8 104.472 489.085C104.472 490.371 104.209 491.539 103.684 492.59C103.165 493.641 102.363 494.479 101.276 495.104C100.189 495.722 98.7972 496.031 97.0998 496.031H91.8157V493.688H97.0146C98.1864 493.688 99.1275 493.485 99.8377 493.08C100.548 492.675 101.063 492.129 101.382 491.44C101.709 490.744 101.873 489.959 101.873 489.085C101.873 488.212 101.709 487.43 101.382 486.741C101.063 486.053 100.544 485.513 99.8271 485.122C99.1097 484.724 98.158 484.526 96.9719 484.526H92.3271V504H89.685ZM107.535 484.526V482.182H123.898V484.526H117.038V504H114.396V484.526H107.535ZM132.864 488.4H135.324V493.53H132.864V488.4ZM142.824 488.4H145.284V493.53H142.824V488.4ZM126.804 492.63H151.314V494.64H126.804V492.63ZM139.044 496.68C144.864 496.68 148.344 498.39 148.344 501.48C148.344 504.57 144.864 506.31 139.044 506.31C133.224 506.31 129.744 504.57 129.744 501.48C129.744 498.39 133.224 496.68 139.044 496.68ZM139.044 498.6C134.814 498.6 132.264 499.65 132.264 501.48C132.264 503.34 134.814 504.36 139.044 504.36C143.304 504.36 145.824 503.34 145.824 501.48C145.824 499.65 143.304 498.6 139.044 498.6ZM139.074 479.7C144.954 479.7 148.614 481.59 148.614 484.77C148.614 487.92 144.954 489.78 139.074 489.78C133.164 489.78 129.534 487.92 129.534 484.77C129.534 481.59 133.164 479.7 139.074 479.7ZM139.074 481.65C134.754 481.65 132.084 482.79 132.084 484.77C132.084 486.72 134.754 487.86 139.074 487.86C143.394 487.86 146.064 486.72 146.064 484.77C146.064 482.79 143.394 481.65 139.074 481.65Z" fill="#878686"/>
<path d="M782.057 507.044C782.743 507.049 783.429 507.18 784.115 507.436C784.801 507.692 785.427 508.117 785.994 508.71C786.56 509.298 787.015 510.101 787.358 511.12C787.701 512.138 787.872 513.415 787.872 514.95C787.872 516.437 787.731 517.757 787.447 518.912C787.17 520.06 786.767 521.03 786.239 521.819C785.716 522.609 785.079 523.208 784.327 523.616C783.581 524.025 782.737 524.229 781.795 524.229C780.859 524.229 780.023 524.044 779.288 523.673C778.558 523.298 777.959 522.778 777.491 522.113C777.028 521.444 776.732 520.668 776.601 519.786H778.594C778.773 520.553 779.13 521.188 779.664 521.689C780.203 522.184 780.913 522.432 781.795 522.432C783.086 522.432 784.104 521.868 784.85 520.741C785.602 519.614 785.977 518.021 785.977 515.963H785.847C785.542 516.42 785.18 516.815 784.76 517.147C784.341 517.48 783.875 517.735 783.364 517.915C782.852 518.095 782.307 518.185 781.73 518.185C780.772 518.185 779.892 517.948 779.092 517.474C778.297 516.995 777.66 516.339 777.181 515.506C776.707 514.667 776.47 513.709 776.47 512.631C776.47 511.607 776.699 510.67 777.156 509.821C777.619 508.966 778.267 508.286 779.1 507.779C779.939 507.273 780.924 507.028 782.057 507.044ZM782.057 508.841C781.371 508.841 780.753 509.012 780.203 509.355C779.658 509.693 779.225 510.15 778.904 510.728C778.588 511.299 778.43 511.934 778.43 512.631C778.43 513.328 778.583 513.962 778.888 514.534C779.198 515.1 779.62 515.552 780.154 515.89C780.693 516.222 781.305 516.388 781.991 516.388C782.509 516.388 782.991 516.287 783.437 516.086C783.884 515.879 784.273 515.598 784.605 515.244C784.943 514.885 785.207 514.479 785.397 514.027C785.588 513.57 785.683 513.094 785.683 512.598C785.683 511.945 785.525 511.332 785.21 510.76C784.899 510.189 784.469 509.726 783.919 509.372C783.375 509.018 782.754 508.841 782.057 508.841ZM791.158 524L798.639 509.2V509.07H790.014V507.273H800.73V509.168L793.281 524H791.158Z" fill="#8E8D8D"/>
<path d="M577.286 369.229C576.599 369.218 575.913 369.087 575.227 368.837C574.541 368.586 573.915 368.164 573.349 367.571C572.782 366.972 572.328 366.163 571.985 365.145C571.642 364.121 571.47 362.836 571.47 361.29C571.47 359.809 571.609 358.496 571.887 357.353C572.164 356.204 572.567 355.238 573.096 354.453C573.624 353.664 574.261 353.065 575.007 352.657C575.758 352.248 576.605 352.044 577.547 352.044C578.483 352.044 579.317 352.232 580.046 352.608C580.781 352.978 581.38 353.495 581.843 354.159C582.306 354.824 582.605 355.589 582.741 356.455H580.749C580.563 355.703 580.204 355.08 579.67 354.584C579.137 354.089 578.429 353.841 577.547 353.841C576.251 353.841 575.23 354.404 574.484 355.532C573.743 356.659 573.371 358.241 573.365 360.277H573.496C573.801 359.814 574.163 359.419 574.582 359.093C575.007 358.761 575.475 358.505 575.987 358.325C576.499 358.145 577.04 358.055 577.612 358.055C578.571 358.055 579.447 358.295 580.242 358.774C581.037 359.248 581.674 359.904 582.153 360.743C582.633 361.576 582.872 362.531 582.872 363.609C582.872 364.644 582.641 365.591 582.178 366.452C581.715 367.307 581.064 367.987 580.226 368.494C579.393 368.995 578.413 369.24 577.286 369.229ZM577.286 367.432C577.972 367.432 578.587 367.26 579.131 366.917C579.681 366.574 580.114 366.114 580.43 365.537C580.751 364.96 580.912 364.317 580.912 363.609C580.912 362.918 580.757 362.289 580.446 361.723C580.141 361.151 579.719 360.696 579.18 360.359C578.647 360.021 578.037 359.852 577.351 359.852C576.834 359.852 576.352 359.956 575.905 360.163C575.459 360.364 575.067 360.642 574.729 360.996C574.397 361.35 574.136 361.755 573.945 362.213C573.754 362.665 573.659 363.141 573.659 363.642C573.659 364.306 573.814 364.927 574.125 365.504C574.44 366.081 574.871 366.547 575.415 366.901C575.965 367.255 576.589 367.432 577.286 367.432ZM586.607 369L594.088 354.2V354.07H585.463V352.273H596.179V354.168L588.73 369H586.607Z" fill="#8E8D8D"/>
<path d="M678.089 474.229C676.968 474.229 675.977 474.03 675.116 473.632C674.262 473.23 673.595 472.677 673.115 471.974C672.636 471.267 672.399 470.461 672.405 469.557C672.399 468.849 672.538 468.196 672.821 467.597C673.105 466.992 673.491 466.489 673.981 466.086C674.477 465.677 675.029 465.419 675.639 465.31V465.212C674.839 465.005 674.202 464.556 673.728 463.864C673.254 463.167 673.02 462.375 673.026 461.487C673.02 460.638 673.235 459.878 673.671 459.208C674.106 458.539 674.705 458.011 675.468 457.624C676.235 457.237 677.109 457.044 678.089 457.044C679.059 457.044 679.924 457.237 680.687 457.624C681.449 458.011 682.048 458.539 682.484 459.208C682.925 459.878 683.148 460.638 683.153 461.487C683.148 462.375 682.906 463.167 682.426 463.864C681.953 464.556 681.324 465.005 680.54 465.212V465.31C681.144 465.419 681.689 465.677 682.173 466.086C682.658 466.489 683.045 466.992 683.333 467.597C683.622 468.196 683.769 468.849 683.774 469.557C683.769 470.461 683.524 471.267 683.039 471.974C682.56 472.677 681.893 473.23 681.038 473.632C680.189 474.03 679.206 474.229 678.089 474.229ZM678.089 472.432C678.846 472.432 679.5 472.309 680.05 472.064C680.6 471.819 681.024 471.473 681.324 471.027C681.623 470.58 681.776 470.058 681.781 469.459C681.776 468.827 681.612 468.269 681.291 467.784C680.97 467.3 680.532 466.919 679.976 466.641C679.426 466.363 678.797 466.224 678.089 466.224C677.376 466.224 676.739 466.363 676.178 466.641C675.623 466.919 675.185 467.3 674.863 467.784C674.547 468.269 674.392 468.827 674.398 469.459C674.392 470.058 674.537 470.58 674.831 471.027C675.13 471.473 675.558 471.819 676.113 472.064C676.668 472.309 677.327 472.432 678.089 472.432ZM678.089 464.493C678.688 464.493 679.219 464.373 679.682 464.134C680.15 463.894 680.518 463.559 680.785 463.129C681.052 462.699 681.188 462.195 681.193 461.618C681.188 461.052 681.054 460.559 680.793 460.14C680.532 459.715 680.17 459.388 679.707 459.159C679.244 458.925 678.705 458.808 678.089 458.808C677.463 458.808 676.916 458.925 676.448 459.159C675.98 459.388 675.617 459.715 675.362 460.14C675.106 460.559 674.98 461.052 674.986 461.618C674.98 462.195 675.108 462.699 675.37 463.129C675.636 463.559 676.004 463.894 676.472 464.134C676.941 464.373 677.48 464.493 678.089 464.493ZM692.132 474.229C691.173 474.229 690.31 474.038 689.543 473.657C688.775 473.276 688.159 472.753 687.697 472.089C687.234 471.424 686.981 470.668 686.937 469.818H688.897C688.974 470.575 689.317 471.201 689.926 471.697C690.542 472.187 691.277 472.432 692.132 472.432C692.818 472.432 693.428 472.271 693.961 471.95C694.5 471.629 694.922 471.188 695.227 470.627C695.538 470.06 695.693 469.421 695.693 468.707C695.693 467.978 695.532 467.327 695.211 466.755C694.895 466.178 694.459 465.723 693.904 465.391C693.349 465.059 692.714 464.89 692.001 464.885C691.489 464.879 690.964 464.958 690.425 465.122C689.886 465.28 689.442 465.484 689.093 465.734L687.198 465.506L688.211 457.273H696.902V459.07H689.91L689.322 464.003H689.42C689.763 463.731 690.193 463.505 690.71 463.325C691.228 463.145 691.767 463.055 692.328 463.055C693.351 463.055 694.263 463.3 695.064 463.79C695.87 464.275 696.501 464.939 696.959 465.783C697.422 466.627 697.653 467.591 697.653 468.675C697.653 469.742 697.413 470.695 696.934 471.533C696.46 472.366 695.807 473.025 694.974 473.51C694.141 473.989 693.193 474.229 692.132 474.229Z" fill="#8E8D8D"/>
<path d="M474.339 417.57V415.903L481.69 404.273H482.899V406.854H482.082L476.528 415.642V415.773H486.428V417.57H474.339ZM482.213 421V417.063V416.287V404.273H484.141V421H482.213ZM495.042 421.229C494.356 421.218 493.67 421.087 492.984 420.837C492.298 420.586 491.672 420.164 491.106 419.571C490.539 418.972 490.085 418.163 489.742 417.145C489.399 416.121 489.227 414.836 489.227 413.29C489.227 411.809 489.366 410.496 489.644 409.353C489.921 408.204 490.324 407.238 490.852 406.453C491.381 405.664 492.018 405.065 492.764 404.657C493.515 404.248 494.362 404.044 495.304 404.044C496.24 404.044 497.073 404.232 497.803 404.608C498.538 404.978 499.137 405.495 499.6 406.159C500.063 406.824 500.362 407.589 500.498 408.455H498.505C498.32 407.703 497.961 407.08 497.427 406.584C496.894 406.089 496.186 405.841 495.304 405.841C494.008 405.841 492.987 406.404 492.241 407.532C491.5 408.659 491.127 410.241 491.122 412.277H491.253C491.557 411.814 491.92 411.419 492.339 411.093C492.764 410.761 493.232 410.505 493.744 410.325C494.256 410.145 494.797 410.055 495.369 410.055C496.327 410.055 497.204 410.295 497.999 410.774C498.794 411.248 499.431 411.904 499.91 412.743C500.389 413.576 500.629 414.531 500.629 415.609C500.629 416.644 500.398 417.591 499.935 418.452C499.472 419.307 498.821 419.987 497.983 420.494C497.15 420.995 496.169 421.24 495.042 421.229ZM495.042 419.432C495.728 419.432 496.344 419.26 496.888 418.917C497.438 418.574 497.871 418.114 498.187 417.537C498.508 416.96 498.669 416.317 498.669 415.609C498.669 414.918 498.514 414.289 498.203 413.723C497.898 413.151 497.476 412.696 496.937 412.359C496.404 412.021 495.794 411.852 495.108 411.852C494.59 411.852 494.109 411.956 493.662 412.163C493.216 412.364 492.823 412.642 492.486 412.996C492.154 413.35 491.892 413.755 491.702 414.213C491.511 414.665 491.416 415.141 491.416 415.642C491.416 416.306 491.571 416.927 491.881 417.504C492.197 418.081 492.627 418.547 493.172 418.901C493.722 419.255 494.345 419.432 495.042 419.432Z" fill="#8E8D8D"/>
<path d="M89.96 537.22H92.33V554.38H89.96V537.22ZM85.55 544.57H90.68V546.64H85.55V544.57ZM84.17 537.76H86.51V553.42H84.17V537.76ZM69.35 540.46H83.09V542.44H69.35V540.46ZM76.25 543.82C79.64 543.82 82.01 545.68 82.01 548.47C82.01 551.29 79.64 553.12 76.25 553.12C72.83 553.12 70.46 551.29 70.46 548.47C70.46 545.68 72.83 543.82 76.25 543.82ZM76.25 545.68C74.12 545.68 72.68 546.79 72.68 548.47C72.68 550.18 74.12 551.26 76.25 551.26C78.35 551.26 79.79 550.18 79.79 548.47C79.79 546.79 78.35 545.68 76.25 545.68ZM75.02 537.43H77.45V541.57H75.02V537.43ZM83.45 554.86C89.09 554.86 92.48 556.54 92.48 559.57C92.48 562.57 89.09 564.28 83.45 564.28C77.75 564.28 74.39 562.57 74.39 559.57C74.39 556.54 77.75 554.86 83.45 554.86ZM83.45 556.78C79.28 556.78 76.85 557.77 76.85 559.57C76.85 561.37 79.28 562.39 83.45 562.39C87.56 562.39 90.02 561.37 90.02 559.57C90.02 557.77 87.56 556.78 83.45 556.78ZM103.728 539.56H105.768V544.42C105.768 550.42 102.528 556.27 98.2377 558.55L96.7077 556.57C100.638 554.59 103.728 549.37 103.728 544.42V539.56ZM104.178 539.56H106.188V544.42C106.188 549.19 109.218 554.14 113.058 556.06L111.528 558.04C107.328 555.79 104.178 550.24 104.178 544.42V539.56ZM115.428 537.22H117.948V564.34H115.428V537.22ZM117.348 548.2H122.388V550.3H117.348V548.2ZM130.725 546.4H133.185V551.53H130.725V546.4ZM140.685 546.4H143.145V551.53H140.685V546.4ZM124.665 550.63H149.175V552.64H124.665V550.63ZM136.905 554.68C142.725 554.68 146.205 556.39 146.205 559.48C146.205 562.57 142.725 564.31 136.905 564.31C131.085 564.31 127.605 562.57 127.605 559.48C127.605 556.39 131.085 554.68 136.905 554.68ZM136.905 556.6C132.675 556.6 130.125 557.65 130.125 559.48C130.125 561.34 132.675 562.36 136.905 562.36C141.165 562.36 143.685 561.34 143.685 559.48C143.685 557.65 141.165 556.6 136.905 556.6ZM136.935 537.7C142.815 537.7 146.475 539.59 146.475 542.77C146.475 545.92 142.815 547.78 136.935 547.78C131.025 547.78 127.395 545.92 127.395 542.77C127.395 539.59 131.025 537.7 136.935 537.7ZM136.935 539.65C132.615 539.65 129.945 540.79 129.945 542.77C129.945 544.72 132.615 545.86 136.935 545.86C141.255 545.86 143.925 544.72 143.925 542.77C143.925 540.79 141.255 539.65 136.935 539.65Z" fill="black"/>
<path d="M72.2844 37.6H76.1844C83.9844 37.6 89.9344 37.5 96.8344 36.4L97.4344 41.7C90.4344 42.8 84.1344 43 76.1844 43H72.2844V37.6ZM72.2844 11H94.0344V16.4H78.9844V39.35H72.2844V11ZM77.3844 23.85H93.3844V29.05H77.3844V23.85ZM100.084 7.15H106.784V53.45H100.084V7.15ZM105.284 24.7H113.484V30.2H105.284V24.7ZM148.23 7.1H154.93V53.55H148.23V7.1ZM129.98 10.35C136.98 10.35 142.13 16.75 142.13 26.85C142.13 37.05 136.98 43.45 129.98 43.45C122.98 43.45 117.83 37.05 117.83 26.85C117.83 16.75 122.98 10.35 129.98 10.35ZM129.98 16.4C126.53 16.4 124.18 20.05 124.18 26.85C124.18 33.75 126.53 37.45 129.98 37.45C133.43 37.45 135.73 33.75 135.73 26.85C135.73 20.05 133.43 16.4 129.98 16.4ZM162.527 42.85H204.427V48.3H162.527V42.85ZM180.027 32.4H186.677V45.3H180.027V32.4ZM165.727 10.95H200.977V16.25H165.727V10.95ZM165.927 29.4H200.827V34.6H165.927V29.4ZM172.027 15.35H178.677V30H172.027V15.35ZM188.077 15.35H194.677V30H188.077V15.35ZM230.319 49V54.7351H206.437V49H230.319ZM234.301 10.45H259.251V15.8H234.301V10.45ZM233.801 33.8L233.101 28.4C241.201 28.4 252.001 28.3 260.951 27.25L261.451 32.1C252.151 33.6 241.801 33.8 233.801 33.8ZM237.951 14.7H244.301V30.2H237.951V14.7ZM249.151 14.7H255.601V30.2H249.151V14.7ZM239.201 37.35H270.801V53.45H264.101V42.65H239.201V37.35ZM264.101 7.15H270.801V35.45H264.101V7.15ZM296.947 14.25H304.647V19.55H296.947V14.25ZM286.447 8.9H291.547V11.85C291.547 20.15 288.597 28.05 281.347 31.45L277.697 26.5C284.047 23.6 286.447 17.65 286.447 11.85V8.9ZM287.897 8.9H292.897V11.9C292.897 17.55 295.097 22.75 300.847 25.15L297.497 30.2C290.347 27.2 287.897 20.05 287.897 11.9V8.9ZM311.447 7.2H317.747V31.25H311.447V7.2ZM302.197 7.85H308.447V31.05H302.197V7.85ZM286.297 32.95H317.747V45.3H292.947V50.95H286.347V40.5H311.247V38.05H286.297V32.95ZM286.347 48H319.247V53.15H286.347V48ZM328.593 11.05H357.943V16.4H328.593V11.05ZM324.343 42.5H366.193V47.9H324.343V42.5ZM339.143 26.6H345.793V45.15H339.143V26.6ZM355.543 11.05H362.193V15.5C362.193 21.3 362.193 27.8 360.343 37.7L353.693 36.95C355.543 27.75 355.543 21.05 355.543 15.5V11.05ZM372.889 27.2H376.939C387.489 27.2 392.789 27 398.689 25.9L399.239 31.15C393.239 32.35 387.739 32.55 376.939 32.55H372.889V27.2ZM372.889 10.8H394.839V16.1H379.489V30.05H372.889V10.8ZM377.189 36.75H408.789V53.45H402.089V42.05H377.189V36.75ZM402.089 7.25H408.789V34.55H402.089V7.25ZM417.233 49V43.4602L430.176 31.4751C431.277 30.4098 432.201 29.451 432.946 28.5987C433.704 27.7464 434.278 26.9119 434.669 26.0952C435.059 25.2666 435.255 24.3729 435.255 23.4141C435.255 22.3487 435.012 21.4313 434.527 20.6619C434.041 19.8807 433.378 19.2829 432.538 18.8686C431.698 18.4425 430.745 18.2294 429.679 18.2294C428.567 18.2294 427.596 18.4543 426.767 18.9041C425.939 19.3539 425.3 19.9991 424.85 20.8395C424.4 21.6799 424.175 22.6802 424.175 23.8402H416.877C416.877 21.4609 417.416 19.3954 418.493 17.6435C419.57 15.8916 421.08 14.5362 423.021 13.5774C424.962 12.6186 427.199 12.1392 429.733 12.1392C432.337 12.1392 434.604 12.6009 436.533 13.5241C438.474 14.4356 439.984 15.7022 441.061 17.3239C442.138 18.9455 442.676 20.804 442.676 22.8991C442.676 24.2723 442.404 25.6276 441.86 26.9652C441.327 28.3028 440.374 29.7884 439.001 31.4219C437.628 33.0436 435.693 34.9908 433.195 37.2635L427.886 42.4659V42.7145H443.156V49H417.233ZM450.165 49L465.24 19.1705V18.9219H447.679V12.6364H473.194V19.0107L458.102 49H450.165Z" fill="#353434"/>
<rect x="269" y="480" width="446" height="24" rx="12" fill="#BA95E3"/>
<rect x="269" y="532" width="541" height="24" rx="12" fill="#BA95E3"/>
<rect x="269" y="374" width="348" height="24" rx="12" fill="#BA95E3"/>
<rect x="269" y="426" width="247" height="24" rx="12" fill="#BA95E3"/>
<path d="M70.64 106.76H72.77C77.78 106.76 81.23 106.64 85.31 105.92L85.58 107.96C81.38 108.68 77.84 108.83 72.77 108.83H70.64V106.76ZM70.64 90.68H83.27V92.75H73.13V107.48H70.64V90.68ZM72.5 98.27H82.67V100.28H72.5V98.27ZM87.83 88.22H90.35V115.34H87.83V88.22ZM89.75 99.11H94.79V101.21H89.75V99.11ZM116.778 88.19H119.268V115.37H116.778V88.19ZM104.958 90.29C108.978 90.29 111.858 93.98 111.858 99.74C111.858 105.53 108.978 109.22 104.958 109.22C100.968 109.22 98.0877 105.53 98.0877 99.74C98.0877 93.98 100.968 90.29 104.958 90.29ZM104.958 92.54C102.318 92.54 100.458 95.36 100.458 99.74C100.458 104.15 102.318 107.03 104.958 107.03C107.628 107.03 109.458 104.15 109.458 99.74C109.458 95.36 107.628 92.54 104.958 92.54ZM124.695 109.91H149.265V111.98H124.695V109.91ZM135.645 102.89H138.135V110.84H135.645V102.89ZM126.825 90.8H146.955V92.84H126.825V90.8ZM126.885 101.72H146.925V103.73H126.885V101.72ZM131.055 92.45H133.545V102.08H131.055V92.45ZM140.295 92.45H142.755V102.08H140.295V92.45ZM164.387 113V115.344H150.75V113H164.387ZM167.057 90.41H181.607V92.45H167.057V90.41ZM166.607 103.04L166.307 100.94C171.047 100.94 177.527 100.88 182.897 100.22L183.107 102.08C177.587 102.95 171.257 103.04 166.607 103.04ZM169.727 91.85H172.127V101.66H169.727V91.85ZM176.507 91.85H178.937V101.66H176.507V91.85ZM169.967 106.01H188.087V115.34H185.567V108.05H169.967V106.01ZM185.567 88.22H188.087V104.66H185.567V88.22ZM204.495 93.29H209.715V95.36H204.495V93.29ZM199.065 89.36H201.015V92.09C201.015 96.29 198.735 100.61 194.805 102.44L193.455 100.55C196.995 98.96 199.065 95.33 199.065 92.09V89.36ZM199.545 89.36H201.465V92.21C201.465 95.3 203.415 98.39 206.745 99.74L205.455 101.66C201.585 100.04 199.545 96.23 199.545 92.21V89.36ZM213.915 88.25H216.285V102.68H213.915V88.25ZM208.605 88.73H210.975V102.44H208.605V88.73ZM198.405 103.91H216.285V110.24H200.925V114.23H198.465V108.38H213.885V105.89H198.405V103.91ZM198.465 113.06H217.335V115.04H198.465V113.06ZM223.633 90.92H241.093V92.99H223.633V90.92ZM221.053 109.49H245.563V111.56H221.053V109.49ZM230.563 99.8H233.053V110.51H230.563V99.8ZM240.163 90.92H242.623V93.62C242.623 96.98 242.623 100.7 241.633 106.19L239.143 105.86C240.163 100.67 240.163 96.86 240.163 93.62V90.92ZM250.27 100.55H252.52C258.49 100.55 261.85 100.37 265.72 99.62L265.96 101.66C262 102.41 258.61 102.59 252.52 102.59H250.27V100.55ZM250.27 90.41H263.02V92.45H252.76V101.6H250.27V90.41ZM252.76 105.83H270.88V115.34H268.36V107.87H252.76V105.83ZM268.36 88.25H270.88V104.36H268.36V88.25ZM277.007 113V111.082L284.208 103.199C285.053 102.276 285.749 101.473 286.296 100.791C286.843 100.102 287.248 99.456 287.511 98.8523C287.781 98.2415 287.916 97.6023 287.916 96.9347C287.916 96.1676 287.731 95.5036 287.362 94.9425C286.999 94.3814 286.502 93.9482 285.87 93.6428C285.238 93.3374 284.528 93.1847 283.74 93.1847C282.901 93.1847 282.17 93.3587 281.545 93.7067C280.927 94.0476 280.448 94.527 280.107 95.1449C279.773 95.7628 279.606 96.4872 279.606 97.3182H277.092C277.092 96.0398 277.387 94.9176 277.976 93.9517C278.566 92.9858 279.368 92.233 280.384 91.6932C281.406 91.1534 282.553 90.8835 283.825 90.8835C285.103 90.8835 286.236 91.1534 287.223 91.6932C288.21 92.233 288.985 92.9609 289.546 93.8771C290.107 94.7933 290.387 95.8125 290.387 96.9347C290.387 97.7372 290.242 98.522 289.95 99.2891C289.666 100.049 289.169 100.898 288.459 101.835C287.756 102.766 286.779 103.902 285.529 105.244L280.629 110.486V110.656H290.771V113H277.007ZM295.852 113L305.611 93.696V93.5256H294.361V91.1818H308.338V93.6534L298.622 113H295.852ZM311.521 102.47H336.031V104.51H311.521V102.47ZM314.701 112.7H333.331V114.74H314.701V112.7ZM314.701 106.88H317.191V113.33H314.701V106.88ZM323.791 89.12C329.581 89.12 333.331 91.16 333.331 94.55C333.331 97.91 329.581 99.95 323.791 99.95C317.971 99.95 314.251 97.91 314.251 94.55C314.251 91.16 317.971 89.12 323.791 89.12ZM323.791 91.16C319.531 91.16 316.801 92.42 316.801 94.55C316.801 96.68 319.531 97.94 323.791 97.94C328.051 97.94 330.781 96.68 330.781 94.55C330.781 92.42 328.051 91.16 323.791 91.16ZM350.166 90.92H367.626V92.99H350.166V90.92ZM347.586 109.49H372.096V111.56H347.586V109.49ZM357.096 99.8H359.586V110.51H357.096V99.8ZM366.696 90.92H369.156V93.62C369.156 96.98 369.156 100.7 368.166 106.19L365.676 105.86C366.696 100.67 366.696 96.86 366.696 93.62V90.92ZM376.804 100.55H379.054C385.024 100.55 388.384 100.37 392.254 99.62L392.494 101.66C388.534 102.41 385.144 102.59 379.054 102.59H376.804V100.55ZM376.804 90.41H389.554V92.45H379.294V101.6H376.804V90.41ZM379.294 105.83H397.414V115.34H394.894V107.87H379.294V105.83ZM394.894 88.25H397.414V104.36H394.894V88.25ZM430.959 88.22H433.449V115.34H430.959V88.22ZM423.009 91.13H425.469C425.469 98.99 421.929 105.86 412.869 110.3L411.549 108.29C419.379 104.51 423.009 98.75 423.009 91.55V91.13ZM412.779 91.13H424.089V93.17H412.779V91.13ZM442.056 89.3H444.516V92.69H457.626V89.3H460.116V100.13H442.056V89.3ZM444.516 94.67V98.12H457.626V94.67H444.516ZM438.786 103.01H463.296V105.05H438.786V103.01ZM449.826 98.96H452.286V103.91H449.826V98.96ZM441.966 112.7H460.596V114.74H441.966V112.7ZM441.966 107.24H444.456V113.39H441.966V107.24ZM477.912 89.99H494.862V92H477.912V89.99ZM474.852 101.63H499.362V103.67H474.852V101.63ZM485.802 102.98H488.292V115.37H485.802V102.98ZM493.692 89.99H496.122V92.33C496.122 95.15 496.122 98.33 495.102 102.92L492.642 102.59C493.692 98.21 493.692 95.06 493.692 92.33V89.99ZM502.449 109.79H527.019V111.86H502.449V109.79ZM513.489 103.22H515.949V110.48H513.489V103.22ZM513.429 91.64H515.529V93.32C515.529 98.87 509.979 103.07 504.639 104.18L503.619 102.2C508.299 101.42 513.429 97.61 513.429 93.32V91.64ZM513.879 91.64H515.979V93.32C515.979 97.61 521.139 101.33 525.879 102.11L524.889 104.09C519.459 103.01 513.879 98.87 513.879 93.32V91.64ZM504.459 90.68H524.949V92.72H504.459V90.68ZM541.027 98.75H546.157V100.82H541.027V98.75ZM550.687 88.22H553.087V115.34H550.687V88.22ZM545.317 88.79H547.687V113.99H545.317V88.79ZM536.137 90.47C539.647 90.47 541.927 94.1 541.927 99.92C541.927 105.74 539.647 109.37 536.137 109.37C532.627 109.37 530.377 105.74 530.377 99.92C530.377 94.1 532.627 90.47 536.137 90.47ZM536.137 92.78C534.007 92.78 532.657 95.54 532.657 99.92C532.657 104.3 534.007 107.06 536.137 107.06C538.297 107.06 539.647 104.3 539.647 99.92C539.647 95.54 538.297 92.78 536.137 92.78ZM584.832 87.86H588.852V115.73H584.832V87.86ZM567.162 90.08H571.122V96.83H576.852V90.08H580.812V109.25H567.162V90.08ZM571.122 99.92V106.04H576.852V99.92H571.122ZM596.35 102.2H615.88V105.32H596.35V102.2ZM593.41 109.25H618.55V112.49H593.41V109.25ZM596.35 89.9H615.64V93.11H600.4V103.07H596.35V89.9ZM599.17 96.02H615.01V99.11H599.17V96.02ZM640.867 87.92H644.647V102.98H640.867V87.92ZM637.627 93.68H642.037V96.89H637.627V93.68ZM634.987 88.43H638.707V102.8H634.987V88.43ZM621.937 89.72H632.947V101.84H621.937V89.72ZM629.227 92.78H625.657V98.75H629.227V92.78ZM625.807 104.15H629.737V106.64H640.747V104.15H644.647V115.37H625.807V104.15ZM629.737 109.73V112.19H640.747V109.73H629.737ZM666.336 89.48H669.816V91.49C669.816 97.52 665.526 102.86 658.326 104.27L656.616 100.97C662.886 99.89 666.336 95.48 666.336 91.49V89.48ZM667.146 89.48H670.596V91.49C670.596 95.57 674.016 99.89 680.316 100.97L678.606 104.27C671.406 102.86 667.146 97.61 667.146 91.49V89.48ZM656.046 109.04H681.186V112.28H656.046V109.04ZM684.694 106.16H687.034C691.714 106.16 695.284 106.1 699.424 105.44L699.784 108.62C695.584 109.28 691.804 109.4 687.034 109.4H684.694V106.16ZM684.694 90.2H697.744V93.44H688.714V107.21H684.694V90.2ZM687.754 97.91H697.354V101.03H687.754V97.91ZM701.374 87.89H705.394V115.67H701.374V87.89ZM704.494 98.42H709.414V101.72H704.494V98.42ZM719.042 88.7C723.272 88.7 726.452 91.34 726.452 95.06C726.452 98.75 723.272 101.39 719.042 101.39C714.812 101.39 711.632 98.75 711.632 95.06C711.632 91.34 714.812 88.7 719.042 88.7ZM719.042 91.94C717.002 91.94 715.472 93.08 715.472 95.06C715.472 97.04 717.002 98.18 719.042 98.18C721.082 98.18 722.582 97.04 722.582 95.06C722.582 93.08 721.082 91.94 719.042 91.94ZM730.292 87.89H734.312V101.78H730.292V87.89ZM715.772 102.92H734.312V110.54H719.732V113.9H715.832V107.66H730.352V106.01H715.772V102.92ZM715.832 112.28H735.002V115.37H715.832V112.28ZM751.349 88.67C757.319 88.67 760.889 90.35 760.889 93.38C760.889 96.41 757.319 98.09 751.349 98.09C745.349 98.09 741.809 96.41 741.809 93.38C741.809 90.35 745.349 88.67 751.349 88.67ZM751.349 90.56C746.909 90.56 744.359 91.58 744.359 93.38C744.359 95.18 746.909 96.2 751.349 96.2C755.759 96.2 758.309 95.18 758.309 93.38C758.309 91.58 755.759 90.56 751.349 90.56ZM739.079 99.89H763.589V101.9H739.079V99.89ZM742.049 104.21H760.469V110.33H744.569V113.63H742.109V108.53H758.009V106.13H742.049V104.21ZM742.109 113.09H761.279V115.04H742.109V113.09ZM76.4 136.98H78.44V139.17C78.44 144.12 75.38 148.35 70.85 150.03L69.56 148.05C73.61 146.61 76.4 143.01 76.4 139.17V136.98ZM76.88 136.98H78.89V139.17C78.89 142.65 81.53 146.04 85.46 147.42L84.2 149.4C79.79 147.78 76.88 143.7 76.88 139.17V136.98ZM83.99 141.27H90.02V143.34H83.99V141.27ZM70.34 136.08H84.83V138.09H70.34V136.08ZM73.7 151.92H91.79V161.34H89.3V153.96H73.7V151.92ZM89.3 134.22H91.79V150.45H89.3V134.22ZM103.128 143.4H105.588V148.53H103.128V143.4ZM113.088 143.4H115.548V148.53H113.088V143.4ZM97.0677 147.63H121.578V149.64H97.0677V147.63ZM109.308 151.68C115.128 151.68 118.608 153.39 118.608 156.48C118.608 159.57 115.128 161.31 109.308 161.31C103.488 161.31 100.008 159.57 100.008 156.48C100.008 153.39 103.488 151.68 109.308 151.68ZM109.308 153.6C105.078 153.6 102.528 154.65 102.528 156.48C102.528 158.34 105.078 159.36 109.308 159.36C113.568 159.36 116.088 158.34 116.088 156.48C116.088 154.65 113.568 153.6 109.308 153.6ZM109.338 134.7C115.218 134.7 118.878 136.59 118.878 139.77C118.878 142.92 115.218 144.78 109.338 144.78C103.428 144.78 99.7977 142.92 99.7977 139.77C99.7977 136.59 103.428 134.7 109.338 134.7ZM109.338 136.65C105.018 136.65 102.348 137.79 102.348 139.77C102.348 141.72 105.018 142.86 109.338 142.86C113.658 142.86 116.328 141.72 116.328 139.77C116.328 137.79 113.658 136.65 109.338 136.65ZM131.835 136.56H133.875V141.42C133.875 147.66 130.515 153.45 126.075 155.7L124.545 153.66C128.565 151.74 131.835 146.55 131.835 141.42V136.56ZM132.255 136.56H134.295V141.42C134.295 146.37 137.535 151.35 141.555 153.21L140.055 155.19C135.645 153.03 132.255 147.45 132.255 141.42V136.56ZM144.375 134.19H146.865V161.37H144.375V134.19ZM165.073 141.81H172.513V143.82H165.073V141.81ZM164.773 149.04H172.213V151.08H164.773V149.04ZM163.543 137.04H165.943C165.943 144.87 163.243 152.07 153.703 156.87L152.293 154.95C160.663 150.75 163.543 144.72 163.543 137.31V137.04ZM153.763 137.04H165.043V139.05H153.763V137.04ZM163.393 143.76V145.65L152.803 146.64L152.383 144.48L163.393 143.76ZM172.093 134.19H174.583V161.31H172.093V134.19ZM189.438 136.65H201.888V149.22H189.438V136.65ZM199.458 138.66H191.868V147.21H199.458V138.66ZM206.868 134.19H209.358V154.08H206.868V134.19ZM208.578 142.47H213.378V144.54H208.578V142.47ZM192.468 158.7H210.588V160.74H192.468V158.7ZM192.468 152.19H194.958V159.57H192.468V152.19ZM215.926 147.9H240.436V149.94H215.926V147.9ZM219.016 142.89H237.616V144.96H219.016V142.89ZM219.016 135.39H237.376V137.4H221.506V143.58H219.016V135.39ZM219.046 158.67H237.856V160.74H219.046V158.67ZM219.046 152.79H221.536V159.21H219.046V152.79ZM254.211 135.45H274.131V137.46H254.211V135.45ZM254.331 143.61H274.011V145.62H254.331V143.61ZM258.321 136.38H260.811V144.51H258.321V136.38ZM267.561 136.38H270.021V144.51H267.561V136.38ZM251.931 148.89H276.441V150.93H251.931V148.89ZM262.971 144.96H265.431V150.15H262.971V144.96ZM255.111 158.7H273.741V160.74H255.111V158.7ZM255.111 153.27H257.601V159.36H255.111V153.27ZM282.709 148.83H301.339V150.84H282.709V148.83ZM279.559 155.79H304.129V157.86H279.559V155.79ZM282.709 136.53H301.039V138.57H285.229V149.46H282.709V136.53ZM284.419 142.59H300.469V144.57H284.419V142.59ZM326.866 134.22H329.386V148.77H326.866V134.22ZM311.896 150.12H314.356V153.42H326.926V150.12H329.386V160.98H311.896V150.12ZM314.356 155.4V158.97H326.926V155.4H314.356ZM314.836 135.51C318.946 135.51 321.886 138.06 321.886 141.75C321.886 145.47 318.946 148.02 314.836 148.02C310.726 148.02 307.756 145.47 307.756 141.75C307.756 138.06 310.726 135.51 314.836 135.51ZM314.836 137.58C312.136 137.58 310.186 139.29 310.186 141.75C310.186 144.21 312.136 145.92 314.836 145.92C317.536 145.92 319.486 144.21 319.486 141.75C319.486 139.29 317.536 137.58 314.836 137.58ZM354.464 134.22H356.954V161.34H354.464V134.22ZM336.464 136.86H338.924V153.66H336.464V136.86ZM336.464 152.19H338.684C342.794 152.19 347.084 151.89 351.674 150.93L351.974 153.06C347.264 154.02 342.974 154.35 338.684 154.35H336.464V152.19ZM380.682 134.19H383.202V161.37H380.682V134.19ZM382.602 144.9H387.642V147H382.602V144.9ZM363.492 152.52H365.622C370.632 152.52 374.142 152.34 378.192 151.59L378.462 153.69C374.292 154.47 370.722 154.62 365.622 154.62H363.492V152.52ZM363.492 136.83H376.092V138.87H365.952V153.45H363.492V136.83ZM392.583 159.17C392.057 159.17 391.606 158.982 391.23 158.606C390.853 158.229 390.665 157.778 390.665 157.253C390.665 156.727 390.853 156.276 391.23 155.9C391.606 155.523 392.057 155.335 392.583 155.335C393.108 155.335 393.559 155.523 393.936 155.9C394.312 156.276 394.5 156.727 394.5 157.253C394.5 157.601 394.412 157.92 394.234 158.212C394.064 158.503 393.833 158.737 393.542 158.915C393.257 159.085 392.938 159.17 392.583 159.17ZM413.848 137.01H415.918V139.17C415.918 144.15 412.858 148.32 408.298 149.94L407.008 147.99C411.088 146.55 413.848 143.01 413.848 139.17V137.01ZM414.328 137.01H416.398V139.17C416.398 142.83 419.218 146.13 423.238 147.48L421.948 149.43C417.448 147.9 414.328 143.91 414.328 139.17V137.01ZM426.358 134.22H428.878V150.63H426.358V134.22ZM410.758 152.07H428.878V161.34H426.358V154.11H410.758V152.07ZM407.668 136.11H422.518V138.12H407.668V136.11ZM448.136 140.61H454.976V142.68H448.136V140.61ZM441.026 135.87H443.036V139.2C443.036 144.45 440.096 148.83 435.566 150.66L434.276 148.68C438.296 147.18 441.026 143.34 441.026 139.2V135.87ZM441.506 135.87H443.516V139.29C443.516 143.07 446.156 146.64 450.086 148.08L448.736 150C444.416 148.32 441.506 144.12 441.506 139.29V135.87ZM454.046 134.25H456.536V154.53H454.046V134.25ZM439.106 158.7H457.196V160.74H439.106V158.7ZM439.106 152.28H441.596V159.66H439.106V152.28ZM474.084 135.93C479.724 135.93 483.924 138.93 483.924 143.43C483.924 147.96 479.724 150.93 474.084 150.93C468.444 150.93 464.214 147.96 464.214 143.43C464.214 138.93 468.444 135.93 474.084 135.93ZM474.084 137.97C469.794 137.97 466.614 140.16 466.614 143.43C466.614 146.67 469.794 148.89 474.084 148.89C478.374 148.89 481.554 146.67 481.554 143.43C481.554 140.16 478.374 137.97 474.084 137.97ZM461.844 155.67H486.414V157.77H461.844V155.67ZM489.441 155.94H514.011V158.01H489.441V155.94ZM500.421 150.12H502.911V156.81H500.421V150.12ZM492.411 136.23H510.981V144.45H494.961V149.88H492.501V142.44H508.521V138.24H492.411V136.23ZM492.501 148.83H511.611V150.87H492.501V148.83ZM518.149 136.65H530.599V149.22H518.149V136.65ZM528.169 138.66H520.579V147.21H528.169V138.66ZM535.579 134.19H538.069V154.08H535.579V134.19ZM537.289 142.47H542.089V144.54H537.289V142.47ZM521.179 158.7H539.299V160.74H521.179V158.7ZM521.179 152.19H523.669V159.57H521.179V152.19ZM572.754 134.19H575.244V161.37H572.754V134.19ZM560.934 136.29C564.954 136.29 567.834 139.98 567.834 145.74C567.834 151.53 564.954 155.22 560.934 155.22C556.944 155.22 554.064 151.53 554.064 145.74C554.064 139.98 556.944 136.29 560.934 136.29ZM560.934 138.54C558.294 138.54 556.434 141.36 556.434 145.74C556.434 150.15 558.294 153.03 560.934 153.03C563.604 153.03 565.434 150.15 565.434 145.74C565.434 141.36 563.604 138.54 560.934 138.54ZM583.582 135.3H602.242V142.38H586.162V147.06H583.642V140.46H599.752V137.31H583.582V135.3ZM583.642 145.83H602.872V147.87H583.642V145.83ZM580.642 150.66H605.242V152.73H580.642V150.66ZM591.652 151.44H594.112V161.37H591.652V151.44ZM615.5 136.29C619.43 136.29 622.25 139.98 622.25 145.74C622.25 151.53 619.43 155.22 615.5 155.22C611.54 155.22 608.75 151.53 608.75 145.74C608.75 139.98 611.54 136.29 615.5 136.29ZM615.5 138.54C612.89 138.54 611.12 141.36 611.12 145.74C611.12 150.15 612.89 153.03 615.5 153.03C618.11 153.03 619.88 150.15 619.88 145.74C619.88 141.36 618.11 138.54 615.5 138.54ZM628.13 134.19H630.59V161.37H628.13V134.19ZM621.44 144.54H629.21V146.58H621.44V144.54ZM643.067 137.19H645.137V139.95C645.137 144.93 642.077 149.1 637.517 150.75L636.227 148.77C640.307 147.33 643.067 143.82 643.067 139.95V137.19ZM643.547 137.19H645.617V139.95C645.617 143.61 648.437 146.91 652.457 148.26L651.167 150.21C646.667 148.68 643.547 144.72 643.547 139.95V137.19ZM636.887 136.47H651.737V138.48H636.887V136.47ZM655.577 134.25H658.097V154.08H655.577V134.25ZM640.667 158.7H658.907V160.74H640.667V158.7ZM640.667 152.22H643.127V159.6H640.667V152.22ZM687.142 140.73H692.662V142.77H687.142V140.73ZM687.112 146.01H692.632V148.05H687.112V146.01ZM671.932 137.19H687.112V139.2H671.932V137.19ZM679.612 140.61C683.242 140.61 685.732 142.59 685.732 145.62C685.732 148.65 683.242 150.66 679.612 150.66C675.982 150.66 673.462 148.65 673.462 145.62C673.462 142.59 675.982 140.61 679.612 140.61ZM679.612 142.53C677.332 142.53 675.802 143.73 675.802 145.62C675.802 147.51 677.332 148.74 679.612 148.74C681.862 148.74 683.422 147.51 683.422 145.62C683.422 143.73 681.862 142.53 679.612 142.53ZM678.382 133.98H680.872V138.6H678.382V133.98ZM691.702 134.22H694.192V151.74H691.702V134.22ZM685.312 152.01C690.922 152.01 694.342 153.72 694.342 156.66C694.342 159.6 690.922 161.28 685.312 161.28C679.672 161.28 676.282 159.6 676.282 156.66C676.282 153.72 679.672 152.01 685.312 152.01ZM685.312 153.99C681.322 153.99 678.862 154.92 678.862 156.66C678.862 158.37 681.322 159.36 685.312 159.36C689.302 159.36 691.762 158.37 691.762 156.66C691.762 154.92 689.302 153.99 685.312 153.99ZM700.55 152.55H702.32C706.61 152.55 709.16 152.46 712.19 151.86L712.46 153.93C709.31 154.56 706.67 154.65 702.32 154.65H700.55V152.55ZM700.55 137.31H711.23V139.35H702.92V153.33H700.55V137.31ZM702.2 144.48H710.81V146.49H702.2V144.48ZM720.14 134.22H722.54V161.34H720.14V134.22ZM715.85 145.08H721.04V147.15H715.85V145.08ZM714.17 134.79H716.54V159.99H714.17V134.79ZM745.428 134.19H747.948V161.34H745.428V134.19ZM747.258 145.2H752.268V147.27H747.258V145.2ZM738.498 137.13H740.928C740.928 144.84 737.388 151.8 728.628 156.21L727.248 154.29C734.748 150.48 738.498 144.69 738.498 137.52V137.13ZM728.508 137.13H739.788V139.17H728.508V137.13ZM88.55 180.22H91.04V196.48H88.55V180.22ZM89.84 187.48H94.55V189.55H89.84V187.48ZM73.1 197.74H91.04V207.37H88.52V199.72H73.1V197.74ZM70.46 192.31H71.66C73.25 192.31 75.32 192.28 77.69 191.71L77.93 193.81C75.41 194.38 73.4 194.41 71.66 194.41H70.46V192.31ZM70.46 182.38H77.21V184.42H72.83V193.36H70.46V182.38ZM78.83 192.31H80.15C82.82 192.31 84.68 192.25 86.9 191.74L87.14 193.81C84.8 194.35 82.94 194.41 80.15 194.41H78.83V192.31ZM78.83 182.38H85.97V184.42H81.2V193.3H78.83V182.38ZM116.148 180.22H118.638V196.48H116.148V180.22ZM117.438 187.48H122.148V189.55H117.438V187.48ZM100.698 197.74H118.638V207.37H116.118V199.72H100.698V197.74ZM98.0577 192.31H99.2577C100.848 192.31 102.918 192.28 105.288 191.71L105.528 193.81C103.008 194.38 100.998 194.41 99.2577 194.41H98.0577V192.31ZM98.0577 182.38H104.808V184.42H100.428V193.36H98.0577V182.38ZM106.428 192.31H107.748C110.418 192.31 112.278 192.25 114.498 191.74L114.738 193.81C112.398 194.35 110.538 194.41 107.748 194.41H106.428V192.31ZM106.428 182.38H113.568V184.42H108.798V193.3H106.428V182.38ZM124.635 184.84H138.075V186.88H124.635V184.84ZM131.355 188.68C134.745 188.68 137.205 191.23 137.205 194.89C137.205 198.52 134.745 201.07 131.355 201.07C127.995 201.07 125.535 198.52 125.535 194.89C125.535 191.23 127.995 188.68 131.355 188.68ZM131.355 190.81C129.285 190.81 127.785 192.49 127.785 194.89C127.785 197.29 129.285 198.97 131.355 198.97C133.455 198.97 134.985 197.29 134.985 194.89C134.985 192.49 133.455 190.81 131.355 190.81ZM145.245 180.22H147.645V207.34H145.245V180.22ZM140.925 191.62H146.055V193.69H140.925V191.62ZM139.455 180.82H141.795V206.02H139.455V180.82ZM130.155 181H132.615V186.1H130.155V181ZM160.73 201.82H185.3V203.89H160.73V201.82ZM171.71 195.34H174.2V202.42H171.71V195.34ZM163.61 182.14H166.07V186.97H179.9V182.14H182.36V196H163.61V182.14ZM166.07 188.98V193.96H179.9V188.98H166.07ZM195.918 181.21C199.968 181.21 202.938 183.67 202.938 187.24C202.938 190.78 199.968 193.24 195.918 193.24C191.898 193.24 188.928 190.78 188.928 187.24C188.928 183.67 191.898 181.21 195.918 181.21ZM195.918 183.25C193.308 183.25 191.328 184.9 191.328 187.24C191.328 189.58 193.308 191.2 195.918 191.2C198.558 191.2 200.508 189.58 200.508 187.24C200.508 184.9 198.558 183.25 195.918 183.25ZM208.038 180.22H210.558V194.11H208.038V180.22ZM193.008 195.43H210.558V202.03H195.498V206.11H193.068V200.17H208.098V197.44H193.008V195.43ZM193.068 205H211.458V206.98H193.068V205ZM235.313 181.18H237.503V182.68C237.503 187.87 232.223 191.59 226.583 192.55L225.593 190.54C230.543 189.79 235.313 186.55 235.313 182.68V181.18ZM235.763 181.18H237.923V182.68C237.923 186.46 242.753 189.79 247.643 190.54L246.653 192.55C241.073 191.59 235.763 187.81 235.763 182.68V181.18ZM235.313 197.02H237.773V207.34H235.313V197.02ZM224.363 195.49H248.873V197.56H224.363V195.49ZM267.148 196.9H269.068V198.37C269.068 201.91 266.848 205.48 262.948 206.98L261.688 205.12C265.108 203.89 267.148 200.98 267.148 198.37V196.9ZM267.688 196.9H269.548V198.37C269.548 201.1 271.168 204.01 274.408 205.33L273.358 207.22C269.458 205.69 267.688 201.97 267.688 198.37V196.9ZM277.168 196.9H279.028V198.37C279.028 201.55 277.228 205.57 273.358 207.22L272.308 205.33C275.518 203.86 277.168 200.71 277.168 198.37V196.9ZM277.678 196.9H279.598V198.37C279.598 201.16 281.608 203.95 285.058 205.12L283.798 206.98C279.838 205.54 277.678 202.12 277.678 198.37V196.9ZM280.108 180.25H282.628V195.73H280.108V180.25ZM268.078 181.81C272.188 181.81 275.128 184.39 275.128 188.14C275.128 191.89 272.188 194.44 268.078 194.44C263.968 194.44 260.998 191.89 260.998 188.14C260.998 184.39 263.968 181.81 268.078 181.81ZM268.078 183.88C265.378 183.88 263.428 185.62 263.428 188.14C263.428 190.66 265.378 192.37 268.078 192.37C270.778 192.37 272.728 190.66 272.728 188.14C272.728 185.62 270.778 183.88 268.078 183.88ZM300.236 181.93C305.876 181.93 310.076 184.93 310.076 189.43C310.076 193.96 305.876 196.93 300.236 196.93C294.596 196.93 290.366 193.96 290.366 189.43C290.366 184.93 294.596 181.93 300.236 181.93ZM300.236 183.97C295.946 183.97 292.766 186.16 292.766 189.43C292.766 192.67 295.946 194.89 300.236 194.89C304.526 194.89 307.706 192.67 307.706 189.43C307.706 186.16 304.526 183.97 300.236 183.97ZM287.996 201.67H312.566V203.77H287.996V201.67ZM335.754 191.02H340.764V193.12H335.754V191.02ZM333.924 180.19H336.444V207.34H333.924V180.19ZM316.644 182.86H319.134V199.66H316.644V182.86ZM316.644 198.37H318.804C322.824 198.37 326.934 198.1 331.404 197.17L331.704 199.24C327.084 200.2 322.914 200.47 318.804 200.47H316.644V198.37ZM366.089 187H372.119V189.07H366.089V187ZM371.429 180.22H373.919V196.09H371.429V180.22ZM356.339 197.41H373.919V206.98H356.339V197.41ZM371.489 199.39H358.769V204.97H371.489V199.39ZM358.529 182.8H360.569V184.99C360.569 189.94 357.509 194.17 352.979 195.85L351.689 193.87C355.739 192.43 358.529 188.83 358.529 184.99V182.8ZM359.009 182.8H361.019V184.96C361.019 188.47 363.659 191.86 367.589 193.24L366.329 195.22C361.919 193.63 359.009 189.52 359.009 184.96V182.8ZM352.469 181.96H366.959V183.97H352.469V181.96ZM379.227 191.53H403.737V193.57H379.227V191.53ZM382.467 187.33H400.827V189.34H382.467V187.33ZM382.467 181.09H400.527V183.13H384.927V188.95H382.467V181.09ZM382.167 195.91H400.587V202.3H384.687V205.72H382.227V200.44H398.127V197.86H382.167V195.91ZM382.227 205.06H401.397V207.04H382.227V205.06ZM426.504 180.19H428.994V207.37H426.504V180.19ZM414.684 182.29C418.704 182.29 421.584 185.98 421.584 191.74C421.584 197.53 418.704 201.22 414.684 201.22C410.694 201.22 407.814 197.53 407.814 191.74C407.814 185.98 410.694 182.29 414.684 182.29ZM414.684 184.54C412.044 184.54 410.184 187.36 410.184 191.74C410.184 196.15 412.044 199.03 414.684 199.03C417.354 199.03 419.184 196.15 419.184 191.74C419.184 187.36 417.354 184.54 414.684 184.54ZM442.859 201.82H467.429V203.89H442.859V201.82ZM453.839 194.8H456.329V202.39H453.839V194.8ZM445.709 182.47H464.429V195.25H445.709V182.47ZM462.029 184.48H448.139V193.24H462.029V184.48ZM482.667 186.25H490.857V188.32H482.667V186.25ZM482.667 194.83H490.857V196.9H482.667V194.83ZM477.687 182.29C481.617 182.29 484.437 185.98 484.437 191.74C484.437 197.53 481.617 201.22 477.687 201.22C473.727 201.22 470.937 197.53 470.937 191.74C470.937 185.98 473.727 182.29 477.687 182.29ZM477.687 184.54C475.077 184.54 473.277 187.36 473.277 191.74C473.277 196.15 475.077 199.03 477.687 199.03C480.297 199.03 482.097 196.15 482.097 191.74C482.097 187.36 480.297 184.54 477.687 184.54ZM490.317 180.19H492.777V207.37H490.317V180.19ZM507.602 182.65H520.052V195.22H507.602V182.65ZM517.622 184.66H510.032V193.21H517.622V184.66ZM525.032 180.19H527.522V200.08H525.032V180.19ZM526.742 188.47H531.542V190.54H526.742V188.47ZM510.632 204.7H528.752V206.74H510.632V204.7ZM510.632 198.19H513.122V205.57H510.632V198.19ZM534.09 193.9H558.6V195.94H534.09V193.9ZM537.18 188.89H555.78V190.96H537.18V188.89ZM537.18 181.39H555.54V183.4H539.67V189.58H537.18V181.39ZM537.21 204.67H556.02V206.74H537.21V204.67ZM537.21 198.79H539.7V205.21H537.21V198.79ZM570.125 193.12H594.605V195.13H570.125V193.12ZM572.765 198.22H591.485V207.34H588.995V200.23H572.765V198.22ZM573.035 181.66H590.495V183.7H573.035V181.66ZM580.175 187.6H582.635V193.66H580.175V187.6ZM589.055 181.66H591.515V183.73C591.515 185.8 591.515 188.14 590.825 191.2L588.365 190.96C589.055 187.93 589.055 185.74 589.055 183.73V181.66ZM611.613 186.61H618.453V188.68H611.613V186.61ZM604.503 181.87H606.513V185.2C606.513 190.45 603.573 194.83 599.043 196.66L597.753 194.68C601.773 193.18 604.503 189.34 604.503 185.2V181.87ZM604.983 181.87H606.993V185.29C606.993 189.07 609.633 192.64 613.563 194.08L612.213 196C607.893 194.32 604.983 190.12 604.983 185.29V181.87ZM617.523 180.25H620.013V200.53H617.523V180.25ZM602.583 204.7H620.673V206.74H602.583V204.7ZM602.583 198.28H605.073V205.66H602.583V198.28ZM634.11 182.17C638.34 182.17 641.37 184.78 641.37 188.56C641.37 192.37 638.34 194.98 634.11 194.98C629.88 194.98 626.82 192.37 626.82 188.56C626.82 184.78 629.88 182.17 634.11 182.17ZM634.11 184.33C631.29 184.33 629.25 186.04 629.25 188.56C629.25 191.08 631.29 192.82 634.11 192.82C636.9 192.82 638.94 191.08 638.94 188.56C638.94 186.04 636.9 184.33 634.11 184.33ZM644.91 180.19H647.4V207.37H644.91V180.19ZM625.8 201.43L625.44 199.36C630.39 199.36 637.23 199.33 643.14 198.4L643.35 200.23C637.26 201.4 630.63 201.43 625.8 201.43ZM671.855 187.75H677.885V189.76H671.855V187.75ZM671.645 194.56H677.825V196.57H671.645V194.56ZM681.995 180.22H684.395V207.34H681.995V180.22ZM676.565 180.91H678.905V205.96H676.565V180.91ZM670.505 183.64H672.905C672.905 190.75 670.055 197.14 662.765 201.49L661.325 199.72C667.655 195.88 670.505 190.48 670.505 184.09V183.64ZM662.525 183.64H671.495V185.68H662.525V183.64ZM707.493 180.19H709.983V199.84H707.493V180.19ZM709.233 188.26H714.003V190.33H709.233V188.26ZM690.183 193H692.283C697.863 193 701.013 192.85 704.643 192.1L704.913 194.11C701.193 194.89 697.983 195.07 692.283 195.07H690.183V193ZM690.183 182.53H702.153V184.6H692.643V194.11H690.183V182.53ZM693.093 204.7H711.213V206.74H693.093V204.7ZM693.093 197.89H695.583V205.63H693.093V197.89ZM723.601 181.51H725.671V184.15C725.671 189.28 722.611 193.69 718.021 195.43L716.761 193.45C720.871 191.95 723.601 188.2 723.601 184.15V181.51ZM724.051 181.51H726.091V184.15C726.091 188.05 728.881 191.56 732.901 192.97L731.641 194.92C727.111 193.27 724.051 189.13 724.051 184.15V181.51ZM720.661 197.92H738.781V207.34H736.261V199.96H720.661V197.92ZM736.261 180.22H738.781V196.54H736.261V180.22ZM72.56 227.99H89.51V230H72.56V227.99ZM69.5 239.63H94.01V241.67H69.5V239.63ZM80.45 240.98H82.94V253.37H80.45V240.98ZM88.34 227.99H90.77V230.33C90.77 233.15 90.77 236.33 89.75 240.92L87.29 240.59C88.34 236.21 88.34 233.06 88.34 230.33V227.99ZM97.0977 247.79H121.668V249.86H97.0977V247.79ZM108.138 241.22H110.598V248.48H108.138V241.22ZM108.078 229.64H110.178V231.32C110.178 236.87 104.628 241.07 99.2877 242.18L98.2677 240.2C102.948 239.42 108.078 235.61 108.078 231.32V229.64ZM108.528 229.64H110.628V231.32C110.628 235.61 115.788 239.33 120.528 240.11L119.538 242.09C114.108 241.01 108.528 236.87 108.528 231.32V229.64ZM99.1077 228.68H119.598V230.72H99.1077V228.68ZM143.025 226.19H145.545V253.34H143.025V226.19ZM144.855 237.2H149.865V239.27H144.855V237.2ZM136.095 229.13H138.525C138.525 236.84 134.985 243.8 126.225 248.21L124.845 246.29C132.345 242.48 136.095 236.69 136.095 229.52V229.13ZM126.105 229.13H137.385V231.17H126.105V229.13ZM160.73 247.91H185.3V249.98H160.73V247.91ZM171.68 240.89H174.17V248.84H171.68V240.89ZM162.86 228.8H182.99V230.84H162.86V228.8ZM162.92 239.72H182.96V241.73H162.92V239.72ZM167.09 230.45H169.58V240.08H167.09V230.45ZM176.33 230.45H178.79V240.08H176.33V230.45ZM208.038 226.25H210.558V246.05H208.038V226.25ZM193.128 250.7H211.368V252.74H193.128V250.7ZM193.128 244.01H195.588V251.39H193.128V244.01ZM196.008 228.11C200.058 228.11 203.058 230.87 203.058 234.8C203.058 238.7 200.058 241.49 196.008 241.49C191.958 241.49 188.928 238.7 188.928 234.8C188.928 230.87 191.958 228.11 196.008 228.11ZM196.008 230.27C193.368 230.27 191.358 232.13 191.358 234.8C191.358 237.44 193.368 239.3 196.008 239.3C198.648 239.3 200.658 237.44 200.658 234.8C200.658 232.13 198.648 230.27 196.008 230.27ZM219.076 240.83H237.706V242.84H219.076V240.83ZM215.926 247.79H240.496V249.86H215.926V247.79ZM219.076 228.53H237.406V230.57H221.596V241.46H219.076V228.53ZM220.786 234.59H236.836V236.57H220.786V234.59ZM261.853 226.19H264.373V253.34H261.853V226.19ZM263.683 237.2H268.693V239.27H263.683V237.2ZM254.923 229.13H257.353C257.353 236.84 253.813 243.8 245.053 248.21L243.673 246.29C251.173 242.48 254.923 236.69 254.923 229.52V229.13ZM244.933 229.13H256.213V231.17H244.933V229.13ZM281.689 237.89H295.579V239.93H281.689V237.89ZM287.239 239.51H289.759V245.75H287.239V239.51ZM281.689 228.77H295.429V230.81H284.179V238.61H281.689V228.77ZM299.149 226.19H301.639V253.37H299.149V226.19ZM280.039 247.49L279.679 245.42C284.989 245.39 291.649 245.33 297.379 244.64L297.589 246.5C291.649 247.4 285.169 247.52 280.039 247.49ZM326.896 226.22H329.386V253.34H326.896V226.22ZM318.946 229.13H321.406C321.406 236.99 317.866 243.86 308.806 248.3L307.486 246.29C315.316 242.51 318.946 236.75 318.946 229.55V229.13ZM308.716 229.13H320.026V231.17H308.716V229.13ZM358.701 226.79H361.011V251.99H358.701V226.79ZM360.051 237.26H365.061V239.3H360.051V237.26ZM343.971 244.22H345.051C346.101 244.22 347.871 244.19 349.971 243.68L350.181 245.75C347.931 246.29 346.191 246.29 345.051 246.29H343.971V244.22ZM343.971 229.61H349.761V231.65H346.281V245.39H343.971V229.61ZM350.931 244.22H352.071C353.511 244.22 355.401 244.16 357.471 243.59L357.711 245.66C355.491 246.26 353.631 246.29 352.071 246.29H350.931V244.22ZM350.931 229.61H356.901V231.65H353.211V245.3H350.931V229.61ZM364.191 226.22H366.561V253.34H364.191V226.22ZM370.759 240.08H395.329V242.12H370.759V240.08ZM381.979 241.34H384.469V247.58H381.979V241.34ZM373.909 227.48H392.149V237.02H373.909V227.48ZM389.689 229.49H376.339V235.01H389.689V229.49ZM373.879 250.7H392.599V252.74H373.879V250.7ZM373.879 244.97H376.339V251.42H373.879V244.97ZM409.367 236.75H414.497V238.82H409.367V236.75ZM419.027 226.22H421.427V253.34H419.027V226.22ZM413.657 226.79H416.027V251.99H413.657V226.79ZM404.477 228.47C407.987 228.47 410.267 232.1 410.267 237.92C410.267 243.74 407.987 247.37 404.477 247.37C400.967 247.37 398.717 243.74 398.717 237.92C398.717 232.1 400.967 228.47 404.477 228.47ZM404.477 230.78C402.347 230.78 400.997 233.54 400.997 237.92C400.997 242.3 402.347 245.06 404.477 245.06C406.637 245.06 407.987 242.3 407.987 237.92C407.987 233.54 406.637 230.78 404.477 230.78ZM454.012 225.89H457.792V243.29H454.012V225.89ZM450.622 232.73H455.062V235.97H450.622V232.73ZM448.252 226.43H451.972V242.39H448.252V226.43ZM434.002 228.74H447.472V231.8H434.002V228.74ZM440.782 232.7C444.262 232.7 446.782 234.68 446.782 237.56C446.782 240.44 444.262 242.39 440.782 242.39C437.302 242.39 434.782 240.44 434.782 237.56C434.782 234.68 437.302 232.7 440.782 232.7ZM440.782 235.55C439.312 235.55 438.322 236.27 438.322 237.56C438.322 238.85 439.312 239.57 440.782 239.57C442.222 239.57 443.212 238.85 443.212 237.56C443.212 236.27 442.222 235.55 440.782 235.55ZM438.772 226.16H442.702V230.84H438.772V226.16ZM448.402 243.59C454.342 243.59 457.942 245.39 457.942 248.63C457.942 251.84 454.342 253.67 448.402 253.67C442.432 253.67 438.832 251.84 438.832 248.63C438.832 245.39 442.432 243.59 448.402 243.59ZM448.402 246.56C444.682 246.56 442.822 247.19 442.822 248.63C442.822 250.04 444.682 250.7 448.402 250.7C452.092 250.7 453.952 250.04 453.952 248.63C453.952 247.19 452.092 246.56 448.402 246.56ZM467.96 228.02H471.2V232.07C471.2 238.94 468.8 245.39 463.55 247.97L461.15 244.76C465.83 242.57 467.96 237.23 467.96 232.07V228.02ZM468.77 228.02H471.95V232.07C471.95 237.05 473.93 242.12 478.37 244.28L475.97 247.46C470.96 244.91 468.77 238.73 468.77 232.07V228.02ZM479.48 225.89H483.5V253.67H479.48V225.89ZM482.6 236.57H487.52V239.9H482.6V236.57ZM494.957 235.19H498.947V240.29H494.957V235.19ZM504.737 235.19H508.697V240.29H504.737V235.19ZM489.317 239.06H514.427V242.21H489.317V239.06ZM501.827 243.62C507.827 243.62 511.457 245.42 511.457 248.63C511.457 251.87 507.827 253.67 501.827 253.67C495.797 253.67 492.167 251.87 492.167 248.63C492.167 245.42 495.797 243.62 501.827 243.62ZM501.827 246.62C498.107 246.62 496.217 247.25 496.217 248.63C496.217 250.04 498.107 250.67 501.827 250.67C505.547 250.67 507.437 250.04 507.437 248.63C507.437 247.25 505.547 246.62 501.827 246.62ZM501.887 226.28C508.007 226.28 511.937 228.32 511.937 231.65C511.937 234.95 508.007 236.93 501.887 236.93C495.737 236.93 491.837 234.95 491.837 231.65C491.837 228.32 495.737 226.28 501.887 226.28ZM501.887 229.34C498.077 229.34 495.947 230.09 495.947 231.65C495.947 233.18 498.077 233.93 501.887 233.93C505.697 233.93 507.827 233.18 507.827 231.65C507.827 230.09 505.697 229.34 501.887 229.34ZM529.455 227.93C535.095 227.93 539.295 230.93 539.295 235.43C539.295 239.96 535.095 242.93 529.455 242.93C523.815 242.93 519.585 239.96 519.585 235.43C519.585 230.93 523.815 227.93 529.455 227.93ZM529.455 229.97C525.165 229.97 521.985 232.16 521.985 235.43C521.985 238.67 525.165 240.89 529.455 240.89C533.745 240.89 536.925 238.67 536.925 235.43C536.925 232.16 533.745 229.97 529.455 229.97ZM517.215 247.67H541.785V249.77H517.215V247.67ZM544.813 247.94H569.383V250.01H544.813V247.94ZM555.793 242.12H558.283V248.81H555.793V242.12ZM547.783 228.23H566.353V236.45H550.333V241.88H547.873V234.44H563.893V230.24H547.783V228.23ZM547.873 240.83H566.983V242.87H547.873V240.83ZM587.748 228.98H589.788V231.17C589.788 236.12 586.728 240.35 582.198 242.03L580.908 240.05C584.958 238.61 587.748 235.01 587.748 231.17V228.98ZM588.228 228.98H590.238V231.17C590.238 234.65 592.878 238.04 596.808 239.42L595.548 241.4C591.138 239.78 588.228 235.7 588.228 231.17V228.98ZM595.338 233.27H601.368V235.34H595.338V233.27ZM581.688 228.08H596.178V230.09H581.688V228.08ZM585.048 243.92H603.138V253.34H600.648V245.96H585.048V243.92ZM600.648 226.22H603.138V242.45H600.648V226.22ZM622.905 232.25H629.895V234.29H622.905V232.25ZM615.285 228.53H617.325V230.33C617.325 234.89 614.265 239 609.735 240.53L608.535 238.58C612.495 237.23 615.285 233.81 615.285 230.33V228.53ZM615.765 228.53H617.805V230.36C617.805 233.6 620.445 236.72 624.345 237.95L623.145 239.9C618.705 238.46 615.765 234.68 615.765 230.36V228.53ZM609.285 227.6H623.775V229.64H609.285V227.6ZM628.245 226.22H630.735V240.2H628.245V226.22ZM613.275 241.58H630.735V248.09H615.765V252.29H613.335V246.23H628.275V243.56H613.275V241.58ZM613.335 251.06H631.725V253.04H613.335V251.06ZM654.583 226.22H657.073V241.97H654.583V226.22ZM655.993 233.12H661.093V235.22H655.993V233.12ZM640.033 243.17H642.463V246.05H654.613V243.17H657.073V252.98H640.033V243.17ZM642.463 247.97V250.97H654.613V247.97H642.463ZM636.103 228.98H652.123V231.02H636.103V228.98ZM644.113 232.25C647.983 232.25 650.593 234.14 650.593 237.02C650.593 239.9 647.983 241.79 644.113 241.79C640.213 241.79 637.603 239.9 637.603 237.02C637.603 234.14 640.213 232.25 644.113 232.25ZM644.113 234.14C641.623 234.14 639.973 235.28 639.973 237.02C639.973 238.76 641.623 239.9 644.113 239.9C646.543 239.9 648.223 238.76 648.223 237.02C648.223 235.28 646.543 234.14 644.113 234.14ZM642.853 225.95H645.343V230.09H642.853V225.95ZM683.351 226.22H685.841V253.34H683.351V226.22ZM665.351 228.86H667.811V245.66H665.351V228.86ZM665.351 244.19H667.571C671.681 244.19 675.971 243.89 680.561 242.93L680.861 245.06C676.151 246.02 671.861 246.35 667.571 246.35H665.351V244.19ZM709.568 226.19H712.088V253.37H709.568V226.19ZM711.488 236.9H716.528V239H711.488V236.9ZM692.378 244.52H694.508C699.518 244.52 703.028 244.34 707.078 243.59L707.348 245.69C703.178 246.47 699.608 246.62 694.508 246.62H692.378V244.52ZM692.378 228.83H704.978V230.87H694.838V245.45H692.378V228.83ZM721.469 251.17C720.944 251.17 720.493 250.982 720.116 250.606C719.74 250.229 719.552 249.778 719.552 249.253C719.552 248.727 719.74 248.276 720.116 247.9C720.493 247.523 720.944 247.335 721.469 247.335C721.995 247.335 722.446 247.523 722.822 247.9C723.199 248.276 723.387 248.727 723.387 249.253C723.387 249.601 723.298 249.92 723.121 250.212C722.95 250.503 722.719 250.737 722.428 250.915C722.144 251.085 721.825 251.17 721.469 251.17Z" fill="#2E2E2E"/>
<defs>
<filter id="filter0_f_236_387" x="0" y="5" width="56" height="56" filterUnits="userSpaceOnUse" color-interpolation-filters="sRGB">
<feFlood flood-opacity="0" result="BackgroundImageFix"/>
<feBlend mode="normal" in="SourceGraphic" in2="BackgroundImageFix" result="shape"/>
<feGaussianBlur stdDeviation="2" result="effect1_foregroundBlur_236_387"/>
</filter>
</defs>
</svg>
