<svg width="875" height="441" viewBox="0 0 875 441" fill="none" xmlns="http://www.w3.org/2000/svg">
<path d="M0 0H875V313C875 383.692 817.692 441 747 441H128C57.3076 441 0 383.692 0 313V0Z" fill="#4173FA"/>
<path d="M88.7926 261V217.364H98.0185V253.393H116.726V261H88.7926ZM137.58 261.639C134.213 261.639 131.316 260.957 128.887 259.594C126.472 258.216 124.611 256.27 123.304 253.756C121.998 251.227 121.344 248.237 121.344 244.786C121.344 241.419 121.998 238.464 123.304 235.922C124.611 233.379 126.451 231.398 128.823 229.977C131.209 228.557 134.007 227.847 137.218 227.847C139.377 227.847 141.387 228.195 143.248 228.891C145.123 229.572 146.756 230.602 148.148 231.98C149.554 233.358 150.648 235.091 151.429 237.179C152.211 239.253 152.601 241.682 152.601 244.466V246.959H124.966V241.334H144.057C144.057 240.027 143.773 238.869 143.205 237.861C142.637 236.852 141.848 236.064 140.84 235.496C139.846 234.913 138.688 234.622 137.367 234.622C135.989 234.622 134.767 234.942 133.702 235.581C132.651 236.206 131.827 237.051 131.23 238.116C130.634 239.168 130.328 240.339 130.314 241.632V246.98C130.314 248.599 130.613 249.999 131.209 251.178C131.82 252.357 132.679 253.266 133.787 253.905C134.895 254.544 136.209 254.864 137.729 254.864C138.738 254.864 139.661 254.722 140.499 254.438C141.337 254.153 142.054 253.727 142.651 253.159C143.248 252.591 143.702 251.895 144.015 251.071L152.409 251.625C151.983 253.642 151.11 255.403 149.789 256.909C148.482 258.401 146.792 259.565 144.718 260.403C142.658 261.227 140.279 261.639 137.58 261.639ZM175.932 228.273V235.091H156.223V228.273H175.932ZM160.698 220.432H169.775V250.943C169.775 251.781 169.902 252.435 170.158 252.903C170.414 253.358 170.769 253.678 171.223 253.862C171.692 254.047 172.232 254.139 172.843 254.139C173.269 254.139 173.695 254.104 174.121 254.033C174.547 253.947 174.874 253.884 175.101 253.841L176.529 260.595C176.074 260.737 175.435 260.901 174.611 261.085C173.787 261.284 172.786 261.405 171.607 261.447C169.419 261.533 167.502 261.241 165.854 260.574C164.221 259.906 162.949 258.869 162.04 257.463C161.131 256.057 160.684 254.281 160.698 252.136V220.432ZM190.916 217.364V221.966C190.916 223.273 190.661 224.608 190.149 225.972C189.652 227.321 188.984 228.599 188.146 229.807C187.308 231 186.392 232.016 185.398 232.854L181.392 230.489C182.102 229.366 182.727 228.124 183.267 226.76C183.821 225.396 184.098 223.812 184.098 222.009V217.364H190.916ZM220.091 237.605L211.781 238.116C211.639 237.406 211.333 236.767 210.865 236.199C210.396 235.616 209.778 235.155 209.011 234.814C208.258 234.459 207.356 234.281 206.305 234.281C204.899 234.281 203.713 234.58 202.747 235.176C201.781 235.759 201.298 236.54 201.298 237.52C201.298 238.301 201.61 238.962 202.235 239.501C202.86 240.041 203.933 240.474 205.453 240.801L211.376 241.994C214.558 242.648 216.93 243.699 218.493 245.148C220.055 246.597 220.836 248.5 220.836 250.858C220.836 253.003 220.204 254.885 218.94 256.504C217.69 258.124 215.971 259.388 213.784 260.297C211.61 261.192 209.103 261.639 206.262 261.639C201.93 261.639 198.478 260.737 195.907 258.933C193.35 257.115 191.852 254.643 191.412 251.518L200.339 251.05C200.609 252.371 201.262 253.379 202.299 254.075C203.336 254.757 204.664 255.098 206.284 255.098C207.875 255.098 209.153 254.793 210.119 254.182C211.099 253.557 211.596 252.754 211.61 251.774C211.596 250.95 211.248 250.276 210.566 249.75C209.885 249.21 208.833 248.798 207.413 248.514L201.745 247.385C198.549 246.746 196.17 245.638 194.608 244.061C193.059 242.484 192.285 240.474 192.285 238.031C192.285 235.929 192.853 234.118 193.99 232.598C195.14 231.078 196.752 229.906 198.826 229.082C200.914 228.259 203.358 227.847 206.156 227.847C210.289 227.847 213.542 228.72 215.914 230.467C218.301 232.214 219.693 234.594 220.091 237.605ZM240.609 261V217.364H269.501V224.97H249.835V235.368H267.583V242.974H249.835V261H240.609ZM275.536 261V228.273H284.613V261H275.536ZM280.096 224.054C278.746 224.054 277.589 223.607 276.623 222.712C275.671 221.803 275.195 220.716 275.195 219.452C275.195 218.202 275.671 217.129 276.623 216.234C277.589 215.325 278.746 214.871 280.096 214.871C281.445 214.871 282.596 215.325 283.548 216.234C284.513 217.129 284.996 218.202 284.996 219.452C284.996 220.716 284.513 221.803 283.548 222.712C282.596 223.607 281.445 224.054 280.096 224.054ZM300.961 242.08V261H291.884V228.273H300.534V234.047H300.918C301.642 232.143 302.857 230.638 304.561 229.53C306.266 228.408 308.333 227.847 310.762 227.847C313.034 227.847 315.016 228.344 316.706 229.338C318.397 230.332 319.711 231.753 320.648 233.599C321.586 235.432 322.054 237.619 322.054 240.162V261H312.978V241.781C312.992 239.778 312.48 238.216 311.444 237.094C310.407 235.957 308.979 235.389 307.161 235.389C305.939 235.389 304.86 235.652 303.922 236.178C302.999 236.703 302.275 237.47 301.749 238.479C301.238 239.473 300.975 240.673 300.961 242.08ZM341.268 261.533C338.782 261.533 336.531 260.893 334.513 259.615C332.511 258.322 330.92 256.426 329.741 253.926C328.576 251.412 327.994 248.33 327.994 244.679C327.994 240.929 328.597 237.811 329.805 235.325C331.012 232.825 332.617 230.957 334.62 229.722C336.637 228.472 338.846 227.847 341.246 227.847C343.079 227.847 344.606 228.159 345.827 228.784C347.063 229.395 348.058 230.162 348.81 231.085C349.577 231.994 350.16 232.889 350.558 233.77H350.835V217.364H359.89V261H350.941V255.759H350.558C350.131 256.668 349.528 257.57 348.746 258.464C347.979 259.345 346.978 260.077 345.742 260.659C344.521 261.241 343.029 261.533 341.268 261.533ZM344.144 254.31C345.607 254.31 346.843 253.912 347.852 253.116C348.874 252.307 349.656 251.178 350.195 249.729C350.749 248.28 351.026 246.582 351.026 244.636C351.026 242.69 350.756 241 350.217 239.565C349.677 238.131 348.896 237.023 347.873 236.241C346.85 235.46 345.607 235.07 344.144 235.07C342.653 235.07 341.396 235.474 340.373 236.284C339.35 237.094 338.576 238.216 338.05 239.651C337.525 241.085 337.262 242.747 337.262 244.636C337.262 246.54 337.525 248.223 338.05 249.686C338.59 251.135 339.364 252.271 340.373 253.095C341.396 253.905 342.653 254.31 344.144 254.31ZM386.843 273.273C385.692 273.273 384.613 273.18 383.604 272.996C382.61 272.825 381.786 272.605 381.133 272.335L383.178 265.56C384.244 265.886 385.202 266.064 386.055 266.092C386.921 266.121 387.667 265.922 388.292 265.496C388.931 265.07 389.45 264.345 389.847 263.322L390.38 261.938L378.64 228.273H388.185L394.961 252.307H395.302L402.141 228.273H411.751L399.031 264.537C398.42 266.298 397.589 267.832 396.538 269.139C395.501 270.46 394.187 271.476 392.596 272.186C391.005 272.911 389.087 273.273 386.843 273.273ZM430.128 261.639C426.818 261.639 423.956 260.936 421.541 259.53C419.141 258.109 417.287 256.135 415.98 253.607C414.673 251.064 414.02 248.116 414.02 244.764C414.02 241.384 414.673 238.429 415.98 235.901C417.287 233.358 419.141 231.384 421.541 229.977C423.956 228.557 426.818 227.847 430.128 227.847C433.438 227.847 436.293 228.557 438.693 229.977C441.108 231.384 442.969 233.358 444.276 235.901C445.582 238.429 446.236 241.384 446.236 244.764C446.236 248.116 445.582 251.064 444.276 253.607C442.969 256.135 441.108 258.109 438.693 259.53C436.293 260.936 433.438 261.639 430.128 261.639ZM430.17 254.608C431.676 254.608 432.933 254.182 433.942 253.33C434.95 252.463 435.71 251.284 436.222 249.793C436.747 248.301 437.01 246.604 437.01 244.7C437.01 242.797 436.747 241.099 436.222 239.608C435.71 238.116 434.95 236.937 433.942 236.071C432.933 235.205 431.676 234.771 430.17 234.771C428.651 234.771 427.372 235.205 426.335 236.071C425.313 236.937 424.538 238.116 424.013 239.608C423.501 241.099 423.246 242.797 423.246 244.7C423.246 246.604 423.501 248.301 424.013 249.793C424.538 251.284 425.313 252.463 426.335 253.33C427.372 254.182 428.651 254.608 430.17 254.608ZM473.125 247.065V228.273H482.202V261H473.487V255.055H473.146C472.408 256.973 471.179 258.514 469.46 259.679C467.756 260.844 465.675 261.426 463.217 261.426C461.03 261.426 459.105 260.929 457.443 259.935C455.781 258.94 454.482 257.527 453.544 255.695C452.621 253.862 452.152 251.668 452.138 249.111V228.273H461.214V247.491C461.229 249.423 461.747 250.95 462.77 252.072C463.793 253.195 465.163 253.756 466.882 253.756C467.976 253.756 468.999 253.507 469.95 253.01C470.902 252.499 471.669 251.746 472.251 250.751C472.848 249.757 473.139 248.528 473.125 247.065ZM489.462 261V228.273H498.262V233.983H498.603C499.199 231.952 500.201 230.418 501.607 229.381C503.013 228.33 504.632 227.804 506.465 227.804C506.919 227.804 507.409 227.832 507.935 227.889C508.461 227.946 508.922 228.024 509.32 228.124V236.178C508.894 236.05 508.304 235.936 507.551 235.837C506.799 235.737 506.11 235.688 505.485 235.688C504.15 235.688 502.956 235.979 501.905 236.561C500.868 237.129 500.044 237.925 499.434 238.947C498.837 239.97 498.539 241.149 498.539 242.484V261H489.462ZM88.7926 334V290.364H106.264C109.474 290.364 112.152 290.839 114.297 291.791C116.442 292.743 118.054 294.064 119.134 295.754C120.213 297.43 120.753 299.362 120.753 301.55C120.753 303.254 120.412 304.753 119.73 306.045C119.048 307.324 118.111 308.375 116.918 309.199C115.739 310.009 114.389 310.584 112.869 310.925V311.351C114.531 311.422 116.087 311.891 117.536 312.757C118.999 313.624 120.185 314.838 121.094 316.401C122.003 317.949 122.457 319.795 122.457 321.94C122.457 324.256 121.882 326.322 120.732 328.141C119.595 329.945 117.912 331.372 115.682 332.423C113.452 333.474 110.703 334 107.436 334H88.7926ZM98.0185 326.457H105.54C108.111 326.457 109.986 325.967 111.165 324.987C112.344 323.993 112.933 322.672 112.933 321.024C112.933 319.817 112.642 318.751 112.06 317.828C111.477 316.905 110.646 316.18 109.567 315.655C108.501 315.129 107.23 314.866 105.753 314.866H98.0185V326.457ZM98.0185 308.624H104.858C106.122 308.624 107.244 308.403 108.224 307.963C109.219 307.509 110 306.869 110.568 306.045C111.151 305.222 111.442 304.234 111.442 303.084C111.442 301.507 110.881 300.236 109.759 299.27C108.651 298.304 107.074 297.821 105.028 297.821H98.0185V308.624ZM143.205 334.639C139.838 334.639 136.941 333.957 134.512 332.594C132.097 331.216 130.236 329.27 128.929 326.756C127.623 324.227 126.969 321.237 126.969 317.786C126.969 314.419 127.623 311.464 128.929 308.922C130.236 306.379 132.076 304.398 134.448 302.977C136.834 301.557 139.632 300.847 142.843 300.847C145.002 300.847 147.012 301.195 148.873 301.891C150.748 302.572 152.381 303.602 153.773 304.98C155.179 306.358 156.273 308.091 157.054 310.179C157.836 312.253 158.226 314.682 158.226 317.466V319.959H130.591V314.334H149.682C149.682 313.027 149.398 311.869 148.83 310.861C148.262 309.852 147.473 309.064 146.465 308.496C145.471 307.913 144.313 307.622 142.992 307.622C141.614 307.622 140.392 307.942 139.327 308.581C138.276 309.206 137.452 310.051 136.855 311.116C136.259 312.168 135.953 313.339 135.939 314.632V319.98C135.939 321.599 136.238 322.999 136.834 324.178C137.445 325.357 138.304 326.266 139.412 326.905C140.52 327.544 141.834 327.864 143.354 327.864C144.363 327.864 145.286 327.722 146.124 327.438C146.962 327.153 147.679 326.727 148.276 326.159C148.873 325.591 149.327 324.895 149.64 324.071L158.034 324.625C157.608 326.642 156.735 328.403 155.414 329.909C154.107 331.401 152.417 332.565 150.343 333.403C148.283 334.227 145.904 334.639 143.205 334.639ZM191.38 310.605L183.07 311.116C182.928 310.406 182.623 309.767 182.154 309.199C181.685 308.616 181.067 308.155 180.3 307.814C179.547 307.459 178.645 307.281 177.594 307.281C176.188 307.281 175.002 307.58 174.036 308.176C173.07 308.759 172.587 309.54 172.587 310.52C172.587 311.301 172.9 311.962 173.525 312.501C174.15 313.041 175.222 313.474 176.742 313.801L182.665 314.994C185.847 315.648 188.219 316.699 189.782 318.148C191.344 319.597 192.125 321.5 192.125 323.858C192.125 326.003 191.493 327.885 190.229 329.504C188.979 331.124 187.26 332.388 185.073 333.297C182.9 334.192 180.392 334.639 177.551 334.639C173.219 334.639 169.767 333.737 167.196 331.933C164.64 330.115 163.141 327.643 162.701 324.518L171.628 324.05C171.898 325.371 172.551 326.379 173.588 327.075C174.625 327.757 175.953 328.098 177.573 328.098C179.164 328.098 180.442 327.793 181.408 327.182C182.388 326.557 182.885 325.754 182.9 324.774C182.885 323.95 182.537 323.276 181.855 322.75C181.174 322.21 180.123 321.798 178.702 321.514L173.034 320.385C169.838 319.746 167.459 318.638 165.897 317.061C164.348 315.484 163.574 313.474 163.574 311.031C163.574 308.929 164.142 307.118 165.279 305.598C166.429 304.078 168.042 302.906 170.115 302.082C172.203 301.259 174.647 300.847 177.445 300.847C181.578 300.847 184.831 301.72 187.203 303.467C189.59 305.214 190.982 307.594 191.38 310.605ZM215.249 301.273V308.091H195.54V301.273H215.249ZM200.014 293.432H209.091V323.943C209.091 324.781 209.219 325.435 209.474 325.903C209.73 326.358 210.085 326.678 210.54 326.862C211.009 327.047 211.548 327.139 212.159 327.139C212.585 327.139 213.011 327.104 213.438 327.033C213.864 326.947 214.19 326.884 214.418 326.841L215.845 333.595C215.391 333.737 214.751 333.901 213.928 334.085C213.104 334.284 212.102 334.405 210.923 334.447C208.736 334.533 206.818 334.241 205.17 333.574C203.537 332.906 202.266 331.869 201.357 330.463C200.447 329.057 200 327.281 200.014 325.136V293.432ZM235.218 334V290.364H264.11V297.97H244.444V308.368H262.193V315.974H244.444V334H235.218ZM282.53 334.639C279.221 334.639 276.358 333.936 273.944 332.53C271.543 331.109 269.689 329.135 268.382 326.607C267.076 324.064 266.422 321.116 266.422 317.764C266.422 314.384 267.076 311.429 268.382 308.901C269.689 306.358 271.543 304.384 273.944 302.977C276.358 301.557 279.221 300.847 282.53 300.847C285.84 300.847 288.695 301.557 291.096 302.977C293.51 304.384 295.371 306.358 296.678 308.901C297.985 311.429 298.638 314.384 298.638 317.764C298.638 321.116 297.985 324.064 296.678 326.607C295.371 329.135 293.51 331.109 291.096 332.53C288.695 333.936 285.84 334.639 282.53 334.639ZM282.573 327.608C284.078 327.608 285.336 327.182 286.344 326.33C287.353 325.463 288.113 324.284 288.624 322.793C289.15 321.301 289.412 319.604 289.412 317.7C289.412 315.797 289.15 314.099 288.624 312.608C288.113 311.116 287.353 309.937 286.344 309.071C285.336 308.205 284.078 307.771 282.573 307.771C281.053 307.771 279.775 308.205 278.738 309.071C277.715 309.937 276.941 311.116 276.415 312.608C275.904 314.099 275.648 315.797 275.648 317.7C275.648 319.604 275.904 321.301 276.415 322.793C276.941 324.284 277.715 325.463 278.738 326.33C279.775 327.182 281.053 327.608 282.573 327.608ZM313.617 315.08V334H304.54V301.273H313.191V307.047H313.574C314.299 305.143 315.513 303.638 317.218 302.53C318.922 301.408 320.989 300.847 323.418 300.847C325.691 300.847 327.672 301.344 329.363 302.338C331.053 303.332 332.367 304.753 333.304 306.599C334.242 308.432 334.711 310.619 334.711 313.162V334H325.634V314.781C325.648 312.778 325.137 311.216 324.1 310.094C323.063 308.957 321.635 308.389 319.817 308.389C318.596 308.389 317.516 308.652 316.578 309.178C315.655 309.703 314.931 310.47 314.405 311.479C313.894 312.473 313.631 313.673 313.617 315.08ZM359.272 301.273V308.091H339.563V301.273H359.272ZM344.038 293.432H353.114V323.943C353.114 324.781 353.242 325.435 353.498 325.903C353.754 326.358 354.109 326.678 354.563 326.862C355.032 327.047 355.572 327.139 356.183 327.139C356.609 327.139 357.035 327.104 357.461 327.033C357.887 326.947 358.214 326.884 358.441 326.841L359.869 333.595C359.414 333.737 358.775 333.901 357.951 334.085C357.127 334.284 356.126 334.405 354.947 334.447C352.759 334.533 350.842 334.241 349.194 333.574C347.56 332.906 346.289 331.869 345.38 330.463C344.471 329.057 344.023 327.281 344.038 325.136V293.432ZM376.03 290.364L375.199 320.918H367.401L366.548 290.364H376.03ZM371.3 334.554C369.893 334.554 368.686 334.057 367.678 333.062C366.669 332.054 366.172 330.847 366.186 329.44C366.172 328.048 366.669 326.855 367.678 325.861C368.686 324.866 369.893 324.369 371.3 324.369C372.649 324.369 373.835 324.866 374.858 325.861C375.881 326.855 376.399 328.048 376.413 329.44C376.399 330.378 376.151 331.237 375.668 332.018C375.199 332.786 374.581 333.403 373.814 333.872C373.047 334.327 372.209 334.554 371.3 334.554Z" fill="white"/>
<circle cx="674.346" cy="307.347" r="39.3465" fill="white"/>
<circle cx="736.548" cy="307.347" r="39.3465" fill="white"/>
<circle cx="797.804" cy="307.347" r="39.3465" fill="white"/>
</svg>
