<svg width="400" height="46" viewBox="0 0 400 46" fill="none" xmlns="http://www.w3.org/2000/svg">
<g filter="url(#filter0_d_191_6)">
<path d="M4.725 21.24H38.285V25.48H4.725V21.24ZM18.725 23.96H24.005V37.56H18.725V23.96ZM8.605 2.32H34.285V17.28H8.605V2.32ZM29.045 6.52H13.845V13.08H29.045V6.52ZM50.0419 22.12H55.2419V30.84H50.0419V22.12ZM61.7619 22.08H66.9619V30.84H61.7619V22.08ZM41.5619 29.16H75.0819V33.48H41.5619V29.16ZM45.3219 2.92H71.3219V15.2H50.6819V21.48H45.4019V11.04H66.0419V7.12H45.3219V2.92ZM45.4019 19.24H72.1619V23.52H45.4019V19.24ZM89.8325 1.88H117.433V6.08H89.8325V1.88ZM90.1125 12.36H117.153V16.52H90.1125V12.36ZM94.5525 3.52H99.8725V14.52H94.5525V3.52ZM107.393 3.52H112.713V14.52H107.393V3.52ZM86.9125 19.88H120.393V24.08H86.9125V19.88ZM100.953 15.16H106.273V22.36H100.953V15.16ZM90.9525 32.68H116.633V36.92H90.9525V32.68ZM90.9525 26.44H96.2725V34.2H90.9525V26.44ZM127.669 19.6H153.709V23.76H127.669V19.6ZM123.749 29H157.269V33.32H123.749V29ZM127.669 3.2H153.389V7.48H133.069V20.76H127.669V3.2ZM131.429 11.36H152.549V15.48H131.429V11.36ZM195.06 10.56V14.6L172.42 15.72L171.78 11.24L195.06 10.56ZM173.02 2.56H196.22V6.76H173.02V2.56ZM169.14 20.08H202.62V24.36H169.14V20.08ZM183.18 23.48H188.5V37.52H183.18V23.48ZM193.82 2.56H198.94V5.88C198.94 9.96 198.94 14.52 197.5 21.16L192.34 20.56C193.82 14.32 193.82 9.84 193.82 5.88V2.56ZM208.817 1.88H236.417V6.08H208.817V1.88ZM209.097 12.36H236.137V16.52H209.097V12.36ZM213.537 3.52H218.857V14.52H213.537V3.52ZM226.377 3.52H231.697V14.52H226.377V3.52ZM205.897 19.88H239.377V24.08H205.897V19.88ZM219.937 15.16H225.257V22.36H219.937V15.16ZM209.937 32.68H235.617V36.92H209.937V32.68ZM209.937 26.44H215.257V34.2H209.937V26.44ZM274.968 0.479998H280.328V37.64H274.968V0.479998ZM279.128 14.2H285.688V18.56H279.128V14.2ZM252.728 24.32H255.848C262.088 24.32 267.008 24.12 272.448 23.16L272.968 27.56C267.368 28.56 262.288 28.72 255.848 28.72H252.728V24.32ZM252.728 3.92H270.008V8.2H258.008V26.44H252.728V3.92ZM288.084 18.52H321.644V22.72H288.084V18.52ZM302.444 21.28H307.844V29.08H302.444V21.28ZM292.004 32.64H317.964V36.92H292.004V32.64ZM292.004 25.84H297.364V33.72H292.004V25.84ZM304.844 1.2C312.804 1.2 318.164 4.2 318.164 8.88C318.164 13.6 312.804 16.56 304.844 16.56C296.844 16.56 291.524 13.6 291.524 8.88C291.524 4.2 296.844 1.2 304.844 1.2ZM304.844 5.4C300.164 5.4 297.244 6.6 297.244 8.88C297.244 11.16 300.164 12.32 304.844 12.32C309.524 12.32 312.444 11.16 312.444 8.88C312.444 6.6 309.524 5.4 304.844 5.4ZM324.921 29.16H358.441V33.48H324.921V29.16ZM338.961 22.16H344.281V30.92H338.961V22.16ZM328.681 2.92H354.681V15.24H334.041V21.48H328.761V11.08H349.401V7.12H328.681V2.92ZM328.761 19.36H355.521V23.64H328.761V19.36ZM365.598 17.6H391.638V21.84H365.598V17.6ZM361.718 28.76H395.238V33.12H361.718V28.76ZM365.598 3.56H391.358V7.88H370.878V19.36H365.598V3.56Z" fill="white"/>
</g>
<defs>
<filter id="filter0_d_191_6" x="0.725098" y="0.480469" width="398.513" height="45.1592" filterUnits="userSpaceOnUse" color-interpolation-filters="sRGB">
<feFlood flood-opacity="0" result="BackgroundImageFix"/>
<feColorMatrix in="SourceAlpha" type="matrix" values="0 0 0 0 0 0 0 0 0 0 0 0 0 0 0 0 0 0 127 0" result="hardAlpha"/>
<feOffset dy="4"/>
<feGaussianBlur stdDeviation="2"/>
<feComposite in2="hardAlpha" operator="out"/>
<feColorMatrix type="matrix" values="0 0 0 0 0 0 0 0 0 0 0 0 0 0 0 0 0 0 0.25 0"/>
<feBlend mode="normal" in2="BackgroundImageFix" result="effect1_dropShadow_191_6"/>
<feBlend mode="normal" in="SourceGraphic" in2="effect1_dropShadow_191_6" result="shape"/>
</filter>
</defs>
</svg>
